<svg display="none" xmlns="http://www.w3.org/2000/svg">
    <symbol id="header__logo" viewBox="0 0 151 52">
        <path d="M80.9316 12.1652C82.1086 12.1652 83.0714 13.0566 83.0714 14.305V38.0693H79.9319V28.7566H73.9015C73.5101 28.7566 73.2588 28.7566 73.0816 28.7196L67.2655 38.0693H63.8033L69.9765 28.1139C66.5858 26.9369 64.5889 24.0461 64.5889 20.5839C64.5889 18.1215 65.4458 16.1246 67.1941 14.5536C68.9424 12.9481 71.1905 12.1626 74.01 12.1626H80.9316V12.1652ZM79.9319 26.0112V15.0561H74.1501C70.2595 15.0561 67.7998 17.4101 67.7998 20.5522C67.7998 23.7287 70.2622 26.0112 74.1501 26.0112H79.9319Z" />
        <path d="M96.9401 12.166C99.7596 12.166 102.008 12.9515 103.756 14.557C105.504 16.1281 106.396 18.1249 106.396 20.553C106.396 22.9439 105.504 24.9408 103.756 26.5119C102.008 28.0829 99.7596 28.8658 96.9401 28.8658H91.1954V38.0727H88.056V14.3084C88.056 13.06 88.9473 12.1687 90.1957 12.1687H96.9401V12.166ZM96.7973 25.975C100.688 25.975 103.185 23.6924 103.185 20.5503C103.185 17.4108 100.688 15.0542 96.7973 15.0542H91.1954V25.9723H96.7973V25.975Z" />
        <path d="M126.233 12.166H129.586L119.845 33.3278C119.097 34.9332 118.454 36.0388 117.917 36.6471C116.883 37.7527 115.635 38.324 114.135 38.324C112.635 38.324 111.387 38.1811 110.387 37.8611L110.85 34.9359C111.956 35.1845 112.99 35.2929 113.884 35.2929C115.061 35.2929 116.026 34.5788 116.703 33.1876L117.203 32.045L108.068 12.1687H111.421L118.843 28.477L126.233 12.166Z" />
        <path d="M133.942 34.6113C131.731 32.1145 130.622 28.9724 130.622 25.1558C130.622 21.3022 131.728 18.1257 133.942 15.6633C136.153 13.1666 138.938 11.9155 142.329 11.9155C144.54 11.9155 147.111 12.5926 150.002 13.9151L148.716 16.6631C146.468 15.5575 144.397 14.9862 142.437 14.9862C139.903 14.9862 137.835 15.949 136.227 17.8401C134.622 19.7312 133.836 22.1592 133.836 25.1558C133.836 28.1181 134.622 30.5435 136.227 32.4346C137.832 34.3257 139.903 35.254 142.437 35.254C144.4 35.254 146.468 34.6827 148.716 33.5772L150.002 36.3252C147.148 37.645 144.577 38.3247 142.329 38.3247C138.935 38.3221 136.153 37.0737 133.942 34.6113Z"/>
        <path d="M51.8052 24.854C51.8052 24.8143 51.8078 24.7747 51.8052 24.735H51.7999C51.181 10.9922 39.808 0 25.9144 0C17.4349 0 9.89431 4.09429 5.16525 10.4076L5.15731 10.4023C5.02243 10.5795 4.89812 10.7594 4.77381 10.9419C1.63697 15.3589 -0.153619 20.7967 0.0103636 26.6525C0.396517 40.4535 11.7113 51.615 25.515 51.8239C39.9852 52.0408 51.8264 40.3345 51.8264 25.9146C51.829 25.5575 51.8211 25.2058 51.8052 24.854ZM48.8588 24.9095C48.8826 31.4742 43.6007 36.8671 37.0203 36.9623C36.9621 36.9623 36.9039 36.9623 36.8457 36.9623C31.63 36.9623 27.094 33.635 25.4674 28.8081C32.7329 28.0808 38.4247 21.9314 38.4247 14.4781C38.4247 10.6615 36.9303 7.19145 34.4997 4.61004C42.6274 7.90028 48.4621 15.7106 48.8588 24.9095ZM35.4757 14.7029C35.354 20.974 30.1012 25.9331 23.8302 25.9331H17.3238V6.45088C17.3238 5.30829 18.0697 4.30059 19.162 3.96469C20.7225 3.48332 22.3517 3.16593 24.0312 3.0284C30.4186 3.0284 35.6 8.28908 35.4757 14.7029ZM13.3194 6.71801C13.7744 6.41914 14.3774 6.73653 14.3774 7.27873V25.9331H14.3615C9.62717 25.9331 5.77886 22.0822 5.77886 17.3505C5.77886 15.6392 6.27346 14.01 7.21239 12.6029C8.86545 10.286 10.939 8.28643 13.3194 6.71801ZM3.4593 21.0983C4.57279 24.3303 7.08544 26.9144 10.2699 28.1284C7.81014 29.9983 5.98781 32.6062 5.07797 35.5579C3.71321 32.6247 2.95148 29.3556 2.95148 25.912C2.94883 24.2616 3.12604 22.6508 3.4593 21.0983ZM7.37902 39.4564C7.53771 34.9575 10.2805 30.9161 14.3774 29.099V44.5452C14.3774 45.0874 13.7744 45.4048 13.3221 45.1086C11.0184 43.593 9.00563 41.6755 7.37902 39.4564ZM25.917 48.8802C23.5737 48.8802 21.3123 48.5257 19.1805 47.8698C18.0829 47.5313 17.3238 46.5262 17.3238 45.3783V28.8822H22.4152C24.1661 35.3621 30.0431 39.9087 36.8457 39.9087C36.9198 39.9087 36.9912 39.9087 37.0652 39.9061C40.5512 39.8558 43.7409 38.6074 46.2589 36.5656C42.4106 43.8813 34.7377 48.8802 25.917 48.8802Z"/>
    </symbol>

    <symbol id="header__phone" viewBox="0 0 24 24">
        <g clip-path="url(#clip0_170_10121)">
            <path d="M19.2001 23.9201C18.2401 23.9201 17.0401 23.6801 15.6801 23.2001C12.8001 22.0801 9.68008 20.0001 6.88008 17.1201C4.08008 14.2401 1.92008 11.2001 0.800078 8.32008C-0.159922 5.68008 -0.159922 3.52008 0.800078 2.56008C0.960078 2.40008 1.12008 2.24008 1.28008 2.08008C2.16008 1.12008 3.20008 0.0800781 4.56008 0.0800781C5.52008 0.0800781 6.40008 0.720078 7.28008 1.84008C10.0001 5.20008 8.80008 6.40008 7.36008 7.84008L7.12008 8.08008C6.88008 8.32008 6.48008 9.36008 10.5601 13.4401C11.9201 14.8001 13.0401 15.7601 13.9201 16.3201C14.4801 16.7201 15.5201 17.2801 15.9201 16.8001L16.1601 16.5601C17.5201 15.1201 18.7201 13.9201 22.1601 16.6401C23.2801 17.5201 23.8401 18.4801 23.9201 19.3601C24.0001 20.7201 22.8801 21.7601 21.9201 22.6401C21.7601 22.8001 21.6001 22.9601 21.4401 23.0401C20.9601 23.6801 20.2401 23.9201 19.2001 23.9201ZM4.48008 0.880078C3.52008 0.880078 2.64008 1.76008 1.92008 2.56008C1.68008 2.80008 1.52008 2.96008 1.44008 3.12008C0.640078 3.84008 0.720078 5.76008 1.60008 8.00008C2.64008 10.8001 4.72008 13.8401 7.44008 16.5601C10.1601 19.2801 13.2001 21.3601 16.0001 22.4001C18.2401 23.2801 20.1601 23.3601 20.8801 22.5601C21.0401 22.4001 21.2001 22.2401 21.3601 22.0801C22.1601 21.2801 23.1201 20.4001 23.0401 19.4401C23.0401 18.8001 22.5601 18.0001 21.6001 17.2801C18.8001 15.0401 18.0001 15.8401 16.7201 17.1201L16.4801 17.3601C15.8401 18.0001 14.8801 17.8401 13.4401 16.9601C12.4801 16.3201 11.2801 15.3601 9.92008 13.9201C6.56008 10.5601 5.44008 8.48008 6.48008 7.44008L6.72008 7.20008C8.08008 5.92008 8.88008 5.12008 6.56008 2.32008C5.92008 1.44008 5.20008 0.960078 4.48008 0.880078Z"/>
            <path d="M19.3601 9.9201C19.2801 9.9201 19.2801 9.9201 19.2001 9.9201C18.9601 9.8401 18.8801 9.6001 18.9601 9.4401C19.4401 8.1601 19.2001 6.7201 18.2401 5.7601C17.2801 4.8001 15.7601 4.4801 14.4801 5.0401C14.3201 5.1201 14.0801 5.0401 13.9201 4.8801C13.8401 4.6401 13.9201 4.4801 14.0801 4.3201C15.6801 3.6001 17.5201 3.9201 18.7201 5.2001C19.9201 6.4001 20.2401 8.1601 19.6001 9.6801C19.6801 9.8401 19.5201 9.9201 19.3601 9.9201Z"/>
            <path d="M22.96 11.3601C22.88 11.3601 22.88 11.3601 22.8 11.3601C22.56 11.2801 22.48 11.0401 22.56 10.8801C23.68 8.16006 23.04 5.12006 20.96 3.04006C18.88 0.96006 15.6 0.32006 12.88 1.60006C12.64 1.68006 12.48 1.60006 12.32 1.44006C12.24 1.20006 12.32 1.04006 12.48 0.88006C15.52 -0.47994 19.12 0.16006 21.44 2.48006C23.76 4.80006 24.4 8.16006 23.2 11.2001C23.28 11.2801 23.12 11.3601 22.96 11.3601Z"/>
        </g>
        <defs>
            <clipPath id="clip0_170_10121">
                <rect width="24" height="24"/>
            </clipPath>
        </defs>
    </symbol>

    <symbol id="prosent" viewBox="0 0 15 15">
        <path d="M11.0459 0.0982064C10.6253 -0.127669 10.1108 0.0493148 9.89686 0.493489L3.54101 13.6889C3.32708 14.1331 3.49475 14.676 3.91549 14.9019C4.03521 14.9663 4.1677 15 4.30211 15C4.61352 15 4.91371 14.8197 5.06457 14.5066L11.4204 1.31112C11.6344 0.867002 11.4667 0.324022 11.0459 0.0982064ZM6.48221 4.44355C6.48221 2.5571 5.02822 1.02234 3.24105 1.02234C1.45399 1.02234 0 2.5571 0 4.44355C0 6.32994 1.45399 7.8647 3.24111 7.8647C5.02828 7.8647 6.48221 6.32994 6.48221 4.44355ZM3.24111 6.06058C2.39643 6.06058 1.70917 5.33515 1.70917 4.44355C1.70917 3.55189 2.39643 2.82646 3.24111 2.82646C4.08584 2.82646 4.7731 3.55183 4.7731 4.44355C4.77304 5.33515 4.08584 6.06058 3.24111 6.06058ZM11.7589 7.13542C9.97172 7.13542 8.51773 8.67018 8.51773 10.5566C8.51773 12.443 9.97167 13.9777 11.7589 13.9777C13.546 13.9777 15 12.443 15 10.5566C15 8.67012 13.5461 7.13542 11.7589 7.13542ZM11.7589 12.1735C10.9142 12.1735 10.2269 11.4481 10.2269 10.5565C10.2269 9.66492 10.9142 8.93948 11.7589 8.93948C12.6036 8.93948 13.2908 9.66492 13.2908 10.5565C13.2908 11.4481 12.6036 12.1735 11.7589 12.1735Z" fill="#CC9966"/>
    </symbol>

    <symbol id="instagram" viewBox="0 0 22 22">
        <path fill-rule="evenodd" clip-rule="evenodd" d="M6.465 0.066C7.638 0.012 8.012 0 11 0C13.988 0 14.362 0.013 15.534 0.066C16.706 0.119 17.506 0.306 18.206 0.577C18.939 0.854 19.604 1.287 20.154 1.847C20.714 2.396 21.146 3.06 21.422 3.794C21.694 4.494 21.88 5.294 21.934 6.464C21.988 7.639 22 8.013 22 11C22 13.988 21.987 14.362 21.934 15.535C21.881 16.705 21.694 17.505 21.422 18.205C21.146 18.9391 20.7133 19.6042 20.154 20.154C19.604 20.714 18.939 21.146 18.206 21.422C17.506 21.694 16.706 21.88 15.536 21.934C14.362 21.988 13.988 22 11 22C8.012 22 7.638 21.987 6.465 21.934C5.295 21.881 4.495 21.694 3.795 21.422C3.06092 21.146 2.39582 20.7133 1.846 20.154C1.28638 19.6047 0.853315 18.9399 0.577 18.206C0.306 17.506 0.12 16.706 0.066 15.536C0.012 14.361 0 13.987 0 11C0 8.012 0.013 7.638 0.066 6.466C0.119 5.294 0.306 4.494 0.577 3.794C0.853723 3.06008 1.28712 2.39531 1.847 1.846C2.39604 1.2865 3.06047 0.853443 3.794 0.577C4.494 0.306 5.294 0.12 6.464 0.066H6.465ZM15.445 2.046C14.285 1.993 13.937 1.982 11 1.982C8.063 1.982 7.715 1.993 6.555 2.046C5.482 2.095 4.9 2.274 4.512 2.425C3.999 2.625 3.632 2.862 3.247 3.247C2.88205 3.60205 2.60118 4.03428 2.425 4.512C2.274 4.9 2.095 5.482 2.046 6.555C1.993 7.715 1.982 8.063 1.982 11C1.982 13.937 1.993 14.285 2.046 15.445C2.095 16.518 2.274 17.1 2.425 17.488C2.601 17.965 2.882 18.398 3.247 18.753C3.602 19.118 4.035 19.399 4.512 19.575C4.9 19.726 5.482 19.905 6.555 19.954C7.715 20.007 8.062 20.018 11 20.018C13.938 20.018 14.285 20.007 15.445 19.954C16.518 19.905 17.1 19.726 17.488 19.575C18.001 19.375 18.368 19.138 18.753 18.753C19.118 18.398 19.399 17.965 19.575 17.488C19.726 17.1 19.905 16.518 19.954 15.445C20.007 14.285 20.018 13.937 20.018 11C20.018 8.063 20.007 7.715 19.954 6.555C19.905 5.482 19.726 4.9 19.575 4.512C19.375 3.999 19.138 3.632 18.753 3.247C18.3979 2.88207 17.9657 2.60121 17.488 2.425C17.1 2.274 16.518 2.095 15.445 2.046ZM9.595 14.391C10.3797 14.7176 11.2534 14.7617 12.0669 14.5157C12.8805 14.2697 13.5834 13.7489 14.0556 13.0422C14.5278 12.3356 14.7401 11.4869 14.656 10.6411C14.572 9.79534 14.197 9.00497 13.595 8.405C13.2112 8.02148 12.7472 7.72781 12.2363 7.54515C11.7255 7.36248 11.1804 7.29536 10.6405 7.34862C10.1006 7.40187 9.57915 7.57418 9.1138 7.85313C8.64845 8.13208 8.25074 8.51074 7.9493 8.96185C7.64786 9.41296 7.45019 9.92529 7.37052 10.462C7.29084 10.9986 7.33115 11.5463 7.48854 12.0655C7.64593 12.5847 7.91648 13.0626 8.28072 13.4647C8.64496 13.8668 9.09382 14.1832 9.595 14.391ZM7.002 7.002C7.52702 6.47697 8.15032 6.0605 8.8363 5.77636C9.52228 5.49222 10.2575 5.34597 11 5.34597C11.7425 5.34597 12.4777 5.49222 13.1637 5.77636C13.8497 6.0605 14.473 6.47697 14.998 7.002C15.523 7.52702 15.9395 8.15032 16.2236 8.8363C16.5078 9.52228 16.654 10.2575 16.654 11C16.654 11.7425 16.5078 12.4777 16.2236 13.1637C15.9395 13.8497 15.523 14.473 14.998 14.998C13.9377 16.0583 12.4995 16.654 11 16.654C9.50046 16.654 8.06234 16.0583 7.002 14.998C5.94166 13.9377 5.34597 12.4995 5.34597 11C5.34597 9.50046 5.94166 8.06234 7.002 7.002ZM17.908 6.188C18.0381 6.06527 18.1423 5.91768 18.2143 5.75397C18.2863 5.59027 18.3248 5.41377 18.3274 5.23493C18.33 5.05609 18.2967 4.87855 18.2295 4.71281C18.1622 4.54707 18.0624 4.39651 17.936 4.27004C17.8095 4.14357 17.6589 4.04376 17.4932 3.97652C17.3275 3.90928 17.1499 3.87598 16.9711 3.87858C16.7922 3.88119 16.6157 3.91965 16.452 3.9917C16.2883 4.06374 16.1407 4.1679 16.018 4.298C15.7793 4.55103 15.6486 4.88712 15.6537 5.23493C15.6588 5.58274 15.7992 5.91488 16.0452 6.16084C16.2911 6.40681 16.6233 6.54723 16.9711 6.5523C17.3189 6.55737 17.655 6.42669 17.908 6.188Z"/>
    </symbol>

    <symbol id="vk" viewBox="0 0 24 14">
        <path fill-rule="evenodd" clip-rule="evenodd" d="M23.45 0.948C23.616 0.402 23.45 0 22.655 0H20.03C19.362 0 19.054 0.347 18.887 0.73C18.887 0.73 17.552 3.926 15.661 6.002C15.049 6.604 14.771 6.795 14.437 6.795C14.27 6.795 14.019 6.604 14.019 6.057V0.948C14.019 0.292 13.835 0 13.279 0H9.151C8.734 0 8.483 0.304 8.483 0.593C8.483 1.214 9.429 1.358 9.526 3.106V6.904C9.526 7.737 9.373 7.888 9.039 7.888C8.149 7.888 5.984 4.677 4.699 1.003C4.45 0.288 4.198 0 3.527 0H0.9C0.15 0 0 0.347 0 0.73C0 1.412 0.89 4.8 4.145 9.281C6.315 12.341 9.37 14 12.153 14C13.822 14 14.028 13.632 14.028 12.997V10.684C14.028 9.947 14.186 9.8 14.715 9.8C15.105 9.8 15.772 9.992 17.33 11.467C19.11 13.216 19.403 14 20.405 14H23.03C23.78 14 24.156 13.632 23.94 12.904C23.702 12.18 22.852 11.129 21.725 9.882C21.113 9.172 20.195 8.407 19.916 8.024C19.527 7.533 19.638 7.314 19.916 6.877C19.916 6.877 23.116 2.451 23.449 0.948H23.45Z"/>  
    </symbol>

    <symbol id="telegram" viewBox="0 0 21 17">
        <path d="M18.6646 0.110375L0.934606 6.94737C-0.275394 7.43337 -0.268393 8.10837 0.712607 8.40937L5.26461 9.82937L15.7966 3.18437C16.2946 2.88137 16.7496 3.04437 16.3756 3.37637L7.84261 11.0774H7.84061L7.84261 11.0784L7.52861 15.7704C7.98861 15.7704 8.19161 15.5594 8.44961 15.3104L10.6606 13.1604L15.2596 16.5574C16.1076 17.0244 16.7166 16.7844 16.9276 15.7724L19.9466 1.54437C20.2556 0.305375 19.4736 -0.255625 18.6646 0.110375Z"/>
    </symbol>

    <symbol id="whatsapp" viewBox="0 0 24 24">
       <path fill-rule="evenodd" clip-rule="evenodd" d="M17.415 14.382C17.117 14.233 15.656 13.515 15.384 13.415C15.112 13.316 14.914 13.267 14.715 13.565C14.517 13.861 13.948 14.531 13.775 14.729C13.601 14.928 13.428 14.952 13.131 14.804C12.834 14.654 11.876 14.341 10.741 13.329C9.858 12.541 9.261 11.568 9.088 11.27C8.915 10.973 9.069 10.812 9.218 10.664C9.352 10.531 9.515 10.317 9.664 10.144C9.813 9.97004 9.862 9.84604 9.961 9.64704C10.061 9.44904 10.011 9.27604 9.936 9.12704C9.862 8.97804 9.268 7.51504 9.02 6.92004C8.779 6.34104 8.534 6.42004 8.352 6.41004C8.178 6.40204 7.98 6.40004 7.782 6.40004C7.584 6.40004 7.262 6.47404 6.99 6.77204C6.717 7.06904 5.95 7.78804 5.95 9.25104C5.95 10.713 7.014 12.126 7.163 12.325C7.312 12.523 9.258 15.525 12.239 16.812C12.949 17.118 13.502 17.301 13.933 17.437C14.645 17.664 15.293 17.632 15.805 17.555C16.375 17.47 17.563 16.836 17.811 16.142C18.058 15.448 18.058 14.853 17.984 14.729C17.91 14.605 17.712 14.531 17.414 14.382H17.415ZM11.993 21.785H11.989C10.2184 21.7854 8.48037 21.3094 6.957 20.407L6.597 20.193L2.855 21.175L3.854 17.527L3.619 17.153C2.62914 15.5774 2.10529 13.7538 2.108 11.893C2.11 6.44304 6.544 2.00904 11.997 2.00904C14.637 2.00904 17.119 3.03904 18.985 4.90704C19.9054 5.82362 20.6349 6.91361 21.1313 8.11394C21.6277 9.31427 21.8811 10.6011 21.877 11.9C21.875 17.35 17.441 21.785 11.993 21.785ZM20.405 3.48804C19.3032 2.37896 17.9922 1.49958 16.5481 0.900841C15.1039 0.302105 13.5553 -0.00407625 11.992 4.09775e-05C5.438 4.09775e-05 0.102 5.33504 0.1 11.892C0.096963 13.9788 0.644374 16.0294 1.687 17.837L0 24L6.304 22.346C8.04787 23.2962 10.0021 23.794 11.988 23.794H11.993C18.547 23.794 23.883 18.459 23.885 11.901C23.8898 10.3383 23.5848 8.79014 22.9874 7.34607C22.3901 5.90201 21.5124 4.59071 20.405 3.48804Z"/> 
    </symbol>

    <symbol id="behance" viewBox="0 0 24 15">
        <path d="M22 2H15V0H22V2ZM23.726 12C23.284 13.297 21.697 15 18.625 15C15.551 15 13.061 13.271 13.061 9.325C13.061 5.415 15.386 3.405 18.527 3.405C21.609 3.405 23.491 5.187 23.902 7.831C23.98 8.337 24.011 9.019 23.997 9.971H15.97C16.1 13.182 19.453 13.283 20.558 12H23.726ZM16.04 8H21.005C20.9 6.453 19.869 5.781 18.528 5.781C17.062 5.781 16.251 6.549 16.04 8ZM6.466 14.988H0V0.0209999H6.953C12.429 0.102 12.533 5.465 9.673 6.927C13.134 8.187 13.25 14.988 6.466 14.988ZM3 6H6.584C9.092 6 9.49 3 6.272 3H3V6ZM6.391 9H3V12.016H6.341C9.396 12.016 9.209 9 6.391 9Z"/>   
    </symbol>

    <symbol id="houzz" viewBox="0 0 16 18">
        <path d="M0 0V18H6.00186V12.33H9.99814V18H16V7.7775L3.98136 4.3125V0H0Z"/>
    </symbol>

    <symbol id="footer__logo" viewBox="0 0 145 144">
        <path d="M144.939 69.5359C144.939 69.4249 144.947 69.3139 144.939 69.2029H144.925C143.193 30.7536 111.374 0 72.5028 0C48.779 0 27.6821 11.4549 14.4512 29.1182L14.429 29.1034C14.0517 29.5992 13.7039 30.1024 13.3561 30.613C4.57988 42.9706 -0.429793 58.1846 0.0289951 74.5678C1.10937 113.18 32.7658 144.407 71.3854 144.992C111.87 145.598 144.999 112.847 144.999 72.5033C145.006 71.5117 144.984 70.5201 144.939 69.5359ZM136.696 69.6913C136.763 88.0576 121.985 103.146 103.574 103.412C103.412 103.412 103.249 103.412 103.086 103.412C88.4936 103.412 75.8029 94.1033 71.2522 80.5986C91.5793 78.5637 107.504 61.3591 107.504 40.5065C107.504 29.8286 103.323 20.1201 96.5224 12.8979C119.262 22.1032 135.586 43.9548 136.696 69.6913ZM99.253 41.1429C98.9126 58.6878 84.2165 72.5624 66.6717 72.5624H48.4608V18.0481C48.4608 14.8514 50.5475 12.0321 53.6037 11.0923C57.9695 9.74554 62.5278 8.85756 67.2267 8.47277C85.1045 8.47277 99.6007 23.191 99.253 41.1429ZM37.2649 18.8029C38.5376 17.9667 40.2248 18.8547 40.2248 20.3717V72.5624H40.1804C26.9347 72.5624 16.168 61.7883 16.168 48.5501C16.168 43.7624 17.5518 39.2041 20.1787 35.2675C24.8036 28.7778 30.605 23.1836 37.2649 18.8029ZM9.67836 59.0282C12.7937 68.0708 19.8235 75.3004 28.7329 78.6969C21.8511 83.9285 16.7526 91.2247 14.207 99.4829C10.3887 91.2766 8.2576 82.1304 8.2576 72.4958C8.2502 67.8784 8.74599 63.3793 9.67836 59.0282ZM20.6449 110.39C21.0889 97.8032 28.7625 86.4963 40.2248 81.4126V124.627C40.2248 126.144 38.5376 127.032 37.2723 126.204C30.827 121.964 25.1958 116.599 20.6449 110.39ZM72.5102 136.756C65.9539 136.756 59.6271 135.764 53.6629 133.929C50.5919 132.982 48.4682 130.17 48.4682 126.958V80.8058H62.7128C67.6115 98.9353 84.0537 111.656 103.086 111.656C103.293 111.656 103.493 111.656 103.7 111.648C113.453 111.508 122.377 108.015 129.422 102.302C118.655 122.77 97.1884 136.756 72.5102 136.756Z"/>
    </symbol>

    <symbol id="best_21" viewBox="0 0 151 150">
        <path d="M150.5 42.5L0 0V150H150.5V42.5Z" fill="#FFBD2B"/>
        <path d="M16.5 13.5H11V35.5H18.5V28.5H24V35.5H31V23L16.5 18.5V13.5Z" fill="white"/>
        <path d="M12.824 94.4997C12.824 93.0597 12.936 91.7637 13.16 90.6117C13.384 89.4277 13.768 88.3397 14.312 87.3477C14.888 86.3557 15.656 85.4278 16.616 84.5638C17.608 83.6998 18.856 82.8517 20.36 82.0197C21.672 81.3157 22.824 80.7077 23.816 80.1957C24.84 79.6517 25.688 79.1557 26.36 78.7077C27.032 78.2597 27.544 77.8117 27.896 77.3637C28.248 76.8837 28.424 76.3398 28.424 75.7318C28.424 74.7718 28.04 73.9557 27.272 73.2837C26.504 72.5797 25.4 72.2277 23.96 72.2277C23.192 72.2277 22.488 72.3398 21.848 72.5638C21.208 72.7558 20.6 73.0277 20.024 73.3797C19.48 73.7317 18.968 74.1318 18.488 74.5798C18.04 74.9958 17.624 75.4438 17.24 75.9238L13.112 71.1717C13.528 70.7237 14.12 70.2438 14.888 69.7318C15.656 69.1878 16.552 68.6918 17.576 68.2438C18.632 67.7638 19.784 67.3798 21.032 67.0918C22.312 66.7718 23.672 66.6117 25.112 66.6117C26.744 66.6117 28.2 66.8197 29.48 67.2357C30.76 67.6197 31.832 68.1797 32.696 68.9157C33.592 69.6197 34.264 70.4838 34.712 71.5078C35.192 72.4998 35.432 73.5878 35.432 74.7718C35.432 75.8918 35.224 76.8837 34.808 77.7477C34.392 78.6117 33.864 79.3798 33.224 80.0518C32.584 80.7238 31.88 81.3158 31.112 81.8278C30.376 82.3078 29.656 82.7397 28.952 83.1237C28.376 83.4437 27.72 83.8117 26.984 84.2277C26.248 84.6437 25.512 85.1078 24.776 85.6198C24.072 86.0998 23.416 86.6117 22.808 87.1557C22.2 87.6677 21.736 88.1798 21.416 88.6917H35.96V94.4997H12.824ZM65.2137 80.4357C65.2137 82.5477 64.8938 84.4997 64.2538 86.2917C63.6458 88.0517 62.7818 89.5877 61.6618 90.8997C60.5738 92.1798 59.2618 93.1878 57.7258 93.9238C56.2218 94.6278 54.5898 94.9798 52.8298 94.9798C51.0378 94.9798 49.3898 94.6278 47.8858 93.9238C46.3818 93.1878 45.0698 92.1798 43.9498 90.8997C42.8618 89.5877 41.9978 88.0517 41.3578 86.2917C40.7498 84.4997 40.4458 82.5477 40.4458 80.4357C40.4458 78.3237 40.7498 76.3877 41.3578 74.6277C41.9978 72.8357 42.8618 71.2997 43.9498 70.0197C45.0698 68.7077 46.3818 67.6837 47.8858 66.9477C49.3898 66.2117 51.0378 65.8438 52.8298 65.8438C54.5898 65.8438 56.2218 66.2117 57.7258 66.9477C59.2618 67.6837 60.5738 68.7077 61.6618 70.0197C62.7818 71.2997 63.6458 72.8357 64.2538 74.6277C64.8938 76.3877 65.2137 78.3237 65.2137 80.4357ZM58.7338 80.4357C58.7338 79.1557 58.5898 77.9877 58.3018 76.9317C58.0138 75.8437 57.5978 74.9158 57.0538 74.1478C56.5418 73.3798 55.9178 72.7877 55.1818 72.3717C54.4778 71.9557 53.6938 71.7477 52.8298 71.7477C51.9338 71.7477 51.1178 71.9557 50.3818 72.3717C49.6778 72.7877 49.0538 73.3798 48.5098 74.1478C47.9978 74.9158 47.5978 75.8437 47.3098 76.9317C47.0218 77.9877 46.8778 79.1557 46.8778 80.4357C46.8778 81.7157 47.0218 82.8838 47.3098 83.9398C47.5978 84.9958 47.9978 85.9078 48.5098 86.6758C49.0538 87.4438 49.6778 88.0358 50.3818 88.4518C51.1178 88.8678 51.9338 89.0757 52.8298 89.0757C53.6938 89.0757 54.4778 88.8678 55.1818 88.4518C55.9178 88.0358 56.5418 87.4438 57.0538 86.6758C57.5978 85.9078 58.0138 84.9958 58.3018 83.9398C58.5898 82.8838 58.7338 81.7157 58.7338 80.4357ZM69.4021 94.4997C69.4021 93.0597 69.5141 91.7637 69.7381 90.6117C69.9621 89.4277 70.3461 88.3397 70.8901 87.3477C71.4661 86.3557 72.2341 85.4278 73.1941 84.5638C74.1861 83.6998 75.4341 82.8517 76.9381 82.0197C78.2501 81.3157 79.4021 80.7077 80.3941 80.1957C81.4181 79.6517 82.2661 79.1557 82.9381 78.7077C83.6101 78.2597 84.1221 77.8117 84.4741 77.3637C84.8261 76.8837 85.0021 76.3398 85.0021 75.7318C85.0021 74.7718 84.6181 73.9557 83.8501 73.2837C83.0821 72.5797 81.9781 72.2277 80.5381 72.2277C79.7701 72.2277 79.0661 72.3398 78.4261 72.5638C77.7861 72.7558 77.1781 73.0277 76.6021 73.3797C76.0581 73.7317 75.5461 74.1318 75.0661 74.5798C74.6181 74.9958 74.2021 75.4438 73.8181 75.9238L69.6901 71.1717C70.1061 70.7237 70.6981 70.2438 71.4661 69.7318C72.2341 69.1878 73.1301 68.6918 74.1541 68.2438C75.2101 67.7638 76.3621 67.3798 77.6101 67.0918C78.8901 66.7718 80.2501 66.6117 81.6901 66.6117C83.3221 66.6117 84.7781 66.8197 86.0581 67.2357C87.3381 67.6197 88.4101 68.1797 89.2741 68.9157C90.1701 69.6197 90.8421 70.4838 91.2901 71.5078C91.7701 72.4998 92.0101 73.5878 92.0101 74.7718C92.0101 75.8918 91.8021 76.8837 91.3861 77.7477C90.9701 78.6117 90.4421 79.3798 89.8021 80.0518C89.1621 80.7238 88.4581 81.3158 87.6901 81.8278C86.9541 82.3078 86.2341 82.7397 85.5301 83.1237C84.9541 83.4437 84.2981 83.8117 83.5621 84.2277C82.8261 84.6437 82.0901 85.1078 81.3541 85.6198C80.6501 86.0998 79.9941 86.6117 79.3861 87.1557C78.7781 87.6677 78.3141 88.1798 77.9941 88.6917H92.5381V94.4997H69.4021ZM117.232 88.6917V94.4997H97.7439V88.6917H104.56V74.1478C104.272 74.5318 103.808 74.9317 103.168 75.3477C102.56 75.7317 101.888 76.0998 101.152 76.4518C100.416 76.8038 99.6479 77.0918 98.8479 77.3158C98.0799 77.5398 97.3919 77.6517 96.7839 77.6517V71.6517C97.3599 71.6517 98.0639 71.4757 98.8959 71.1237C99.7279 70.7397 100.544 70.2917 101.344 69.7797C102.144 69.2677 102.832 68.7717 103.408 68.2917C104.016 67.7797 104.4 67.3798 104.56 67.0918H111.136V88.6917H117.232Z" fill="#282828"/>
        <path d="M22.628 118.206C22.628 118.746 22.52 119.22 22.304 119.628C22.088 120.036 21.788 120.378 21.404 120.654C21.032 120.93 20.594 121.14 20.09 121.284C19.598 121.428 19.07 121.5 18.506 121.5H12.332V108.72H19.172C19.616 108.72 20.018 108.816 20.378 109.008C20.738 109.2 21.044 109.452 21.296 109.764C21.548 110.064 21.74 110.412 21.872 110.808C22.016 111.192 22.088 111.582 22.088 111.978C22.088 112.602 21.932 113.19 21.62 113.742C21.308 114.282 20.852 114.684 20.252 114.948C20.984 115.164 21.56 115.554 21.98 116.118C22.412 116.67 22.628 117.366 22.628 118.206ZM20.126 117.738C20.126 117.51 20.084 117.294 20 117.09C19.928 116.874 19.826 116.688 19.694 116.532C19.562 116.376 19.406 116.256 19.226 116.172C19.046 116.076 18.848 116.028 18.632 116.028H14.816V119.394H18.506C18.734 119.394 18.944 119.352 19.136 119.268C19.34 119.184 19.514 119.07 19.658 118.926C19.802 118.77 19.916 118.59 20 118.386C20.084 118.182 20.126 117.966 20.126 117.738ZM14.816 110.844V114.066H18.128C18.548 114.066 18.902 113.922 19.19 113.634C19.49 113.346 19.64 112.95 19.64 112.446C19.64 111.954 19.502 111.564 19.226 111.276C18.962 110.988 18.632 110.844 18.236 110.844H14.816ZM28.7064 121.68C27.9504 121.68 27.2664 121.554 26.6544 121.302C26.0424 121.038 25.5204 120.684 25.0884 120.24C24.6564 119.796 24.3204 119.28 24.0804 118.692C23.8524 118.104 23.7384 117.486 23.7384 116.838C23.7384 116.166 23.8524 115.536 24.0804 114.948C24.3084 114.348 24.6384 113.826 25.0704 113.382C25.5024 112.926 26.0244 112.566 26.6364 112.302C27.2604 112.038 27.9564 111.906 28.7244 111.906C29.4924 111.906 30.1764 112.038 30.7764 112.302C31.3884 112.566 31.9044 112.92 32.3244 113.364C32.7564 113.808 33.0804 114.324 33.2964 114.912C33.5244 115.5 33.6384 116.112 33.6384 116.748C33.6384 116.904 33.6324 117.054 33.6204 117.198C33.6204 117.342 33.6084 117.462 33.5844 117.558H26.2944C26.3304 117.93 26.4204 118.26 26.5644 118.548C26.7084 118.836 26.8944 119.082 27.1224 119.286C27.3504 119.49 27.6084 119.646 27.8964 119.754C28.1844 119.862 28.4844 119.916 28.7964 119.916C29.2764 119.916 29.7264 119.802 30.1464 119.574C30.5784 119.334 30.8724 119.022 31.0284 118.638L33.0984 119.214C32.7504 119.934 32.1924 120.528 31.4244 120.996C30.6684 121.452 29.7624 121.68 28.7064 121.68ZM31.1544 115.992C31.0944 115.284 30.8304 114.72 30.3624 114.3C29.9064 113.868 29.3484 113.652 28.6884 113.652C28.3644 113.652 28.0584 113.712 27.7704 113.832C27.4944 113.94 27.2484 114.096 27.0324 114.3C26.8164 114.504 26.6364 114.75 26.4924 115.038C26.3604 115.326 26.2824 115.644 26.2584 115.992H31.1544ZM38.6718 121.68C37.8798 121.68 37.1058 121.554 36.3498 121.302C35.5938 121.05 34.9458 120.69 34.4058 120.222L35.3058 118.71C35.8818 119.118 36.4398 119.43 36.9798 119.646C37.5318 119.85 38.0778 119.952 38.6178 119.952C39.0978 119.952 39.4758 119.862 39.7518 119.682C40.0278 119.502 40.1658 119.244 40.1658 118.908C40.1658 118.572 40.0038 118.326 39.6798 118.17C39.3558 118.014 38.8278 117.834 38.0958 117.63C37.4838 117.462 36.9618 117.3 36.5298 117.144C36.0978 116.988 35.7498 116.814 35.4858 116.622C35.2218 116.418 35.0298 116.19 34.9098 115.938C34.7898 115.674 34.7298 115.362 34.7298 115.002C34.7298 114.522 34.8198 114.09 34.9998 113.706C35.1918 113.322 35.4558 112.998 35.7918 112.734C36.1278 112.458 36.5178 112.248 36.9618 112.104C37.4178 111.96 37.9098 111.888 38.4378 111.888C39.1458 111.888 39.8058 111.99 40.4178 112.194C41.0418 112.398 41.6118 112.728 42.1278 113.184L41.1558 114.642C40.6758 114.282 40.2078 114.018 39.7518 113.85C39.3078 113.682 38.8638 113.598 38.4198 113.598C38.0118 113.598 37.6698 113.682 37.3938 113.85C37.1178 114.018 36.9798 114.288 36.9798 114.66C36.9798 114.828 37.0098 114.966 37.0698 115.074C37.1418 115.182 37.2498 115.278 37.3938 115.362C37.5378 115.446 37.7238 115.53 37.9518 115.614C38.1918 115.686 38.4858 115.764 38.8338 115.848C39.4818 116.016 40.0338 116.184 40.4898 116.352C40.9578 116.52 41.3358 116.712 41.6238 116.928C41.9238 117.144 42.1398 117.396 42.2718 117.684C42.4158 117.96 42.4878 118.296 42.4878 118.692C42.4878 119.616 42.1458 120.348 41.4618 120.888C40.7778 121.416 39.8478 121.68 38.6718 121.68ZM49.707 121.014C49.383 121.158 48.987 121.302 48.519 121.446C48.051 121.59 47.559 121.662 47.043 121.662C46.707 121.662 46.389 121.62 46.089 121.536C45.801 121.452 45.543 121.32 45.315 121.14C45.099 120.948 44.925 120.708 44.793 120.42C44.661 120.12 44.595 119.76 44.595 119.34V113.922H43.353V112.068H44.595V109.008H47.007V112.068H48.987V113.922H47.007V118.53C47.007 118.866 47.091 119.106 47.259 119.25C47.439 119.382 47.655 119.448 47.907 119.448C48.159 119.448 48.405 119.406 48.645 119.322C48.885 119.238 49.077 119.166 49.221 119.106L49.707 121.014ZM59.6435 121.68C58.8755 121.68 58.1855 121.548 57.5735 121.284C56.9615 121.02 56.4395 120.666 56.0075 120.222C55.5875 119.766 55.2635 119.244 55.0355 118.656C54.8075 118.068 54.6935 117.45 54.6935 116.802C54.6935 116.142 54.8075 115.518 55.0355 114.93C55.2635 114.342 55.5875 113.826 56.0075 113.382C56.4395 112.926 56.9615 112.566 57.5735 112.302C58.1855 112.038 58.8755 111.906 59.6435 111.906C60.4115 111.906 61.0955 112.038 61.6955 112.302C62.3075 112.566 62.8235 112.926 63.2435 113.382C63.6755 113.826 64.0055 114.342 64.2335 114.93C64.4615 115.518 64.5755 116.142 64.5755 116.802C64.5755 117.45 64.4615 118.068 64.2335 118.656C64.0055 119.244 63.6815 119.766 63.2615 120.222C62.8415 120.666 62.3255 121.02 61.7135 121.284C61.1015 121.548 60.4115 121.68 59.6435 121.68ZM57.1775 116.802C57.1775 117.222 57.2375 117.606 57.3575 117.954C57.4895 118.29 57.6635 118.584 57.8795 118.836C58.1075 119.088 58.3715 119.286 58.6715 119.43C58.9715 119.562 59.2955 119.628 59.6435 119.628C59.9915 119.628 60.3155 119.562 60.6155 119.43C60.9155 119.286 61.1735 119.088 61.3895 118.836C61.6175 118.584 61.7915 118.284 61.9115 117.936C62.0435 117.588 62.1095 117.204 62.1095 116.784C62.1095 116.376 62.0435 115.998 61.9115 115.65C61.7915 115.302 61.6175 115.002 61.3895 114.75C61.1735 114.498 60.9155 114.306 60.6155 114.174C60.3155 114.03 59.9915 113.958 59.6435 113.958C59.2955 113.958 58.9715 114.03 58.6715 114.174C58.3715 114.318 58.1075 114.516 57.8795 114.768C57.6635 115.02 57.4895 115.32 57.3575 115.668C57.2375 116.016 57.1775 116.394 57.1775 116.802ZM66.6388 121.5V114.408H65.3968V112.572H66.6388V111.996C66.6388 110.82 66.9208 109.89 67.4848 109.206C68.0488 108.522 68.8168 108.18 69.7888 108.18C70.5568 108.18 71.3308 108.366 72.1108 108.738L71.6248 110.556C71.4448 110.46 71.2288 110.382 70.9768 110.322C70.7368 110.25 70.5148 110.214 70.3108 110.214C69.4708 110.214 69.0508 110.778 69.0508 111.906V112.572H71.3548V114.408H69.0508V121.5H66.6388ZM87.6425 108.72V121.5H85.1765V116.046H79.3805V121.5H76.8965V108.72H79.3805V113.886H85.1765V108.72H87.6425ZM94.3075 121.68C93.5395 121.68 92.8495 121.548 92.2375 121.284C91.6255 121.02 91.1035 120.666 90.6715 120.222C90.2515 119.766 89.9275 119.244 89.6995 118.656C89.4715 118.068 89.3575 117.45 89.3575 116.802C89.3575 116.142 89.4715 115.518 89.6995 114.93C89.9275 114.342 90.2515 113.826 90.6715 113.382C91.1035 112.926 91.6255 112.566 92.2375 112.302C92.8495 112.038 93.5395 111.906 94.3075 111.906C95.0755 111.906 95.7595 112.038 96.3595 112.302C96.9715 112.566 97.4875 112.926 97.9075 113.382C98.3395 113.826 98.6695 114.342 98.8975 114.93C99.1255 115.518 99.2395 116.142 99.2395 116.802C99.2395 117.45 99.1255 118.068 98.8975 118.656C98.6695 119.244 98.3455 119.766 97.9255 120.222C97.5055 120.666 96.9895 121.02 96.3775 121.284C95.7655 121.548 95.0755 121.68 94.3075 121.68ZM91.8415 116.802C91.8415 117.222 91.9015 117.606 92.0215 117.954C92.1535 118.29 92.3275 118.584 92.5435 118.836C92.7715 119.088 93.0355 119.286 93.3355 119.43C93.6355 119.562 93.9595 119.628 94.3075 119.628C94.6555 119.628 94.9795 119.562 95.2795 119.43C95.5795 119.286 95.8375 119.088 96.0535 118.836C96.2815 118.584 96.4555 118.284 96.5755 117.936C96.7075 117.588 96.7735 117.204 96.7735 116.784C96.7735 116.376 96.7075 115.998 96.5755 115.65C96.4555 115.302 96.2815 115.002 96.0535 114.75C95.8375 114.498 95.5795 114.306 95.2795 114.174C94.9795 114.03 94.6555 113.958 94.3075 113.958C93.9595 113.958 93.6355 114.03 93.3355 114.174C93.0355 114.318 92.7715 114.516 92.5435 114.768C92.3275 115.02 92.1535 115.32 92.0215 115.668C91.9015 116.016 91.8415 116.394 91.8415 116.802ZM103.748 121.68C102.776 121.68 102.038 121.368 101.534 120.744C101.03 120.12 100.778 119.196 100.778 117.972V112.068H103.19V117.45C103.19 118.902 103.712 119.628 104.756 119.628C105.224 119.628 105.674 119.49 106.106 119.214C106.55 118.926 106.91 118.494 107.186 117.918V112.068H109.598V118.728C109.598 118.98 109.64 119.16 109.724 119.268C109.82 119.376 109.97 119.436 110.174 119.448V121.5C109.934 121.548 109.73 121.578 109.562 121.59C109.406 121.602 109.262 121.608 109.13 121.608C108.698 121.608 108.344 121.512 108.068 121.32C107.804 121.116 107.648 120.84 107.6 120.492L107.546 119.736C107.126 120.384 106.586 120.87 105.926 121.194C105.266 121.518 104.54 121.68 103.748 121.68ZM111.364 120.024L116.62 113.76H111.58V112.068H119.158V113.544L113.938 119.808H119.248V121.5H111.364V120.024ZM120.241 120.024L125.497 113.76H120.457V112.068H128.035V113.544L122.815 119.808H128.125V121.5H120.241V120.024ZM19.946 130.068C19.862 129.984 19.706 129.87 19.478 129.726C19.262 129.582 18.992 129.444 18.668 129.312C18.356 129.168 18.014 129.048 17.642 128.952C17.27 128.856 16.892 128.808 16.508 128.808C15.824 128.808 15.314 128.934 14.978 129.186C14.642 129.438 14.474 129.792 14.474 130.248C14.474 130.512 14.534 130.734 14.654 130.914C14.786 131.082 14.972 131.232 15.212 131.364C15.452 131.496 15.752 131.616 16.112 131.724C16.484 131.832 16.91 131.946 17.39 132.066C18.014 132.234 18.578 132.414 19.082 132.606C19.598 132.798 20.03 133.038 20.378 133.326C20.738 133.614 21.014 133.962 21.206 134.37C21.398 134.766 21.494 135.258 21.494 135.846C21.494 136.53 21.362 137.118 21.098 137.61C20.846 138.09 20.498 138.48 20.054 138.78C19.622 139.08 19.118 139.302 18.542 139.446C17.978 139.578 17.384 139.644 16.76 139.644C15.8 139.644 14.852 139.5 13.916 139.212C12.98 138.924 12.14 138.516 11.396 137.988L12.494 135.846C12.602 135.954 12.794 136.098 13.07 136.278C13.358 136.446 13.694 136.62 14.078 136.8C14.462 136.968 14.888 137.112 15.356 137.232C15.824 137.352 16.304 137.412 16.796 137.412C18.164 137.412 18.848 136.974 18.848 136.098C18.848 135.822 18.77 135.588 18.614 135.396C18.458 135.204 18.236 135.036 17.948 134.892C17.66 134.748 17.312 134.616 16.904 134.496C16.496 134.376 16.04 134.244 15.536 134.1C14.924 133.932 14.39 133.752 13.934 133.56C13.49 133.356 13.118 133.122 12.818 132.858C12.518 132.582 12.29 132.27 12.134 131.922C11.99 131.562 11.918 131.136 11.918 130.644C11.918 129.996 12.038 129.42 12.278 128.916C12.518 128.412 12.848 127.992 13.268 127.656C13.7 127.32 14.198 127.068 14.762 126.9C15.326 126.72 15.932 126.63 16.58 126.63C17.48 126.63 18.308 126.774 19.064 127.062C19.82 127.338 20.48 127.668 21.044 128.052L19.946 130.068ZM27.5111 139.68C26.7551 139.68 26.0711 139.554 25.4591 139.302C24.8471 139.038 24.3251 138.684 23.8931 138.24C23.4611 137.796 23.1251 137.28 22.8851 136.692C22.6571 136.104 22.5431 135.486 22.5431 134.838C22.5431 134.166 22.6571 133.536 22.8851 132.948C23.1131 132.348 23.4431 131.826 23.8751 131.382C24.3071 130.926 24.8291 130.566 25.4411 130.302C26.0651 130.038 26.7611 129.906 27.5291 129.906C28.2971 129.906 28.9811 130.038 29.5811 130.302C30.1931 130.566 30.7091 130.92 31.1291 131.364C31.5611 131.808 31.8851 132.324 32.1011 132.912C32.3291 133.5 32.4431 134.112 32.4431 134.748C32.4431 134.904 32.4371 135.054 32.4251 135.198C32.4251 135.342 32.4131 135.462 32.3891 135.558H25.0991C25.1351 135.93 25.2251 136.26 25.3691 136.548C25.5131 136.836 25.6991 137.082 25.9271 137.286C26.1551 137.49 26.4131 137.646 26.7011 137.754C26.9891 137.862 27.2891 137.916 27.6011 137.916C28.0811 137.916 28.5311 137.802 28.9511 137.574C29.3831 137.334 29.6771 137.022 29.8331 136.638L31.9031 137.214C31.5551 137.934 30.9971 138.528 30.2291 138.996C29.4731 139.452 28.5671 139.68 27.5111 139.68ZM29.9591 133.992C29.8991 133.284 29.6351 132.72 29.1671 132.3C28.7111 131.868 28.1531 131.652 27.4931 131.652C27.1691 131.652 26.8631 131.712 26.5751 131.832C26.2991 131.94 26.0531 132.096 25.8371 132.3C25.6211 132.504 25.4411 132.75 25.2971 133.038C25.1651 133.326 25.0871 133.644 25.0631 133.992H29.9591ZM39.5285 132.156C38.7965 132.168 38.1425 132.312 37.5665 132.588C36.9905 132.852 36.5765 133.254 36.3245 133.794V139.5H33.9125V130.068H36.1265V132.084C36.2945 131.76 36.4925 131.472 36.7205 131.22C36.9485 130.956 37.1945 130.728 37.4585 130.536C37.7225 130.344 37.9865 130.2 38.2505 130.104C38.5265 129.996 38.7905 129.942 39.0425 129.942C39.1745 129.942 39.2705 129.942 39.3305 129.942C39.4025 129.942 39.4685 129.948 39.5285 129.96V132.156ZM43.4114 139.5L39.9374 130.068H42.4214L44.8154 137.538L47.2274 130.068H49.4954L46.0214 139.5H43.4114ZM50.7523 139.5V130.068H53.1643V139.5H50.7523ZM50.7523 128.754V126.36H53.1643V128.754H50.7523ZM54.7462 134.784C54.7462 134.124 54.8602 133.5 55.0882 132.912C55.3162 132.324 55.6462 131.808 56.0782 131.364C56.5102 130.92 57.0322 130.566 57.6442 130.302C58.2562 130.038 58.9462 129.906 59.7142 129.906C60.7462 129.906 61.6222 130.128 62.3422 130.572C63.0742 131.016 63.6202 131.598 63.9802 132.318L61.6222 133.038C61.4182 132.69 61.1482 132.426 60.8122 132.246C60.4762 132.054 60.1042 131.958 59.6962 131.958C59.3482 131.958 59.0242 132.03 58.7242 132.174C58.4242 132.306 58.1602 132.498 57.9322 132.75C57.7162 132.99 57.5422 133.284 57.4102 133.632C57.2902 133.98 57.2302 134.364 57.2302 134.784C57.2302 135.204 57.2962 135.588 57.4282 135.936C57.5602 136.284 57.7342 136.584 57.9502 136.836C58.1782 137.088 58.4422 137.286 58.7422 137.43C59.0422 137.562 59.3602 137.628 59.6962 137.628C60.1282 137.628 60.5242 137.52 60.8842 137.304C61.2562 137.088 61.5142 136.824 61.6582 136.512L64.0162 137.232C63.6922 137.952 63.1582 138.54 62.4142 138.996C61.6702 139.452 60.7762 139.68 59.7322 139.68C58.9642 139.68 58.2742 139.548 57.6622 139.284C57.0502 139.02 56.5282 138.666 56.0962 138.222C55.6642 137.766 55.3282 137.244 55.0882 136.656C54.8602 136.056 54.7462 135.432 54.7462 134.784ZM69.7865 139.68C69.0305 139.68 68.3465 139.554 67.7345 139.302C67.1225 139.038 66.6005 138.684 66.1685 138.24C65.7365 137.796 65.4005 137.28 65.1605 136.692C64.9325 136.104 64.8185 135.486 64.8185 134.838C64.8185 134.166 64.9325 133.536 65.1605 132.948C65.3885 132.348 65.7185 131.826 66.1505 131.382C66.5825 130.926 67.1045 130.566 67.7165 130.302C68.3405 130.038 69.0365 129.906 69.8045 129.906C70.5725 129.906 71.2565 130.038 71.8565 130.302C72.4685 130.566 72.9845 130.92 73.4045 131.364C73.8365 131.808 74.1605 132.324 74.3765 132.912C74.6045 133.5 74.7185 134.112 74.7185 134.748C74.7185 134.904 74.7125 135.054 74.7005 135.198C74.7005 135.342 74.6885 135.462 74.6645 135.558H67.3745C67.4105 135.93 67.5005 136.26 67.6445 136.548C67.7885 136.836 67.9745 137.082 68.2025 137.286C68.4305 137.49 68.6885 137.646 68.9765 137.754C69.2645 137.862 69.5645 137.916 69.8765 137.916C70.3565 137.916 70.8065 137.802 71.2265 137.574C71.6585 137.334 71.9525 137.022 72.1085 136.638L74.1785 137.214C73.8305 137.934 73.2725 138.528 72.5045 138.996C71.7485 139.452 70.8425 139.68 69.7865 139.68ZM72.2345 133.992C72.1745 133.284 71.9105 132.72 71.4425 132.3C70.9865 131.868 70.4285 131.652 69.7685 131.652C69.4445 131.652 69.1385 131.712 68.8505 131.832C68.5745 131.94 68.3285 132.096 68.1125 132.3C67.8965 132.504 67.7165 132.75 67.5725 133.038C67.4405 133.326 67.3625 133.644 67.3385 133.992H72.2345Z" fill="#282828"/>
    </symbol>

    <symbol id="best_22" viewBox="0 0 154 151">
        <g clip-path="url(#clip0_161_9355)">
            <path d="M154 42.7833L0 0V151H154V42.7833Z" fill="#FFBD2B"/>
            <path d="M16.5 14H11V36H18.5V29H24V36H31V23.5L16.5 19V14Z" fill="white"/>
            <path d="M12.824 95.0002C12.824 93.5602 12.936 92.2642 13.16 91.1122C13.384 89.9282 13.768 88.8402 14.312 87.8482C14.888 86.8562 15.656 85.9282 16.616 85.0642C17.608 84.2002 18.856 83.3522 20.36 82.5202C21.672 81.8162 22.824 81.2082 23.816 80.6962C24.84 80.1522 25.688 79.6562 26.36 79.2082C27.032 78.7602 27.544 78.3122 27.896 77.8642C28.248 77.3842 28.424 76.8402 28.424 76.2322C28.424 75.2722 28.04 74.4562 27.272 73.7842C26.504 73.0802 25.4 72.7282 23.96 72.7282C23.192 72.7282 22.488 72.8402 21.848 73.0642C21.208 73.2562 20.6 73.5282 20.024 73.8802C19.48 74.2322 18.968 74.6322 18.488 75.0802C18.04 75.4962 17.624 75.9442 17.24 76.4242L13.112 71.6722C13.528 71.2242 14.12 70.7442 14.888 70.2322C15.656 69.6882 16.552 69.1922 17.576 68.7442C18.632 68.2642 19.784 67.8802 21.032 67.5922C22.312 67.2722 23.672 67.1122 25.112 67.1122C26.744 67.1122 28.2 67.3202 29.48 67.7362C30.76 68.1202 31.832 68.6802 32.696 69.4162C33.592 70.1202 34.264 70.9842 34.712 72.0082C35.192 73.0002 35.432 74.0882 35.432 75.2722C35.432 76.3922 35.224 77.3842 34.808 78.2482C34.392 79.1122 33.864 79.8802 33.224 80.5522C32.584 81.2242 31.88 81.8162 31.112 82.3282C30.376 82.8082 29.656 83.2402 28.952 83.6242C28.376 83.9442 27.72 84.3122 26.984 84.7282C26.248 85.1442 25.512 85.6082 24.776 86.1202C24.072 86.6002 23.416 87.1122 22.808 87.6562C22.2 88.1682 21.736 88.6802 21.416 89.1922H35.96V95.0002H12.824ZM65.2137 80.9362C65.2137 83.0482 64.8938 85.0002 64.2538 86.7922C63.6458 88.5522 62.7818 90.0882 61.6618 91.4002C60.5738 92.6802 59.2618 93.6882 57.7258 94.4242C56.2218 95.1282 54.5898 95.4802 52.8298 95.4802C51.0378 95.4802 49.3898 95.1282 47.8858 94.4242C46.3818 93.6882 45.0698 92.6802 43.9498 91.4002C42.8618 90.0882 41.9978 88.5522 41.3578 86.7922C40.7498 85.0002 40.4458 83.0482 40.4458 80.9362C40.4458 78.8242 40.7498 76.8882 41.3578 75.1282C41.9978 73.3362 42.8618 71.8002 43.9498 70.5202C45.0698 69.2082 46.3818 68.1842 47.8858 67.4482C49.3898 66.7122 51.0378 66.3442 52.8298 66.3442C54.5898 66.3442 56.2218 66.7122 57.7258 67.4482C59.2618 68.1842 60.5738 69.2082 61.6618 70.5202C62.7818 71.8002 63.6458 73.3362 64.2538 75.1282C64.8938 76.8882 65.2137 78.8242 65.2137 80.9362ZM58.7338 80.9362C58.7338 79.6562 58.5898 78.4882 58.3018 77.4322C58.0138 76.3442 57.5978 75.4162 57.0538 74.6482C56.5418 73.8802 55.9178 73.2882 55.1818 72.8722C54.4778 72.4562 53.6938 72.2482 52.8298 72.2482C51.9338 72.2482 51.1178 72.4562 50.3818 72.8722C49.6778 73.2882 49.0538 73.8802 48.5098 74.6482C47.9978 75.4162 47.5978 76.3442 47.3098 77.4322C47.0218 78.4882 46.8778 79.6562 46.8778 80.9362C46.8778 82.2162 47.0218 83.3842 47.3098 84.4402C47.5978 85.4962 47.9978 86.4082 48.5098 87.1762C49.0538 87.9442 49.6778 88.5362 50.3818 88.9522C51.1178 89.3682 51.9338 89.5762 52.8298 89.5762C53.6938 89.5762 54.4778 89.3682 55.1818 88.9522C55.9178 88.5362 56.5418 87.9442 57.0538 87.1762C57.5978 86.4082 58.0138 85.4962 58.3018 84.4402C58.5898 83.3842 58.7338 82.2162 58.7338 80.9362ZM69.4021 95.0002C69.4021 93.5602 69.5141 92.2642 69.7381 91.1122C69.9621 89.9282 70.3461 88.8402 70.8901 87.8482C71.4661 86.8562 72.2341 85.9282 73.1941 85.0642C74.1861 84.2002 75.4341 83.3522 76.9381 82.5202C78.2501 81.8162 79.4021 81.2082 80.3941 80.6962C81.4181 80.1522 82.2661 79.6562 82.9381 79.2082C83.6101 78.7602 84.1221 78.3122 84.4741 77.8642C84.8261 77.3842 85.0021 76.8402 85.0021 76.2322C85.0021 75.2722 84.6181 74.4562 83.8501 73.7842C83.0821 73.0802 81.9781 72.7282 80.5381 72.7282C79.7701 72.7282 79.0661 72.8402 78.4261 73.0642C77.7861 73.2562 77.1781 73.5282 76.6021 73.8802C76.0581 74.2322 75.5461 74.6322 75.0661 75.0802C74.6181 75.4962 74.2021 75.9442 73.8181 76.4242L69.6901 71.6722C70.1061 71.2242 70.6981 70.7442 71.4661 70.2322C72.2341 69.6882 73.1301 69.1922 74.1541 68.7442C75.2101 68.2642 76.3621 67.8802 77.6101 67.5922C78.8901 67.2722 80.2501 67.1122 81.6901 67.1122C83.3221 67.1122 84.7781 67.3202 86.0581 67.7362C87.3381 68.1202 88.4101 68.6802 89.2741 69.4162C90.1701 70.1202 90.8421 70.9842 91.2901 72.0082C91.7701 73.0002 92.0101 74.0882 92.0101 75.2722C92.0101 76.3922 91.8021 77.3842 91.3861 78.2482C90.9701 79.1122 90.4421 79.8802 89.8021 80.5522C89.1621 81.2242 88.4581 81.8162 87.6901 82.3282C86.9541 82.8082 86.2341 83.2402 85.5301 83.6242C84.9541 83.9442 84.2981 84.3122 83.5621 84.7282C82.8261 85.1442 82.0901 85.6082 81.3541 86.1202C80.6501 86.6002 79.9941 87.1122 79.3861 87.6562C78.7781 88.1682 78.3141 88.6802 77.9941 89.1922H92.5381V95.0002H69.4021ZM96.4959 95.0002C96.4959 93.5602 96.6079 92.2642 96.8319 91.1122C97.0559 89.9282 97.4399 88.8402 97.9839 87.8482C98.5599 86.8562 99.3279 85.9282 100.288 85.0642C101.28 84.2002 102.528 83.3522 104.032 82.5202C105.344 81.8162 106.496 81.2082 107.488 80.6962C108.512 80.1522 109.36 79.6562 110.032 79.2082C110.704 78.7602 111.216 78.3122 111.568 77.8642C111.92 77.3842 112.096 76.8402 112.096 76.2322C112.096 75.2722 111.712 74.4562 110.944 73.7842C110.176 73.0802 109.072 72.7282 107.632 72.7282C106.864 72.7282 106.16 72.8402 105.52 73.0642C104.88 73.2562 104.272 73.5282 103.696 73.8802C103.152 74.2322 102.64 74.6322 102.16 75.0802C101.712 75.4962 101.296 75.9442 100.912 76.4242L96.7839 71.6722C97.1999 71.2242 97.7919 70.7442 98.5599 70.2322C99.3279 69.6882 100.224 69.1922 101.248 68.7442C102.304 68.2642 103.456 67.8802 104.704 67.5922C105.984 67.2722 107.344 67.1122 108.784 67.1122C110.416 67.1122 111.872 67.3202 113.152 67.7362C114.432 68.1202 115.504 68.6802 116.368 69.4162C117.264 70.1202 117.936 70.9842 118.384 72.0082C118.864 73.0002 119.104 74.0882 119.104 75.2722C119.104 76.3922 118.896 77.3842 118.48 78.2482C118.064 79.1122 117.536 79.8802 116.896 80.5522C116.256 81.2242 115.552 81.8162 114.784 82.3282C114.048 82.8082 113.328 83.2402 112.624 83.6242C112.048 83.9442 111.392 84.3122 110.656 84.7282C109.92 85.1442 109.184 85.6082 108.448 86.1202C107.744 86.6002 107.088 87.1122 106.48 87.6562C105.872 88.1682 105.408 88.6802 105.088 89.1922H119.632V95.0002H96.4959Z" fill="#282828"/>
            <path d="M22.628 118.706C22.628 119.246 22.52 119.72 22.304 120.128C22.088 120.536 21.788 120.878 21.404 121.154C21.032 121.43 20.594 121.64 20.09 121.784C19.598 121.928 19.07 122 18.506 122H12.332V109.22H19.172C19.616 109.22 20.018 109.316 20.378 109.508C20.738 109.7 21.044 109.952 21.296 110.264C21.548 110.564 21.74 110.912 21.872 111.308C22.016 111.692 22.088 112.082 22.088 112.478C22.088 113.102 21.932 113.69 21.62 114.242C21.308 114.782 20.852 115.184 20.252 115.448C20.984 115.664 21.56 116.054 21.98 116.618C22.412 117.17 22.628 117.866 22.628 118.706ZM20.126 118.238C20.126 118.01 20.084 117.794 20 117.59C19.928 117.374 19.826 117.188 19.694 117.032C19.562 116.876 19.406 116.756 19.226 116.672C19.046 116.576 18.848 116.528 18.632 116.528H14.816V119.894H18.506C18.734 119.894 18.944 119.852 19.136 119.768C19.34 119.684 19.514 119.57 19.658 119.426C19.802 119.27 19.916 119.09 20 118.886C20.084 118.682 20.126 118.466 20.126 118.238ZM14.816 111.344V114.566H18.128C18.548 114.566 18.902 114.422 19.19 114.134C19.49 113.846 19.64 113.45 19.64 112.946C19.64 112.454 19.502 112.064 19.226 111.776C18.962 111.488 18.632 111.344 18.236 111.344H14.816ZM28.7064 122.18C27.9504 122.18 27.2664 122.054 26.6544 121.802C26.0424 121.538 25.5204 121.184 25.0884 120.74C24.6564 120.296 24.3204 119.78 24.0804 119.192C23.8524 118.604 23.7384 117.986 23.7384 117.338C23.7384 116.666 23.8524 116.036 24.0804 115.448C24.3084 114.848 24.6384 114.326 25.0704 113.882C25.5024 113.426 26.0244 113.066 26.6364 112.802C27.2604 112.538 27.9564 112.406 28.7244 112.406C29.4924 112.406 30.1764 112.538 30.7764 112.802C31.3884 113.066 31.9044 113.42 32.3244 113.864C32.7564 114.308 33.0804 114.824 33.2964 115.412C33.5244 116 33.6384 116.612 33.6384 117.248C33.6384 117.404 33.6324 117.554 33.6204 117.698C33.6204 117.842 33.6084 117.962 33.5844 118.058H26.2944C26.3304 118.43 26.4204 118.76 26.5644 119.048C26.7084 119.336 26.8944 119.582 27.1224 119.786C27.3504 119.99 27.6084 120.146 27.8964 120.254C28.1844 120.362 28.4844 120.416 28.7964 120.416C29.2764 120.416 29.7264 120.302 30.1464 120.074C30.5784 119.834 30.8724 119.522 31.0284 119.138L33.0984 119.714C32.7504 120.434 32.1924 121.028 31.4244 121.496C30.6684 121.952 29.7624 122.18 28.7064 122.18ZM31.1544 116.492C31.0944 115.784 30.8304 115.22 30.3624 114.8C29.9064 114.368 29.3484 114.152 28.6884 114.152C28.3644 114.152 28.0584 114.212 27.7704 114.332C27.4944 114.44 27.2484 114.596 27.0324 114.8C26.8164 115.004 26.6364 115.25 26.4924 115.538C26.3604 115.826 26.2824 116.144 26.2584 116.492H31.1544ZM38.6718 122.18C37.8798 122.18 37.1058 122.054 36.3498 121.802C35.5938 121.55 34.9458 121.19 34.4058 120.722L35.3058 119.21C35.8818 119.618 36.4398 119.93 36.9798 120.146C37.5318 120.35 38.0778 120.452 38.6178 120.452C39.0978 120.452 39.4758 120.362 39.7518 120.182C40.0278 120.002 40.1658 119.744 40.1658 119.408C40.1658 119.072 40.0038 118.826 39.6798 118.67C39.3558 118.514 38.8278 118.334 38.0958 118.13C37.4838 117.962 36.9618 117.8 36.5298 117.644C36.0978 117.488 35.7498 117.314 35.4858 117.122C35.2218 116.918 35.0298 116.69 34.9098 116.438C34.7898 116.174 34.7298 115.862 34.7298 115.502C34.7298 115.022 34.8198 114.59 34.9998 114.206C35.1918 113.822 35.4558 113.498 35.7918 113.234C36.1278 112.958 36.5178 112.748 36.9618 112.604C37.4178 112.46 37.9098 112.388 38.4378 112.388C39.1458 112.388 39.8058 112.49 40.4178 112.694C41.0418 112.898 41.6118 113.228 42.1278 113.684L41.1558 115.142C40.6758 114.782 40.2078 114.518 39.7518 114.35C39.3078 114.182 38.8638 114.098 38.4198 114.098C38.0118 114.098 37.6698 114.182 37.3938 114.35C37.1178 114.518 36.9798 114.788 36.9798 115.16C36.9798 115.328 37.0098 115.466 37.0698 115.574C37.1418 115.682 37.2498 115.778 37.3938 115.862C37.5378 115.946 37.7238 116.03 37.9518 116.114C38.1918 116.186 38.4858 116.264 38.8338 116.348C39.4818 116.516 40.0338 116.684 40.4898 116.852C40.9578 117.02 41.3358 117.212 41.6238 117.428C41.9238 117.644 42.1398 117.896 42.2718 118.184C42.4158 118.46 42.4878 118.796 42.4878 119.192C42.4878 120.116 42.1458 120.848 41.4618 121.388C40.7778 121.916 39.8478 122.18 38.6718 122.18ZM49.707 121.514C49.383 121.658 48.987 121.802 48.519 121.946C48.051 122.09 47.559 122.162 47.043 122.162C46.707 122.162 46.389 122.12 46.089 122.036C45.801 121.952 45.543 121.82 45.315 121.64C45.099 121.448 44.925 121.208 44.793 120.92C44.661 120.62 44.595 120.26 44.595 119.84V114.422H43.353V112.568H44.595V109.508H47.007V112.568H48.987V114.422H47.007V119.03C47.007 119.366 47.091 119.606 47.259 119.75C47.439 119.882 47.655 119.948 47.907 119.948C48.159 119.948 48.405 119.906 48.645 119.822C48.885 119.738 49.077 119.666 49.221 119.606L49.707 121.514ZM59.6435 122.18C58.8755 122.18 58.1855 122.048 57.5735 121.784C56.9615 121.52 56.4395 121.166 56.0075 120.722C55.5875 120.266 55.2635 119.744 55.0355 119.156C54.8075 118.568 54.6935 117.95 54.6935 117.302C54.6935 116.642 54.8075 116.018 55.0355 115.43C55.2635 114.842 55.5875 114.326 56.0075 113.882C56.4395 113.426 56.9615 113.066 57.5735 112.802C58.1855 112.538 58.8755 112.406 59.6435 112.406C60.4115 112.406 61.0955 112.538 61.6955 112.802C62.3075 113.066 62.8235 113.426 63.2435 113.882C63.6755 114.326 64.0055 114.842 64.2335 115.43C64.4615 116.018 64.5755 116.642 64.5755 117.302C64.5755 117.95 64.4615 118.568 64.2335 119.156C64.0055 119.744 63.6815 120.266 63.2615 120.722C62.8415 121.166 62.3255 121.52 61.7135 121.784C61.1015 122.048 60.4115 122.18 59.6435 122.18ZM57.1775 117.302C57.1775 117.722 57.2375 118.106 57.3575 118.454C57.4895 118.79 57.6635 119.084 57.8795 119.336C58.1075 119.588 58.3715 119.786 58.6715 119.93C58.9715 120.062 59.2955 120.128 59.6435 120.128C59.9915 120.128 60.3155 120.062 60.6155 119.93C60.9155 119.786 61.1735 119.588 61.3895 119.336C61.6175 119.084 61.7915 118.784 61.9115 118.436C62.0435 118.088 62.1095 117.704 62.1095 117.284C62.1095 116.876 62.0435 116.498 61.9115 116.15C61.7915 115.802 61.6175 115.502 61.3895 115.25C61.1735 114.998 60.9155 114.806 60.6155 114.674C60.3155 114.53 59.9915 114.458 59.6435 114.458C59.2955 114.458 58.9715 114.53 58.6715 114.674C58.3715 114.818 58.1075 115.016 57.8795 115.268C57.6635 115.52 57.4895 115.82 57.3575 116.168C57.2375 116.516 57.1775 116.894 57.1775 117.302ZM66.6388 122V114.908H65.3968V113.072H66.6388V112.496C66.6388 111.32 66.9208 110.39 67.4848 109.706C68.0488 109.022 68.8168 108.68 69.7888 108.68C70.5568 108.68 71.3308 108.866 72.1108 109.238L71.6248 111.056C71.4448 110.96 71.2288 110.882 70.9768 110.822C70.7368 110.75 70.5148 110.714 70.3108 110.714C69.4708 110.714 69.0508 111.278 69.0508 112.406V113.072H71.3548V114.908H69.0508V122H66.6388ZM87.6425 109.22V122H85.1765V116.546H79.3805V122H76.8965V109.22H79.3805V114.386H85.1765V109.22H87.6425ZM94.3075 122.18C93.5395 122.18 92.8495 122.048 92.2375 121.784C91.6255 121.52 91.1035 121.166 90.6715 120.722C90.2515 120.266 89.9275 119.744 89.6995 119.156C89.4715 118.568 89.3575 117.95 89.3575 117.302C89.3575 116.642 89.4715 116.018 89.6995 115.43C89.9275 114.842 90.2515 114.326 90.6715 113.882C91.1035 113.426 91.6255 113.066 92.2375 112.802C92.8495 112.538 93.5395 112.406 94.3075 112.406C95.0755 112.406 95.7595 112.538 96.3595 112.802C96.9715 113.066 97.4875 113.426 97.9075 113.882C98.3395 114.326 98.6695 114.842 98.8975 115.43C99.1255 116.018 99.2395 116.642 99.2395 117.302C99.2395 117.95 99.1255 118.568 98.8975 119.156C98.6695 119.744 98.3455 120.266 97.9255 120.722C97.5055 121.166 96.9895 121.52 96.3775 121.784C95.7655 122.048 95.0755 122.18 94.3075 122.18ZM91.8415 117.302C91.8415 117.722 91.9015 118.106 92.0215 118.454C92.1535 118.79 92.3275 119.084 92.5435 119.336C92.7715 119.588 93.0355 119.786 93.3355 119.93C93.6355 120.062 93.9595 120.128 94.3075 120.128C94.6555 120.128 94.9795 120.062 95.2795 119.93C95.5795 119.786 95.8375 119.588 96.0535 119.336C96.2815 119.084 96.4555 118.784 96.5755 118.436C96.7075 118.088 96.7735 117.704 96.7735 117.284C96.7735 116.876 96.7075 116.498 96.5755 116.15C96.4555 115.802 96.2815 115.502 96.0535 115.25C95.8375 114.998 95.5795 114.806 95.2795 114.674C94.9795 114.53 94.6555 114.458 94.3075 114.458C93.9595 114.458 93.6355 114.53 93.3355 114.674C93.0355 114.818 92.7715 115.016 92.5435 115.268C92.3275 115.52 92.1535 115.82 92.0215 116.168C91.9015 116.516 91.8415 116.894 91.8415 117.302ZM103.748 122.18C102.776 122.18 102.038 121.868 101.534 121.244C101.03 120.62 100.778 119.696 100.778 118.472V112.568H103.19V117.95C103.19 119.402 103.712 120.128 104.756 120.128C105.224 120.128 105.674 119.99 106.106 119.714C106.55 119.426 106.91 118.994 107.186 118.418V112.568H109.598V119.228C109.598 119.48 109.64 119.66 109.724 119.768C109.82 119.876 109.97 119.936 110.174 119.948V122C109.934 122.048 109.73 122.078 109.562 122.09C109.406 122.102 109.262 122.108 109.13 122.108C108.698 122.108 108.344 122.012 108.068 121.82C107.804 121.616 107.648 121.34 107.6 120.992L107.546 120.236C107.126 120.884 106.586 121.37 105.926 121.694C105.266 122.018 104.54 122.18 103.748 122.18ZM111.364 120.524L116.62 114.26H111.58V112.568H119.158V114.044L113.938 120.308H119.248V122H111.364V120.524ZM120.241 120.524L125.497 114.26H120.457V112.568H128.035V114.044L122.815 120.308H128.125V122H120.241V120.524ZM19.946 130.568C19.862 130.484 19.706 130.37 19.478 130.226C19.262 130.082 18.992 129.944 18.668 129.812C18.356 129.668 18.014 129.548 17.642 129.452C17.27 129.356 16.892 129.308 16.508 129.308C15.824 129.308 15.314 129.434 14.978 129.686C14.642 129.938 14.474 130.292 14.474 130.748C14.474 131.012 14.534 131.234 14.654 131.414C14.786 131.582 14.972 131.732 15.212 131.864C15.452 131.996 15.752 132.116 16.112 132.224C16.484 132.332 16.91 132.446 17.39 132.566C18.014 132.734 18.578 132.914 19.082 133.106C19.598 133.298 20.03 133.538 20.378 133.826C20.738 134.114 21.014 134.462 21.206 134.87C21.398 135.266 21.494 135.758 21.494 136.346C21.494 137.03 21.362 137.618 21.098 138.11C20.846 138.59 20.498 138.98 20.054 139.28C19.622 139.58 19.118 139.802 18.542 139.946C17.978 140.078 17.384 140.144 16.76 140.144C15.8 140.144 14.852 140 13.916 139.712C12.98 139.424 12.14 139.016 11.396 138.488L12.494 136.346C12.602 136.454 12.794 136.598 13.07 136.778C13.358 136.946 13.694 137.12 14.078 137.3C14.462 137.468 14.888 137.612 15.356 137.732C15.824 137.852 16.304 137.912 16.796 137.912C18.164 137.912 18.848 137.474 18.848 136.598C18.848 136.322 18.77 136.088 18.614 135.896C18.458 135.704 18.236 135.536 17.948 135.392C17.66 135.248 17.312 135.116 16.904 134.996C16.496 134.876 16.04 134.744 15.536 134.6C14.924 134.432 14.39 134.252 13.934 134.06C13.49 133.856 13.118 133.622 12.818 133.358C12.518 133.082 12.29 132.77 12.134 132.422C11.99 132.062 11.918 131.636 11.918 131.144C11.918 130.496 12.038 129.92 12.278 129.416C12.518 128.912 12.848 128.492 13.268 128.156C13.7 127.82 14.198 127.568 14.762 127.4C15.326 127.22 15.932 127.13 16.58 127.13C17.48 127.13 18.308 127.274 19.064 127.562C19.82 127.838 20.48 128.168 21.044 128.552L19.946 130.568ZM27.5111 140.18C26.7551 140.18 26.0711 140.054 25.4591 139.802C24.8471 139.538 24.3251 139.184 23.8931 138.74C23.4611 138.296 23.1251 137.78 22.8851 137.192C22.6571 136.604 22.5431 135.986 22.5431 135.338C22.5431 134.666 22.6571 134.036 22.8851 133.448C23.1131 132.848 23.4431 132.326 23.8751 131.882C24.3071 131.426 24.8291 131.066 25.4411 130.802C26.0651 130.538 26.7611 130.406 27.5291 130.406C28.2971 130.406 28.9811 130.538 29.5811 130.802C30.1931 131.066 30.7091 131.42 31.1291 131.864C31.5611 132.308 31.8851 132.824 32.1011 133.412C32.3291 134 32.4431 134.612 32.4431 135.248C32.4431 135.404 32.4371 135.554 32.4251 135.698C32.4251 135.842 32.4131 135.962 32.3891 136.058H25.0991C25.1351 136.43 25.2251 136.76 25.3691 137.048C25.5131 137.336 25.6991 137.582 25.9271 137.786C26.1551 137.99 26.4131 138.146 26.7011 138.254C26.9891 138.362 27.2891 138.416 27.6011 138.416C28.0811 138.416 28.5311 138.302 28.9511 138.074C29.3831 137.834 29.6771 137.522 29.8331 137.138L31.9031 137.714C31.5551 138.434 30.9971 139.028 30.2291 139.496C29.4731 139.952 28.5671 140.18 27.5111 140.18ZM29.9591 134.492C29.8991 133.784 29.6351 133.22 29.1671 132.8C28.7111 132.368 28.1531 132.152 27.4931 132.152C27.1691 132.152 26.8631 132.212 26.5751 132.332C26.2991 132.44 26.0531 132.596 25.8371 132.8C25.6211 133.004 25.4411 133.25 25.2971 133.538C25.1651 133.826 25.0871 134.144 25.0631 134.492H29.9591ZM39.5285 132.656C38.7965 132.668 38.1425 132.812 37.5665 133.088C36.9905 133.352 36.5765 133.754 36.3245 134.294V140H33.9125V130.568H36.1265V132.584C36.2945 132.26 36.4925 131.972 36.7205 131.72C36.9485 131.456 37.1945 131.228 37.4585 131.036C37.7225 130.844 37.9865 130.7 38.2505 130.604C38.5265 130.496 38.7905 130.442 39.0425 130.442C39.1745 130.442 39.2705 130.442 39.3305 130.442C39.4025 130.442 39.4685 130.448 39.5285 130.46V132.656ZM43.4114 140L39.9374 130.568H42.4214L44.8154 138.038L47.2274 130.568H49.4954L46.0214 140H43.4114ZM50.7523 140V130.568H53.1643V140H50.7523ZM50.7523 129.254V126.86H53.1643V129.254H50.7523ZM54.7462 135.284C54.7462 134.624 54.8602 134 55.0882 133.412C55.3162 132.824 55.6462 132.308 56.0782 131.864C56.5102 131.42 57.0322 131.066 57.6442 130.802C58.2562 130.538 58.9462 130.406 59.7142 130.406C60.7462 130.406 61.6222 130.628 62.3422 131.072C63.0742 131.516 63.6202 132.098 63.9802 132.818L61.6222 133.538C61.4182 133.19 61.1482 132.926 60.8122 132.746C60.4762 132.554 60.1042 132.458 59.6962 132.458C59.3482 132.458 59.0242 132.53 58.7242 132.674C58.4242 132.806 58.1602 132.998 57.9322 133.25C57.7162 133.49 57.5422 133.784 57.4102 134.132C57.2902 134.48 57.2302 134.864 57.2302 135.284C57.2302 135.704 57.2962 136.088 57.4282 136.436C57.5602 136.784 57.7342 137.084 57.9502 137.336C58.1782 137.588 58.4422 137.786 58.7422 137.93C59.0422 138.062 59.3602 138.128 59.6962 138.128C60.1282 138.128 60.5242 138.02 60.8842 137.804C61.2562 137.588 61.5142 137.324 61.6582 137.012L64.0162 137.732C63.6922 138.452 63.1582 139.04 62.4142 139.496C61.6702 139.952 60.7762 140.18 59.7322 140.18C58.9642 140.18 58.2742 140.048 57.6622 139.784C57.0502 139.52 56.5282 139.166 56.0962 138.722C55.6642 138.266 55.3282 137.744 55.0882 137.156C54.8602 136.556 54.7462 135.932 54.7462 135.284ZM69.7865 140.18C69.0305 140.18 68.3465 140.054 67.7345 139.802C67.1225 139.538 66.6005 139.184 66.1685 138.74C65.7365 138.296 65.4005 137.78 65.1605 137.192C64.9325 136.604 64.8185 135.986 64.8185 135.338C64.8185 134.666 64.9325 134.036 65.1605 133.448C65.3885 132.848 65.7185 132.326 66.1505 131.882C66.5825 131.426 67.1045 131.066 67.7165 130.802C68.3405 130.538 69.0365 130.406 69.8045 130.406C70.5725 130.406 71.2565 130.538 71.8565 130.802C72.4685 131.066 72.9845 131.42 73.4045 131.864C73.8365 132.308 74.1605 132.824 74.3765 133.412C74.6045 134 74.7185 134.612 74.7185 135.248C74.7185 135.404 74.7125 135.554 74.7005 135.698C74.7005 135.842 74.6885 135.962 74.6645 136.058H67.3745C67.4105 136.43 67.5005 136.76 67.6445 137.048C67.7885 137.336 67.9745 137.582 68.2025 137.786C68.4305 137.99 68.6885 138.146 68.9765 138.254C69.2645 138.362 69.5645 138.416 69.8765 138.416C70.3565 138.416 70.8065 138.302 71.2265 138.074C71.6585 137.834 71.9525 137.522 72.1085 137.138L74.1785 137.714C73.8305 138.434 73.2725 139.028 72.5045 139.496C71.7485 139.952 70.8425 140.18 69.7865 140.18ZM72.2345 134.492C72.1745 133.784 71.9105 133.22 71.4425 132.8C70.9865 132.368 70.4285 132.152 69.7685 132.152C69.4445 132.152 69.1385 132.212 68.8505 132.332C68.5745 132.44 68.3285 132.596 68.1125 132.8C67.8965 133.004 67.7165 133.25 67.5725 133.538C67.4405 133.826 67.3625 134.144 67.3385 134.492H72.2345Z" fill="#282828"/>
        </g>
        <defs>
            <clipPath id="clip0_161_9355">
                <rect width="154" height="151" fill="white"/>
            </clipPath>
        </defs>
    </symbol>

    <symbol id="houzz__like" viewBox="0 0 151 151" fill="none">
        <path d="M150 1H1V150H150V1Z" stroke="#4DBC15"/>
        <path d="M7.17715 19.3655V24.5818H5.50244V11.2572H9.74871C10.9872 11.2572 11.9603 11.6295 12.668 12.3738C13.3757 13.112 13.7296 14.0972 13.7296 15.3297C13.7296 16.6108 13.391 17.5992 12.7138 18.2947C12.0427 18.9842 11.094 19.3411 9.86767 19.3655H7.17715ZM7.17715 17.9287H9.74871C10.493 17.9287 11.0634 17.706 11.46 17.2606C11.8566 16.8152 12.0549 16.1777 12.0549 15.348C12.0549 14.5487 11.8505 13.9081 11.4417 13.4262C11.033 12.9442 10.4716 12.7032 9.75785 12.7032H7.17715V17.9287ZM22.2861 18.4228H17.5731V23.145H23.064V24.5818H15.8984V11.2572H22.9726V12.7032H17.5731V16.9861H22.2861V18.4228ZM28.2346 18.5968H26.9717V24.5818H25.297V11.2572H26.9717V17.1325H27.9967L31.7488 11.2572H33.8353L29.6073 17.6998L34.1464 24.5818H32.0965L28.2346 18.5968ZM44.094 19.0909C44.094 20.909 43.7066 22.3092 42.9318 23.2914C42.157 24.2736 41.0557 24.7648 39.6281 24.7648C38.2555 24.7648 37.1694 24.2889 36.3702 23.3372C35.5771 22.3793 35.1653 21.028 35.1348 19.2831V16.7756C35.1348 14.9941 35.5283 13.6 36.3153 12.5934C37.1024 11.5806 38.2005 11.0742 39.6099 11.0742C41.0131 11.0742 42.1051 11.5593 42.8861 12.5294C43.6731 13.4933 44.0757 14.8721 44.094 16.6657V19.0909ZM42.4193 16.7573C42.4193 15.348 42.1875 14.3016 41.7238 13.6184C41.2663 12.9289 40.5616 12.5843 39.6099 12.5843C38.6886 12.5843 37.9901 12.932 37.5141 13.6275C37.0443 14.323 36.8064 15.348 36.8003 16.7024V19.0909C36.8003 20.4514 37.0353 21.4886 37.505 22.2024C37.9809 22.9163 38.6886 23.2731 39.6281 23.2731C40.5677 23.2731 41.2632 22.9437 41.7147 22.2847C42.1661 21.6259 42.401 20.6161 42.4193 19.2556V16.7573ZM48.8436 11.2572L52.3212 22.1292L55.7988 11.2572H57.9584V24.5818H56.2837V19.3929L56.4394 14.1949L52.9527 24.5818H51.6715L48.203 14.2315L48.3586 19.3929V24.5818H46.6839V11.2572H48.8436ZM67.238 18.4228H62.525V23.145H68.0159V24.5818H60.8503V11.2572H67.9244V12.7032H62.525V16.9861H67.238V18.4228ZM78.8878 24.5818H77.204V18.4228H71.8412V24.5818H70.1665V11.2572H71.8412V16.9861H77.204V11.2572H78.8878V24.5818ZM90.7481 23.145H92.3129L92.2947 27.8488H90.62V24.5818H82.7497V27.858H81.0659L81.0567 23.145H82.0359C82.4629 22.602 82.8107 21.7845 83.0792 20.6924C83.3537 19.6003 83.5276 18.3802 83.6008 17.0319L83.8571 11.2572H90.7481V23.145ZM83.8204 23.145H89.0642V12.7032H85.4859L85.2938 17.0044C85.2206 18.4137 85.0528 19.6308 84.7905 20.6558C84.5281 21.6747 84.2048 22.5044 83.8204 23.145ZM102.81 19.0909C102.81 20.909 102.422 22.3092 101.647 23.2914C100.873 24.2736 99.771 24.7648 98.3438 24.7648C96.9709 24.7648 95.8848 24.2889 95.0855 23.3372C94.2927 22.3793 93.8809 21.028 93.8504 19.2831V16.7756C93.8504 14.9941 94.2439 13.6 95.0311 12.5934C95.8183 11.5806 96.9166 11.0742 98.3251 11.0742C99.7288 11.0742 100.821 11.5593 101.602 12.5294C102.388 13.4933 102.791 14.8721 102.81 16.6657V19.0909ZM101.134 16.7573C101.134 15.348 100.903 14.3016 100.439 13.6184C99.9818 12.9289 99.2772 12.5843 98.3251 12.5843C97.4039 12.5843 96.7057 12.932 96.2297 13.6275C95.7602 14.323 95.5222 15.348 95.5156 16.7024V19.0909C95.5156 20.4514 95.7508 21.4886 96.2203 22.2024C96.6964 22.9163 97.4039 23.2731 98.3438 23.2731C99.2837 23.2731 99.979 22.9437 100.431 22.2847C100.881 21.6259 101.117 20.6161 101.134 19.2556V16.7573ZM105.399 24.5818V11.2572H109.197C110.412 11.2572 111.324 11.5532 111.934 12.145C112.549 12.7367 112.858 13.6245 112.858 14.808C112.858 15.4304 112.702 15.9794 112.391 16.4553C112.08 16.9311 111.659 17.3003 111.129 17.5627C111.739 17.7457 112.22 18.1209 112.574 18.6882C112.935 19.2556 113.114 19.939 113.114 20.7381C113.114 21.934 112.785 22.8735 112.126 23.5568C111.473 24.2401 110.539 24.5818 109.326 24.5818H105.399ZM107.074 18.3496V23.145H109.362C109.997 23.145 110.5 22.9375 110.872 22.5227C111.244 22.1017 111.43 21.513 111.43 20.7565C111.43 19.1519 110.753 18.3496 109.399 18.3496H107.074ZM107.074 16.9403H109.225C109.805 16.9403 110.271 16.7451 110.625 16.3546C110.985 15.9641 111.165 15.4456 111.165 14.7988C111.165 14.0668 111.003 13.536 110.68 13.2065C110.357 12.871 109.863 12.7032 109.197 12.7032H107.074V16.9403ZM121.845 21.1043H117.342L116.308 24.5818H114.588L118.88 11.2572H120.316L124.617 24.5818H122.897L121.845 21.1043ZM117.781 19.6583H121.414L119.594 13.6L117.781 19.6583ZM135.151 24.5818H133.467V18.4228H128.104V24.5818H126.43V11.2572H128.104V16.9861H133.467V11.2572H135.151V24.5818ZM146.718 19.0909C146.718 20.909 146.331 22.3092 145.556 23.2914C144.781 24.2736 143.68 24.7648 142.252 24.7648C140.88 24.7648 139.794 24.2889 138.995 23.3372C138.202 22.3793 137.789 21.028 137.759 19.2831V16.7756C137.759 14.9941 138.152 13.6 138.939 12.5934C139.726 11.5806 140.825 11.0742 142.234 11.0742C143.637 11.0742 144.73 11.5593 145.51 12.5294C146.297 13.4933 146.7 14.8721 146.718 16.6657V19.0909ZM145.044 16.7573C145.044 15.348 144.812 14.3016 144.348 13.6184C143.89 12.9289 143.186 12.5843 142.234 12.5843C141.313 12.5843 140.614 12.932 140.139 13.6275C139.668 14.323 139.43 15.348 139.425 16.7024V19.0909C139.425 20.4514 139.659 21.4886 140.129 22.2024C140.605 22.9163 141.313 23.2731 142.252 23.2731C143.192 23.2731 143.887 22.9437 144.339 22.2847C144.791 21.6259 145.025 20.6161 145.044 19.2556V16.7573Z" fill="#282828"/>
        <path d="M102.264 103.512H94.3408" stroke="#4DBC15" stroke-width="3"/>
        <path d="M100.063 114.076H92.5803" stroke="#4DBC15" stroke-width="3"/>
        <path d="M73.6541 70.5C76.4711 89.8672 65.4379 96.4691 59.5691 97.35V128.16L66.6116 133.442H95.2215L104.465 94.7083H80.2565C82.7214 73.2288 81.1368 70.4999 73.6541 70.5Z" stroke="#4DBC15" stroke-width="3"/>
        <path d="M59.1008 94.396H47.8555V133.754H59.1008V94.396Z" stroke="#4DBC15" stroke-width="3"/>
        <path d="M97.4227 124.199H90.3801" stroke="#4DBC15" stroke-width="3"/>
        <path fill-rule="evenodd" clip-rule="evenodd" d="M49.7459 53H55V43.9116L44.4832 40.8309V37H41V53H46.2541V47.9625H49.7459V53Z" fill="#4DBC15"/>
        <path fill-rule="evenodd" clip-rule="evenodd" d="M85.6463 44.0634V48.8353C85.6489 49.108 85.6879 49.3793 85.7622 49.6422C85.8368 49.9091 85.9625 50.16 86.1326 50.3813C86.3092 50.6092 86.5362 50.7949 86.7967 50.9246C87.4493 51.2024 88.1919 51.2024 88.8444 50.9246C89.1048 50.7949 89.332 50.6092 89.5086 50.3813C89.6782 50.1598 89.8041 49.9091 89.879 49.6422C89.9531 49.3793 89.9917 49.108 89.9936 48.8353V44.0843H91.9543V49.0202C91.9543 50.2865 91.5222 51.9544 89.4605 52.7155C88.4092 53.0923 87.255 53.0949 86.2018 52.7229C84.5221 52.107 83.6879 50.8752 83.6879 49.0275V44.0634H85.6461H85.6463ZM80.1861 45.2016C80.611 45.6185 80.9512 46.1099 81.1892 46.6502C81.4355 47.2129 81.5604 47.8193 81.5559 48.4314C81.5625 49.6467 81.0675 50.8148 80.1836 51.6697C79.7511 52.0832 79.2421 52.4132 78.684 52.6415C77.4946 53.1186 76.1597 53.1186 74.9705 52.6415C74.4124 52.4132 73.9034 52.0832 73.4709 51.6697C72.5878 50.8145 72.0936 49.6464 72.1011 48.4314C72.0968 47.8193 72.2216 47.213 72.4677 46.6502C73.2153 44.9495 74.9355 43.842 76.829 43.842C78.0877 43.842 79.2962 44.3314 80.1861 45.2016ZM101.418 44.0782V45.7239L96.7266 51.0723H101.671V52.7906H94.2215V51.1276L98.8789 45.7964H94.384V44.0781H101.418V44.0782ZM110.747 44.0782V45.7239L106.055 51.0723H111V52.7906H103.55V51.1276L108.208 45.7964H103.713V44.0781H110.747V44.0782ZM63.9734 41V44.6671C65.018 43.8443 66.6322 43.625 67.9479 44.1571C69.3151 44.7102 70.099 45.9359 70.1002 47.5199V52.7883H68.1281V48.1543C68.1281 47.0653 67.5623 45.7931 65.9695 45.7931C64.2343 45.7931 63.9746 47.2724 63.9746 48.1543V52.7896H62V41H63.9734ZM79.2839 49.5474C79.5357 48.8229 79.5357 48.0372 79.2839 47.3129C79.171 46.9938 78.993 46.7005 78.761 46.4507C78.5283 46.2098 78.2467 46.0188 77.9343 45.8901C77.2244 45.6141 76.4327 45.6141 75.7229 45.8901C75.4103 46.0186 75.1289 46.2096 74.8962 46.4507C74.6631 46.7003 74.4849 46.9936 74.372 47.3129C74.12 48.0372 74.12 48.8231 74.372 49.5474C74.4849 49.8667 74.6633 50.1602 74.8962 50.4096C75.1289 50.6507 75.4103 50.8417 75.7229 50.9702C76.4329 51.2453 77.2242 51.2453 77.9343 50.9702C78.2467 50.8415 78.5283 50.6507 78.761 50.4096C78.9932 50.1598 79.1712 49.8664 79.2839 49.5474Z" fill="black"/>
    </symbol>

    <symbol id="houzz__save" viewBox="0 0 151 150" fill="none">
        <path d="M150 116H1V149H150V116Z" fill="#4DBC15"/>
        <path d="M150 1H1V149H150V1Z" stroke="#4DBC15"/>
        <path d="M31.7932 96.6387H28.5593V74.3856L23 76.8582V73.8261L31.2845 70.2346H31.7932V96.6387ZM52.3225 85.431C52.3225 89.3052 51.7533 92.2049 50.6147 94.1299C49.4763 96.0427 47.6898 97 45.2553 97C42.8936 97 41.1313 96.0796 39.9685 94.238C38.8058 92.3975 38.2003 89.6301 38.1518 85.9363V81.4243C38.1518 77.5861 38.7211 74.7226 39.8595 72.8335C41.0101 70.9445 42.7966 70 45.219 70C47.605 70 49.3672 70.8963 50.5058 72.6891C51.6563 74.4818 52.262 77.1951 52.3225 80.8287V85.431ZM49.1069 80.8648C49.1069 78.0855 48.798 76.04 48.1803 74.7286C47.5626 73.405 46.5755 72.7432 45.219 72.7432C43.8988 72.7432 42.9298 73.393 42.3122 74.6924C41.6945 75.9798 41.3735 77.929 41.3493 80.5399V85.9543C41.3493 88.7217 41.6703 90.8032 42.3122 92.1989C42.9541 93.5826 43.9352 94.274 45.2553 94.274C46.5634 94.274 47.5262 93.6187 48.144 92.3072C48.7617 90.9957 49.0826 88.9924 49.1069 86.2973V80.8648ZM81.8148 74.3838H75.2046V96.6387H72.0461V74.3838H65.4531V71.6748H81.8148V74.3838ZM88.8565 81.8593H93.9312C96.186 81.8707 97.9524 82.5279 99.2295 83.831C100.507 85.1226 101.145 86.9057 101.145 89.1804C101.145 91.4665 100.495 93.2839 99.1951 94.6326C97.9059 95.9697 96.1172 96.6387 93.827 96.6387H85.6981V71.6748H88.8565V81.8593ZM106.513 96.6387H103.354V71.6748H106.513V96.6387ZM88.8565 84.5683V93.9469H93.8959C95.1851 93.9469 96.186 93.5068 96.8994 92.6266C97.6129 91.7465 97.9691 90.5863 97.9691 89.1461C97.9691 87.7287 97.6129 86.6143 96.8994 85.8027C96.1972 84.9797 95.2019 84.5683 93.9136 84.5683H88.8565ZM128 88.7174C127.862 91.3922 127.103 93.4382 125.722 94.8553C124.353 96.2728 122.414 96.9815 119.906 96.9815C117.386 96.9815 115.384 96.0325 113.899 94.1354C112.416 92.2266 111.673 89.6433 111.673 86.3857V81.8593C111.673 78.613 112.433 76.0469 113.951 74.1609C115.482 72.2749 117.564 71.3319 120.2 71.3319C122.627 71.3319 124.503 72.0578 125.826 73.5094C127.16 74.9496 127.886 77.0128 128 79.699H124.808C124.669 77.6643 124.238 76.2127 123.513 75.344C122.788 74.4753 121.683 74.0409 120.2 74.0409C118.485 74.0409 117.167 74.7096 116.247 76.0469C115.326 77.3728 114.866 79.3218 114.866 81.8936V86.4714C114.866 88.9975 115.292 90.935 116.143 92.2837C117.006 93.6325 118.26 94.3073 119.906 94.3073C121.551 94.3073 122.736 93.9007 123.462 93.0896C124.186 92.278 124.635 90.8207 124.808 88.7174H128Z" fill="#4DBC15"/>
        <path d="M11.7812 132.612C11.7812 131.752 11.8925 130.951 12.0966 130.248C12.3007 129.544 12.6161 128.958 13.0057 128.45C13.3953 127.961 13.8777 127.57 14.4158 127.316C14.9724 127.042 15.5847 126.906 16.2712 126.906C16.7165 126.906 17.1432 126.984 17.5514 127.101C17.941 127.238 18.2935 127.433 18.6089 127.668C18.9429 127.902 19.2027 128.215 19.4253 128.567C19.648 128.919 19.8149 129.329 19.9263 129.778H21.6703C21.6518 129.446 21.5776 129.114 21.4662 128.762C21.3549 128.41 21.2065 128.059 21.0024 127.726C20.7983 127.394 20.5385 127.081 20.2417 126.788C19.9448 126.495 19.6109 126.222 19.2212 125.987C18.813 125.772 18.3677 125.596 17.8668 125.459C17.3844 125.342 16.8278 125.264 16.2155 125.264C15.7331 125.264 15.2322 125.322 14.7312 125.42C14.2488 125.537 13.7664 125.713 13.3026 125.948C12.8387 126.202 12.412 126.515 12.0224 126.906C11.6142 127.296 11.2617 127.765 10.9648 128.313C10.6679 128.879 10.4267 129.524 10.2598 130.267C10.0928 131.01 10 131.87 10 132.808C10 133.765 10.0928 134.625 10.2969 135.349C10.4824 136.072 10.7422 136.717 11.0576 137.244C11.373 137.772 11.7441 138.221 12.1708 138.573C12.5975 138.925 13.0243 139.218 13.4881 139.414C13.9334 139.629 14.3972 139.785 14.8611 139.863C15.3249 139.961 15.7517 140 16.1599 140C16.7536 140 17.2916 139.922 17.774 139.765C18.275 139.629 18.7203 139.414 19.1285 139.16C19.5366 138.886 19.8892 138.573 20.186 138.221C20.5014 137.87 20.7612 137.498 20.9838 137.107C21.2065 136.717 21.3735 136.306 21.5219 135.876C21.6518 135.446 21.726 135.036 21.7631 134.625H20.0376C19.9819 135.094 19.8335 135.544 19.648 135.993C19.4439 136.423 19.1841 136.814 18.8501 137.186C18.5347 137.537 18.1451 137.811 17.6998 138.026C17.236 138.261 16.735 138.358 16.1599 138.358C15.5105 138.358 14.9167 138.221 14.3787 137.948C13.8406 137.674 13.3768 137.303 12.9872 136.795C12.5975 136.306 12.3007 135.7 12.0966 134.997C11.8925 134.293 11.7812 133.492 11.7812 132.612ZM36.3775 132.632C36.3775 131.537 36.2291 130.56 35.9322 129.642C35.6354 128.743 35.2272 127.961 34.6706 127.316C34.114 126.671 33.446 126.163 32.6297 125.811C31.8318 125.44 30.9042 125.264 29.8837 125.264C28.8632 125.264 27.9541 125.44 27.1377 125.811C26.3399 126.163 25.6534 126.671 25.0968 127.316C24.5588 127.961 24.132 128.743 23.8352 129.642C23.5383 130.56 23.3899 131.537 23.3899 132.632C23.3899 133.238 23.4455 133.844 23.5569 134.43C23.6867 135.036 23.8537 135.603 24.0949 136.15C24.3176 136.697 24.6144 137.205 24.9855 137.674C25.338 138.143 25.7648 138.554 26.2286 138.886C26.711 139.238 27.2676 139.511 27.8613 139.707C28.4736 139.902 29.1601 140 29.8837 140C30.6259 140 31.2938 139.902 31.9061 139.707C32.5183 139.511 33.0564 139.238 33.5388 138.886C34.0212 138.554 34.4479 138.143 34.8005 137.674C35.153 137.205 35.4313 136.697 35.6725 136.15C35.9137 135.603 36.0807 135.036 36.192 134.43C36.3219 133.844 36.3775 133.238 36.3775 132.632ZM34.5964 132.632C34.5964 133.492 34.5036 134.274 34.2995 134.958C34.114 135.661 33.8357 136.267 33.446 136.775C33.0564 137.283 32.5554 137.655 31.9617 137.948C31.368 138.221 30.6815 138.358 29.8837 138.358C29.0859 138.358 28.3994 138.221 27.8057 137.948C27.2305 137.655 26.7296 137.283 26.3399 136.775C25.9503 136.267 25.6534 135.661 25.4494 134.958C25.2638 134.274 25.171 133.492 25.171 132.632C25.171 131.811 25.2824 131.029 25.4865 130.326C25.6906 129.622 26.006 129.016 26.4141 128.508C26.8038 128 27.3047 127.609 27.8799 127.335C28.4736 127.042 29.1416 126.906 29.8837 126.906C30.6259 126.906 31.2938 127.042 31.8875 127.335C32.4627 127.609 32.9636 128 33.3718 128.508C33.7614 129.016 34.0769 129.622 34.2809 130.326C34.485 131.029 34.5964 131.811 34.5964 132.632ZM37.7008 125.616L42.1722 132.456L37.441 139.648H39.6489L43.2855 133.883L46.922 139.648H49.1299L44.3987 132.456L48.8701 125.616H46.6622L43.2855 130.99L39.9087 125.616H37.7008ZM56.4585 125.616H50.8552V139.648H52.6364V133.824H56.4585C57.2006 133.824 57.8314 133.726 58.3695 133.531C58.889 133.336 59.3343 133.062 59.6868 132.691C60.0393 132.339 60.2991 131.909 60.4661 131.401C60.6516 130.893 60.7258 130.345 60.7258 129.72C60.7258 129.094 60.6516 128.547 60.4661 128.039C60.2991 127.531 60.0393 127.101 59.6868 126.749C59.3343 126.397 58.889 126.124 58.3695 125.909C57.8314 125.713 57.2006 125.616 56.4585 125.616ZM56.2729 132.182H52.6364V127.257H56.2729C57.2192 127.257 57.9057 127.472 58.3138 127.883C58.7406 128.313 58.9447 128.919 58.9447 129.72C58.9447 130.521 58.7406 131.127 58.3138 131.557C57.9057 131.967 57.2192 132.182 56.2729 132.182ZM69.3347 125.401H67.1824L62.1915 139.648H64.0654L65.5497 135.349H70.7819L72.192 139.648H74.1772L69.3347 125.401ZM66.0136 133.863L68.2586 127.629L70.2809 133.863H66.0136ZM77.5862 131.401V125.616H75.805V139.648H77.5862V133.042H84.6737V139.648H86.4549V125.616H84.6737V131.401H77.5862ZM98.9174 127.257V125.616H89.1949V139.648H99.0472V138.007H90.9761V133.238H98.3051V131.596H90.9761V127.257H98.9174ZM103.352 131.401V125.616H101.571V139.648H103.352V133.042H110.439V139.648H112.22V125.616H110.439V131.401H103.352ZM116.741 136.971V125.616H114.96V139.648H117.019L123.791 128.235H123.829V139.648H125.61V125.616H123.55L116.778 136.971H116.741ZM131.912 122H130.28C130.261 122.391 130.354 122.743 130.502 123.075C130.651 123.407 130.873 123.681 131.17 123.915C131.467 124.169 131.82 124.345 132.246 124.482C132.673 124.619 133.137 124.697 133.675 124.697C134.176 124.697 134.64 124.619 135.067 124.502C135.475 124.384 135.846 124.208 136.143 123.974C136.44 123.739 136.662 123.446 136.829 123.114C136.996 122.782 137.07 122.41 137.07 122H135.438C135.363 122.489 135.159 122.84 134.863 123.075C134.566 123.309 134.157 123.427 133.675 123.427C133.193 123.427 132.784 123.329 132.488 123.094C132.191 122.879 131.987 122.528 131.912 122ZM130.131 136.971V125.616H128.35V139.648H130.41L137.182 128.235H137.219V139.648H139V125.616H136.941L130.168 136.971H130.131Z" fill="white"/>
        <path fill-rule="evenodd" clip-rule="evenodd" d="M33.7436 46H42V31.7994L25.4736 26.9858V21H20V46H28.2564V38.129H33.7436V46Z" fill="#4DBC15"/>
        <path fill-rule="evenodd" clip-rule="evenodd" d="M91.1584 31.8504V39.4059C91.1626 39.8377 91.2238 40.2672 91.3405 40.6835C91.4579 41.1061 91.6554 41.5033 91.9226 41.8538C92.2001 42.2145 92.5568 42.5086 92.9663 42.714C93.9917 43.1537 95.1586 43.1537 96.1841 42.714C96.5932 42.5086 96.9502 42.2145 97.2278 41.8538C97.4944 41.503 97.6922 41.1061 97.8098 40.6835C97.9263 40.2672 97.9869 39.8377 97.99 39.4059V31.8835H101.071V39.6986C101.071 41.7037 100.392 44.3445 97.1523 45.5496C95.5002 46.1461 93.6864 46.1502 92.0315 45.5612C89.3918 44.5861 88.0809 42.6357 88.0809 39.7103V31.8504H91.1581H91.1584ZM82.5782 33.6525C83.2458 34.3126 83.7804 35.0907 84.1545 35.9462C84.5415 36.837 84.7377 37.7972 84.7307 38.7663C84.7411 40.6907 83.9631 42.5401 82.5743 43.8937C81.8946 44.5485 81.0947 45.0709 80.2177 45.4324C78.3487 46.1878 76.2509 46.1878 74.3822 45.4324C73.5052 45.0709 72.7054 44.5485 72.0256 43.8937C70.6379 42.5395 69.8614 40.6901 69.8732 38.7663C69.8664 37.7972 70.0626 36.8373 70.4493 35.9462C71.6241 33.2534 74.3272 31.4999 77.3028 31.4999C79.2807 31.4999 81.1798 32.2747 82.5782 33.6525ZM115.943 31.8739V34.4796L108.57 42.9478H116.341V45.6685H104.634V43.0354L111.953 34.5943H104.889V31.8736H115.943V31.8739ZM130.602 31.8739V34.4796L123.23 42.9478H131V45.6685H119.293V43.0354L126.612 34.5943H119.549V31.8736H130.602V31.8739ZM57.101 27V32.8062C58.7425 31.5035 61.2792 31.1563 63.3466 31.9988C65.4952 32.8745 66.7269 34.8151 66.7289 37.3232V45.6649H63.6298V38.3277C63.6298 36.6035 62.7407 34.589 60.2377 34.589C57.5111 34.589 57.103 36.9313 57.103 38.3277V45.6668H54V27H57.101ZM81.1604 40.5334C81.5561 39.3863 81.5561 38.1422 81.1604 36.9954C80.983 36.4901 80.7033 36.0258 80.3387 35.6302C79.973 35.2488 79.5305 34.9464 79.0396 34.7427C77.9241 34.3057 76.68 34.3057 75.5645 34.7427C75.0734 34.9461 74.6311 35.2485 74.2654 35.6302C73.8992 36.0255 73.6191 36.4899 73.4417 36.9954C73.0458 38.1422 73.0458 39.3866 73.4417 40.5334C73.6191 41.0389 73.8995 41.5036 74.2654 41.8986C74.6311 42.2803 75.0734 42.5827 75.5645 42.7861C76.6803 43.2217 77.9238 43.2217 79.0396 42.7861C79.5305 42.5824 79.973 42.2803 80.3387 41.8986C80.7035 41.503 80.9833 41.0384 81.1604 40.5334Z" fill="black"/>
    </symbol>

    <symbol id="comparison_icon" viewBox="0 0 24 24" fill="none">
       <path clip-rule="evenodd" d="M12 2.25C12.4142 2.25 12.75 2.58579 12.75 3L12.75 21C12.75 21.4142 12.4142 21.75 12 21.75C11.5858 21.75 11.25 21.4142 11.25 21V20.4188C10.5362 20.3778 9.82501 20.2784 9.1243 20.1204C6.39038 19.5039 4.23469 17.4459 3.58505 14.7836C3.13832 12.9528 3.13832 11.0471 3.58505 9.21639C4.23469 6.55409 6.39038 4.49604 9.1243 3.87958C9.82502 3.72157 10.5362 3.62212 11.25 3.58118V3C11.25 2.58579 11.5858 2.25 12 2.25ZM11.25 5.08397C10.6468 5.12306 10.0462 5.20935 9.45425 5.34284C7.25053 5.83975 5.55086 7.48779 5.04229 9.57198C4.65257 11.1691 4.65257 12.8309 5.04229 14.428C5.55086 16.5122 7.25053 18.1602 9.45425 18.6571C10.0462 18.7906 10.6468 18.8769 11.25 18.916L11.25 5.08397ZM13.9791 4.44623C14.0702 4.04216 14.4716 3.78846 14.8757 3.87958C17.6096 4.49604 19.7653 6.55409 20.415 9.2164C20.8617 11.0471 20.8617 12.9528 20.415 14.7836C19.7653 17.4459 17.6096 19.5039 14.8757 20.1204C14.4716 20.2115 14.0702 19.9578 13.9791 19.5537C13.888 19.1496 14.1417 18.7482 14.5458 18.6571C16.7495 18.1602 18.4491 16.5121 18.9577 14.428C19.3474 12.8308 19.3474 11.1691 18.9577 9.57198C18.4491 7.4878 16.7495 5.83975 14.5458 5.34284C14.1417 5.25172 13.888 4.8503 13.9791 4.44623Z" fill="black" fill-rule="evenodd"/>
    </symbol>

    <symbol id="pointer" viewBox="0 0 26 31" fill="none">
        <path d="M25.0968 12.9141V21.2141C25.0968 23.1141 24.3968 24.9141 23.0968 26.3141V27.2141C23.0968 28.8141 21.7968 30.2141 20.0968 30.2141H11.6968C10.0968 30.2141 8.69684 28.9141 8.69684 27.2141C8.69684 26.6141 9.19684 26.2141 9.69684 26.2141C10.1968 26.2141 10.6968 26.6141 10.6968 27.2141C10.6968 27.7141 11.0968 28.2141 11.6968 28.2141H20.0968C20.5968 28.2141 21.0968 27.8141 21.0968 27.2141V26.0141C21.0968 25.9141 21.0968 25.8141 21.0968 25.7141C21.0968 25.6141 21.0968 25.6141 21.0968 25.6141C21.0968 25.5141 21.1968 25.4141 21.2968 25.3141C22.3968 24.2141 22.9968 22.8141 22.9968 21.3141V13.0141C22.9968 12.7141 22.8968 12.5141 22.6968 12.3141C22.5968 12.2141 22.1968 11.9141 21.6968 12.0141C21.2968 12.1141 20.8968 12.6141 20.8968 13.1141V15.5141C20.8968 16.1141 20.3968 16.5141 19.8968 16.5141C19.3968 16.5141 18.8968 16.1141 18.8968 15.5141V10.0141C18.8968 9.71411 18.7968 9.51411 18.5968 9.31411C18.3968 9.11411 18.1968 9.01411 17.8968 9.01411C17.3968 9.01411 16.8968 9.51411 16.8968 10.0141V15.5141C16.8968 16.1141 16.3968 16.5141 15.8968 16.5141C15.3968 16.5141 14.8968 16.1141 14.8968 15.5141V7.01411C14.8968 6.71411 14.7968 6.51411 14.5968 6.31411C14.3968 6.11411 14.1968 6.01411 13.8968 6.01411C13.3968 6.01411 12.8968 6.51411 12.8968 7.01411V15.5141C12.8968 16.1141 12.3968 16.5141 11.8968 16.5141C11.3968 16.5141 10.8968 16.1141 10.8968 15.5141V2.91411C10.8968 2.61411 10.7968 2.41411 10.5968 2.21411C10.4968 2.11411 10.0968 1.81411 9.59684 1.91411C9.19684 2.01411 8.79684 2.51411 8.79684 3.01411V15.2141C8.79684 15.6141 8.59684 16.0141 8.19684 16.1141C7.79684 16.3141 7.39684 16.2141 7.09684 15.9141L4.49684 13.3141C3.89684 12.7141 2.89684 12.7141 2.29684 13.4141C1.79684 14.0141 1.89684 14.9141 2.49684 15.5141L9.49684 22.5141C9.89684 22.9141 9.89684 23.5141 9.49684 23.9141C9.29684 24.1141 8.99684 24.2141 8.79684 24.2141C8.49684 24.2141 8.29684 24.1141 8.09684 23.9141L1.09684 16.8141C-0.203162 15.5141 -0.403162 13.3141 0.796838 12.0141C1.49684 11.2141 2.49684 10.7141 3.49684 10.7141C4.39684 10.7141 5.29684 11.1141 5.99684 11.7141L6.89684 12.6141V3.11411C6.89684 1.71411 7.79684 0.414114 9.19684 0.114114C10.1968 -0.185886 11.2968 0.114113 11.9968 0.914113C12.5968 1.51411 12.8968 2.21411 12.8968 3.01411V4.21411C13.1968 4.11411 13.5968 4.01411 13.8968 4.01411C14.6968 4.01411 15.3968 4.31411 15.9968 4.91411C16.5968 5.51411 16.8968 6.21411 16.8968 7.01411V7.21411C17.1968 7.11411 17.5968 7.01411 17.8968 7.01411C18.6968 7.01411 19.3968 7.31411 19.9968 7.91411C20.5968 8.51411 20.8968 9.21411 20.8968 10.0141V10.2141C20.9968 10.2141 21.0968 10.1141 21.1968 10.1141C22.1968 9.81411 23.2968 10.1141 23.9968 10.9141C24.7968 11.4141 25.0968 12.2141 25.0968 12.9141Z" fill="white"/>
    </symbol>

    <symbol id="search" viewBox="0 0 40 40" fill="none">
        <g clip-path="url(#clip0_637_6242)">
            <path d="M15.3004 30.9C6.80039 30.9 -0.0996094 24 -0.0996094 15.5C-0.0996094 7 6.80039 0 15.3004 0C23.8004 0 30.8004 7 30.8004 15.5C30.8004 16.7 30.7004 17.9 30.4004 19.1C30.3004 19.6 29.7004 20 29.2004 19.8C28.7004 19.7 28.3004 19.1 28.5004 18.6C28.7004 17.6 28.9004 16.6 28.9004 15.5C28.9004 8.1 22.9004 2 15.4004 2C7.90039 2 1.90039 8.1 1.90039 15.5C1.90039 22.9 7.90039 29 15.4004 29C16.5004 29 17.5004 28.9 18.6004 28.6C19.1004 28.5 19.7004 28.8 19.8004 29.3C19.9004 29.8 19.6004 30.4 19.1004 30.5C17.8004 30.8 16.6004 30.9 15.3004 30.9Z" fill="white"/>
            <path d="M36.3996 39.9998C35.4996 39.9998 34.5996 39.5998 33.8996 38.9998L22.8996 27.9998C22.4996 27.5998 22.4996 26.9998 22.8996 26.5998C23.2996 26.1998 23.8996 26.1998 24.2996 26.5998L35.2996 37.5998C35.8996 38.1998 36.8996 38.1998 37.3996 37.5998C37.9996 36.9998 37.9996 35.9998 37.3996 35.4998L26.3996 24.4998C25.9996 24.0998 25.9996 23.4998 26.3996 23.0998C26.7996 22.6998 27.3996 22.6998 27.7996 23.0998L38.7996 34.0998C40.1996 35.4998 40.1996 37.6998 38.7996 39.0998C38.1996 39.5998 37.2996 39.9998 36.3996 39.9998Z" fill="white"/>
            <path d="M15.3008 27C9.00078 27 3.80078 21.8 3.80078 15.5C3.80078 9.2 9.00078 4 15.3008 4C21.6008 4 26.8008 9.2 26.8008 15.5C26.8008 21.8 21.7008 27 15.3008 27ZM15.3008 6C10.1008 6 5.80078 10.3 5.80078 15.5C5.80078 20.7 10.1008 25 15.3008 25C20.5008 25 24.8008 20.7 24.8008 15.5C24.8008 10.3 20.6008 6 15.3008 6Z" fill="white"/>
        </g>
        <defs>
            <clipPath id="clip0_637_6242">
                <rect width="40" height="40" fill="white"/>
            </clipPath>
        </defs>
    </symbol>

</svg>