<svg width="154" height="151" viewBox="0 0 154 151" fill="none" xmlns="http://www.w3.org/2000/svg">
<g clip-path="url(#clip0_161_9355)">
<path d="M154 42.7833L0 0V151H154V42.7833Z" fill="#FFBD2B"/>
<path d="M16.5 14H11V36H18.5V29H24V36H31V23.5L16.5 19V14Z" fill="white"/>
<path d="M12.824 95.0002C12.824 93.5602 12.936 92.2642 13.16 91.1122C13.384 89.9282 13.768 88.8402 14.312 87.8482C14.888 86.8562 15.656 85.9282 16.616 85.0642C17.608 84.2002 18.856 83.3522 20.36 82.5202C21.672 81.8162 22.824 81.2082 23.816 80.6962C24.84 80.1522 25.688 79.6562 26.36 79.2082C27.032 78.7602 27.544 78.3122 27.896 77.8642C28.248 77.3842 28.424 76.8402 28.424 76.2322C28.424 75.2722 28.04 74.4562 27.272 73.7842C26.504 73.0802 25.4 72.7282 23.96 72.7282C23.192 72.7282 22.488 72.8402 21.848 73.0642C21.208 73.2562 20.6 73.5282 20.024 73.8802C19.48 74.2322 18.968 74.6322 18.488 75.0802C18.04 75.4962 17.624 75.9442 17.24 76.4242L13.112 71.6722C13.528 71.2242 14.12 70.7442 14.888 70.2322C15.656 69.6882 16.552 69.1922 17.576 68.7442C18.632 68.2642 19.784 67.8802 21.032 67.5922C22.312 67.2722 23.672 67.1122 25.112 67.1122C26.744 67.1122 28.2 67.3202 29.48 67.7362C30.76 68.1202 31.832 68.6802 32.696 69.4162C33.592 70.1202 34.264 70.9842 34.712 72.0082C35.192 73.0002 35.432 74.0882 35.432 75.2722C35.432 76.3922 35.224 77.3842 34.808 78.2482C34.392 79.1122 33.864 79.8802 33.224 80.5522C32.584 81.2242 31.88 81.8162 31.112 82.3282C30.376 82.8082 29.656 83.2402 28.952 83.6242C28.376 83.9442 27.72 84.3122 26.984 84.7282C26.248 85.1442 25.512 85.6082 24.776 86.1202C24.072 86.6002 23.416 87.1122 22.808 87.6562C22.2 88.1682 21.736 88.6802 21.416 89.1922H35.96V95.0002H12.824ZM65.2137 80.9362C65.2137 83.0482 64.8938 85.0002 64.2538 86.7922C63.6458 88.5522 62.7818 90.0882 61.6618 91.4002C60.5738 92.6802 59.2618 93.6882 57.7258 94.4242C56.2218 95.1282 54.5898 95.4802 52.8298 95.4802C51.0378 95.4802 49.3898 95.1282 47.8858 94.4242C46.3818 93.6882 45.0698 92.6802 43.9498 91.4002C42.8618 90.0882 41.9978 88.5522 41.3578 86.7922C40.7498 85.0002 40.4458 83.0482 40.4458 80.9362C40.4458 78.8242 40.7498 76.8882 41.3578 75.1282C41.9978 73.3362 42.8618 71.8002 43.9498 70.5202C45.0698 69.2082 46.3818 68.1842 47.8858 67.4482C49.3898 66.7122 51.0378 66.3442 52.8298 66.3442C54.5898 66.3442 56.2218 66.7122 57.7258 67.4482C59.2618 68.1842 60.5738 69.2082 61.6618 70.5202C62.7818 71.8002 63.6458 73.3362 64.2538 75.1282C64.8938 76.8882 65.2137 78.8242 65.2137 80.9362ZM58.7338 80.9362C58.7338 79.6562 58.5898 78.4882 58.3018 77.4322C58.0138 76.3442 57.5978 75.4162 57.0538 74.6482C56.5418 73.8802 55.9178 73.2882 55.1818 72.8722C54.4778 72.4562 53.6938 72.2482 52.8298 72.2482C51.9338 72.2482 51.1178 72.4562 50.3818 72.8722C49.6778 73.2882 49.0538 73.8802 48.5098 74.6482C47.9978 75.4162 47.5978 76.3442 47.3098 77.4322C47.0218 78.4882 46.8778 79.6562 46.8778 80.9362C46.8778 82.2162 47.0218 83.3842 47.3098 84.4402C47.5978 85.4962 47.9978 86.4082 48.5098 87.1762C49.0538 87.9442 49.6778 88.5362 50.3818 88.9522C51.1178 89.3682 51.9338 89.5762 52.8298 89.5762C53.6938 89.5762 54.4778 89.3682 55.1818 88.9522C55.9178 88.5362 56.5418 87.9442 57.0538 87.1762C57.5978 86.4082 58.0138 85.4962 58.3018 84.4402C58.5898 83.3842 58.7338 82.2162 58.7338 80.9362ZM69.4021 95.0002C69.4021 93.5602 69.5141 92.2642 69.7381 91.1122C69.9621 89.9282 70.3461 88.8402 70.8901 87.8482C71.4661 86.8562 72.2341 85.9282 73.1941 85.0642C74.1861 84.2002 75.4341 83.3522 76.9381 82.5202C78.2501 81.8162 79.4021 81.2082 80.3941 80.6962C81.4181 80.1522 82.2661 79.6562 82.9381 79.2082C83.6101 78.7602 84.1221 78.3122 84.4741 77.8642C84.8261 77.3842 85.0021 76.8402 85.0021 76.2322C85.0021 75.2722 84.6181 74.4562 83.8501 73.7842C83.0821 73.0802 81.9781 72.7282 80.5381 72.7282C79.7701 72.7282 79.0661 72.8402 78.4261 73.0642C77.7861 73.2562 77.1781 73.5282 76.6021 73.8802C76.0581 74.2322 75.5461 74.6322 75.0661 75.0802C74.6181 75.4962 74.2021 75.9442 73.8181 76.4242L69.6901 71.6722C70.1061 71.2242 70.6981 70.7442 71.4661 70.2322C72.2341 69.6882 73.1301 69.1922 74.1541 68.7442C75.2101 68.2642 76.3621 67.8802 77.6101 67.5922C78.8901 67.2722 80.2501 67.1122 81.6901 67.1122C83.3221 67.1122 84.7781 67.3202 86.0581 67.7362C87.3381 68.1202 88.4101 68.6802 89.2741 69.4162C90.1701 70.1202 90.8421 70.9842 91.2901 72.0082C91.7701 73.0002 92.0101 74.0882 92.0101 75.2722C92.0101 76.3922 91.8021 77.3842 91.3861 78.2482C90.9701 79.1122 90.4421 79.8802 89.8021 80.5522C89.1621 81.2242 88.4581 81.8162 87.6901 82.3282C86.9541 82.8082 86.2341 83.2402 85.5301 83.6242C84.9541 83.9442 84.2981 84.3122 83.5621 84.7282C82.8261 85.1442 82.0901 85.6082 81.3541 86.1202C80.6501 86.6002 79.9941 87.1122 79.3861 87.6562C78.7781 88.1682 78.3141 88.6802 77.9941 89.1922H92.5381V95.0002H69.4021ZM96.4959 95.0002C96.4959 93.5602 96.6079 92.2642 96.8319 91.1122C97.0559 89.9282 97.4399 88.8402 97.9839 87.8482C98.5599 86.8562 99.3279 85.9282 100.288 85.0642C101.28 84.2002 102.528 83.3522 104.032 82.5202C105.344 81.8162 106.496 81.2082 107.488 80.6962C108.512 80.1522 109.36 79.6562 110.032 79.2082C110.704 78.7602 111.216 78.3122 111.568 77.8642C111.92 77.3842 112.096 76.8402 112.096 76.2322C112.096 75.2722 111.712 74.4562 110.944 73.7842C110.176 73.0802 109.072 72.7282 107.632 72.7282C106.864 72.7282 106.16 72.8402 105.52 73.0642C104.88 73.2562 104.272 73.5282 103.696 73.8802C103.152 74.2322 102.64 74.6322 102.16 75.0802C101.712 75.4962 101.296 75.9442 100.912 76.4242L96.7839 71.6722C97.1999 71.2242 97.7919 70.7442 98.5599 70.2322C99.3279 69.6882 100.224 69.1922 101.248 68.7442C102.304 68.2642 103.456 67.8802 104.704 67.5922C105.984 67.2722 107.344 67.1122 108.784 67.1122C110.416 67.1122 111.872 67.3202 113.152 67.7362C114.432 68.1202 115.504 68.6802 116.368 69.4162C117.264 70.1202 117.936 70.9842 118.384 72.0082C118.864 73.0002 119.104 74.0882 119.104 75.2722C119.104 76.3922 118.896 77.3842 118.48 78.2482C118.064 79.1122 117.536 79.8802 116.896 80.5522C116.256 81.2242 115.552 81.8162 114.784 82.3282C114.048 82.8082 113.328 83.2402 112.624 83.6242C112.048 83.9442 111.392 84.3122 110.656 84.7282C109.92 85.1442 109.184 85.6082 108.448 86.1202C107.744 86.6002 107.088 87.1122 106.48 87.6562C105.872 88.1682 105.408 88.6802 105.088 89.1922H119.632V95.0002H96.4959Z" fill="#282828"/>
<path d="M22.628 118.706C22.628 119.246 22.52 119.72 22.304 120.128C22.088 120.536 21.788 120.878 21.404 121.154C21.032 121.43 20.594 121.64 20.09 121.784C19.598 121.928 19.07 122 18.506 122H12.332V109.22H19.172C19.616 109.22 20.018 109.316 20.378 109.508C20.738 109.7 21.044 109.952 21.296 110.264C21.548 110.564 21.74 110.912 21.872 111.308C22.016 111.692 22.088 112.082 22.088 112.478C22.088 113.102 21.932 113.69 21.62 114.242C21.308 114.782 20.852 115.184 20.252 115.448C20.984 115.664 21.56 116.054 21.98 116.618C22.412 117.17 22.628 117.866 22.628 118.706ZM20.126 118.238C20.126 118.01 20.084 117.794 20 117.59C19.928 117.374 19.826 117.188 19.694 117.032C19.562 116.876 19.406 116.756 19.226 116.672C19.046 116.576 18.848 116.528 18.632 116.528H14.816V119.894H18.506C18.734 119.894 18.944 119.852 19.136 119.768C19.34 119.684 19.514 119.57 19.658 119.426C19.802 119.27 19.916 119.09 20 118.886C20.084 118.682 20.126 118.466 20.126 118.238ZM14.816 111.344V114.566H18.128C18.548 114.566 18.902 114.422 19.19 114.134C19.49 113.846 19.64 113.45 19.64 112.946C19.64 112.454 19.502 112.064 19.226 111.776C18.962 111.488 18.632 111.344 18.236 111.344H14.816ZM28.7064 122.18C27.9504 122.18 27.2664 122.054 26.6544 121.802C26.0424 121.538 25.5204 121.184 25.0884 120.74C24.6564 120.296 24.3204 119.78 24.0804 119.192C23.8524 118.604 23.7384 117.986 23.7384 117.338C23.7384 116.666 23.8524 116.036 24.0804 115.448C24.3084 114.848 24.6384 114.326 25.0704 113.882C25.5024 113.426 26.0244 113.066 26.6364 112.802C27.2604 112.538 27.9564 112.406 28.7244 112.406C29.4924 112.406 30.1764 112.538 30.7764 112.802C31.3884 113.066 31.9044 113.42 32.3244 113.864C32.7564 114.308 33.0804 114.824 33.2964 115.412C33.5244 116 33.6384 116.612 33.6384 117.248C33.6384 117.404 33.6324 117.554 33.6204 117.698C33.6204 117.842 33.6084 117.962 33.5844 118.058H26.2944C26.3304 118.43 26.4204 118.76 26.5644 119.048C26.7084 119.336 26.8944 119.582 27.1224 119.786C27.3504 119.99 27.6084 120.146 27.8964 120.254C28.1844 120.362 28.4844 120.416 28.7964 120.416C29.2764 120.416 29.7264 120.302 30.1464 120.074C30.5784 119.834 30.8724 119.522 31.0284 119.138L33.0984 119.714C32.7504 120.434 32.1924 121.028 31.4244 121.496C30.6684 121.952 29.7624 122.18 28.7064 122.18ZM31.1544 116.492C31.0944 115.784 30.8304 115.22 30.3624 114.8C29.9064 114.368 29.3484 114.152 28.6884 114.152C28.3644 114.152 28.0584 114.212 27.7704 114.332C27.4944 114.44 27.2484 114.596 27.0324 114.8C26.8164 115.004 26.6364 115.25 26.4924 115.538C26.3604 115.826 26.2824 116.144 26.2584 116.492H31.1544ZM38.6718 122.18C37.8798 122.18 37.1058 122.054 36.3498 121.802C35.5938 121.55 34.9458 121.19 34.4058 120.722L35.3058 119.21C35.8818 119.618 36.4398 119.93 36.9798 120.146C37.5318 120.35 38.0778 120.452 38.6178 120.452C39.0978 120.452 39.4758 120.362 39.7518 120.182C40.0278 120.002 40.1658 119.744 40.1658 119.408C40.1658 119.072 40.0038 118.826 39.6798 118.67C39.3558 118.514 38.8278 118.334 38.0958 118.13C37.4838 117.962 36.9618 117.8 36.5298 117.644C36.0978 117.488 35.7498 117.314 35.4858 117.122C35.2218 116.918 35.0298 116.69 34.9098 116.438C34.7898 116.174 34.7298 115.862 34.7298 115.502C34.7298 115.022 34.8198 114.59 34.9998 114.206C35.1918 113.822 35.4558 113.498 35.7918 113.234C36.1278 112.958 36.5178 112.748 36.9618 112.604C37.4178 112.46 37.9098 112.388 38.4378 112.388C39.1458 112.388 39.8058 112.49 40.4178 112.694C41.0418 112.898 41.6118 113.228 42.1278 113.684L41.1558 115.142C40.6758 114.782 40.2078 114.518 39.7518 114.35C39.3078 114.182 38.8638 114.098 38.4198 114.098C38.0118 114.098 37.6698 114.182 37.3938 114.35C37.1178 114.518 36.9798 114.788 36.9798 115.16C36.9798 115.328 37.0098 115.466 37.0698 115.574C37.1418 115.682 37.2498 115.778 37.3938 115.862C37.5378 115.946 37.7238 116.03 37.9518 116.114C38.1918 116.186 38.4858 116.264 38.8338 116.348C39.4818 116.516 40.0338 116.684 40.4898 116.852C40.9578 117.02 41.3358 117.212 41.6238 117.428C41.9238 117.644 42.1398 117.896 42.2718 118.184C42.4158 118.46 42.4878 118.796 42.4878 119.192C42.4878 120.116 42.1458 120.848 41.4618 121.388C40.7778 121.916 39.8478 122.18 38.6718 122.18ZM49.707 121.514C49.383 121.658 48.987 121.802 48.519 121.946C48.051 122.09 47.559 122.162 47.043 122.162C46.707 122.162 46.389 122.12 46.089 122.036C45.801 121.952 45.543 121.82 45.315 121.64C45.099 121.448 44.925 121.208 44.793 120.92C44.661 120.62 44.595 120.26 44.595 119.84V114.422H43.353V112.568H44.595V109.508H47.007V112.568H48.987V114.422H47.007V119.03C47.007 119.366 47.091 119.606 47.259 119.75C47.439 119.882 47.655 119.948 47.907 119.948C48.159 119.948 48.405 119.906 48.645 119.822C48.885 119.738 49.077 119.666 49.221 119.606L49.707 121.514ZM59.6435 122.18C58.8755 122.18 58.1855 122.048 57.5735 121.784C56.9615 121.52 56.4395 121.166 56.0075 120.722C55.5875 120.266 55.2635 119.744 55.0355 119.156C54.8075 118.568 54.6935 117.95 54.6935 117.302C54.6935 116.642 54.8075 116.018 55.0355 115.43C55.2635 114.842 55.5875 114.326 56.0075 113.882C56.4395 113.426 56.9615 113.066 57.5735 112.802C58.1855 112.538 58.8755 112.406 59.6435 112.406C60.4115 112.406 61.0955 112.538 61.6955 112.802C62.3075 113.066 62.8235 113.426 63.2435 113.882C63.6755 114.326 64.0055 114.842 64.2335 115.43C64.4615 116.018 64.5755 116.642 64.5755 117.302C64.5755 117.95 64.4615 118.568 64.2335 119.156C64.0055 119.744 63.6815 120.266 63.2615 120.722C62.8415 121.166 62.3255 121.52 61.7135 121.784C61.1015 122.048 60.4115 122.18 59.6435 122.18ZM57.1775 117.302C57.1775 117.722 57.2375 118.106 57.3575 118.454C57.4895 118.79 57.6635 119.084 57.8795 119.336C58.1075 119.588 58.3715 119.786 58.6715 119.93C58.9715 120.062 59.2955 120.128 59.6435 120.128C59.9915 120.128 60.3155 120.062 60.6155 119.93C60.9155 119.786 61.1735 119.588 61.3895 119.336C61.6175 119.084 61.7915 118.784 61.9115 118.436C62.0435 118.088 62.1095 117.704 62.1095 117.284C62.1095 116.876 62.0435 116.498 61.9115 116.15C61.7915 115.802 61.6175 115.502 61.3895 115.25C61.1735 114.998 60.9155 114.806 60.6155 114.674C60.3155 114.53 59.9915 114.458 59.6435 114.458C59.2955 114.458 58.9715 114.53 58.6715 114.674C58.3715 114.818 58.1075 115.016 57.8795 115.268C57.6635 115.52 57.4895 115.82 57.3575 116.168C57.2375 116.516 57.1775 116.894 57.1775 117.302ZM66.6388 122V114.908H65.3968V113.072H66.6388V112.496C66.6388 111.32 66.9208 110.39 67.4848 109.706C68.0488 109.022 68.8168 108.68 69.7888 108.68C70.5568 108.68 71.3308 108.866 72.1108 109.238L71.6248 111.056C71.4448 110.96 71.2288 110.882 70.9768 110.822C70.7368 110.75 70.5148 110.714 70.3108 110.714C69.4708 110.714 69.0508 111.278 69.0508 112.406V113.072H71.3548V114.908H69.0508V122H66.6388ZM87.6425 109.22V122H85.1765V116.546H79.3805V122H76.8965V109.22H79.3805V114.386H85.1765V109.22H87.6425ZM94.3075 122.18C93.5395 122.18 92.8495 122.048 92.2375 121.784C91.6255 121.52 91.1035 121.166 90.6715 120.722C90.2515 120.266 89.9275 119.744 89.6995 119.156C89.4715 118.568 89.3575 117.95 89.3575 117.302C89.3575 116.642 89.4715 116.018 89.6995 115.43C89.9275 114.842 90.2515 114.326 90.6715 113.882C91.1035 113.426 91.6255 113.066 92.2375 112.802C92.8495 112.538 93.5395 112.406 94.3075 112.406C95.0755 112.406 95.7595 112.538 96.3595 112.802C96.9715 113.066 97.4875 113.426 97.9075 113.882C98.3395 114.326 98.6695 114.842 98.8975 115.43C99.1255 116.018 99.2395 116.642 99.2395 117.302C99.2395 117.95 99.1255 118.568 98.8975 119.156C98.6695 119.744 98.3455 120.266 97.9255 120.722C97.5055 121.166 96.9895 121.52 96.3775 121.784C95.7655 122.048 95.0755 122.18 94.3075 122.18ZM91.8415 117.302C91.8415 117.722 91.9015 118.106 92.0215 118.454C92.1535 118.79 92.3275 119.084 92.5435 119.336C92.7715 119.588 93.0355 119.786 93.3355 119.93C93.6355 120.062 93.9595 120.128 94.3075 120.128C94.6555 120.128 94.9795 120.062 95.2795 119.93C95.5795 119.786 95.8375 119.588 96.0535 119.336C96.2815 119.084 96.4555 118.784 96.5755 118.436C96.7075 118.088 96.7735 117.704 96.7735 117.284C96.7735 116.876 96.7075 116.498 96.5755 116.15C96.4555 115.802 96.2815 115.502 96.0535 115.25C95.8375 114.998 95.5795 114.806 95.2795 114.674C94.9795 114.53 94.6555 114.458 94.3075 114.458C93.9595 114.458 93.6355 114.53 93.3355 114.674C93.0355 114.818 92.7715 115.016 92.5435 115.268C92.3275 115.52 92.1535 115.82 92.0215 116.168C91.9015 116.516 91.8415 116.894 91.8415 117.302ZM103.748 122.18C102.776 122.18 102.038 121.868 101.534 121.244C101.03 120.62 100.778 119.696 100.778 118.472V112.568H103.19V117.95C103.19 119.402 103.712 120.128 104.756 120.128C105.224 120.128 105.674 119.99 106.106 119.714C106.55 119.426 106.91 118.994 107.186 118.418V112.568H109.598V119.228C109.598 119.48 109.64 119.66 109.724 119.768C109.82 119.876 109.97 119.936 110.174 119.948V122C109.934 122.048 109.73 122.078 109.562 122.09C109.406 122.102 109.262 122.108 109.13 122.108C108.698 122.108 108.344 122.012 108.068 121.82C107.804 121.616 107.648 121.34 107.6 120.992L107.546 120.236C107.126 120.884 106.586 121.37 105.926 121.694C105.266 122.018 104.54 122.18 103.748 122.18ZM111.364 120.524L116.62 114.26H111.58V112.568H119.158V114.044L113.938 120.308H119.248V122H111.364V120.524ZM120.241 120.524L125.497 114.26H120.457V112.568H128.035V114.044L122.815 120.308H128.125V122H120.241V120.524ZM19.946 130.568C19.862 130.484 19.706 130.37 19.478 130.226C19.262 130.082 18.992 129.944 18.668 129.812C18.356 129.668 18.014 129.548 17.642 129.452C17.27 129.356 16.892 129.308 16.508 129.308C15.824 129.308 15.314 129.434 14.978 129.686C14.642 129.938 14.474 130.292 14.474 130.748C14.474 131.012 14.534 131.234 14.654 131.414C14.786 131.582 14.972 131.732 15.212 131.864C15.452 131.996 15.752 132.116 16.112 132.224C16.484 132.332 16.91 132.446 17.39 132.566C18.014 132.734 18.578 132.914 19.082 133.106C19.598 133.298 20.03 133.538 20.378 133.826C20.738 134.114 21.014 134.462 21.206 134.87C21.398 135.266 21.494 135.758 21.494 136.346C21.494 137.03 21.362 137.618 21.098 138.11C20.846 138.59 20.498 138.98 20.054 139.28C19.622 139.58 19.118 139.802 18.542 139.946C17.978 140.078 17.384 140.144 16.76 140.144C15.8 140.144 14.852 140 13.916 139.712C12.98 139.424 12.14 139.016 11.396 138.488L12.494 136.346C12.602 136.454 12.794 136.598 13.07 136.778C13.358 136.946 13.694 137.12 14.078 137.3C14.462 137.468 14.888 137.612 15.356 137.732C15.824 137.852 16.304 137.912 16.796 137.912C18.164 137.912 18.848 137.474 18.848 136.598C18.848 136.322 18.77 136.088 18.614 135.896C18.458 135.704 18.236 135.536 17.948 135.392C17.66 135.248 17.312 135.116 16.904 134.996C16.496 134.876 16.04 134.744 15.536 134.6C14.924 134.432 14.39 134.252 13.934 134.06C13.49 133.856 13.118 133.622 12.818 133.358C12.518 133.082 12.29 132.77 12.134 132.422C11.99 132.062 11.918 131.636 11.918 131.144C11.918 130.496 12.038 129.92 12.278 129.416C12.518 128.912 12.848 128.492 13.268 128.156C13.7 127.82 14.198 127.568 14.762 127.4C15.326 127.22 15.932 127.13 16.58 127.13C17.48 127.13 18.308 127.274 19.064 127.562C19.82 127.838 20.48 128.168 21.044 128.552L19.946 130.568ZM27.5111 140.18C26.7551 140.18 26.0711 140.054 25.4591 139.802C24.8471 139.538 24.3251 139.184 23.8931 138.74C23.4611 138.296 23.1251 137.78 22.8851 137.192C22.6571 136.604 22.5431 135.986 22.5431 135.338C22.5431 134.666 22.6571 134.036 22.8851 133.448C23.1131 132.848 23.4431 132.326 23.8751 131.882C24.3071 131.426 24.8291 131.066 25.4411 130.802C26.0651 130.538 26.7611 130.406 27.5291 130.406C28.2971 130.406 28.9811 130.538 29.5811 130.802C30.1931 131.066 30.7091 131.42 31.1291 131.864C31.5611 132.308 31.8851 132.824 32.1011 133.412C32.3291 134 32.4431 134.612 32.4431 135.248C32.4431 135.404 32.4371 135.554 32.4251 135.698C32.4251 135.842 32.4131 135.962 32.3891 136.058H25.0991C25.1351 136.43 25.2251 136.76 25.3691 137.048C25.5131 137.336 25.6991 137.582 25.9271 137.786C26.1551 137.99 26.4131 138.146 26.7011 138.254C26.9891 138.362 27.2891 138.416 27.6011 138.416C28.0811 138.416 28.5311 138.302 28.9511 138.074C29.3831 137.834 29.6771 137.522 29.8331 137.138L31.9031 137.714C31.5551 138.434 30.9971 139.028 30.2291 139.496C29.4731 139.952 28.5671 140.18 27.5111 140.18ZM29.9591 134.492C29.8991 133.784 29.6351 133.22 29.1671 132.8C28.7111 132.368 28.1531 132.152 27.4931 132.152C27.1691 132.152 26.8631 132.212 26.5751 132.332C26.2991 132.44 26.0531 132.596 25.8371 132.8C25.6211 133.004 25.4411 133.25 25.2971 133.538C25.1651 133.826 25.0871 134.144 25.0631 134.492H29.9591ZM39.5285 132.656C38.7965 132.668 38.1425 132.812 37.5665 133.088C36.9905 133.352 36.5765 133.754 36.3245 134.294V140H33.9125V130.568H36.1265V132.584C36.2945 132.26 36.4925 131.972 36.7205 131.72C36.9485 131.456 37.1945 131.228 37.4585 131.036C37.7225 130.844 37.9865 130.7 38.2505 130.604C38.5265 130.496 38.7905 130.442 39.0425 130.442C39.1745 130.442 39.2705 130.442 39.3305 130.442C39.4025 130.442 39.4685 130.448 39.5285 130.46V132.656ZM43.4114 140L39.9374 130.568H42.4214L44.8154 138.038L47.2274 130.568H49.4954L46.0214 140H43.4114ZM50.7523 140V130.568H53.1643V140H50.7523ZM50.7523 129.254V126.86H53.1643V129.254H50.7523ZM54.7462 135.284C54.7462 134.624 54.8602 134 55.0882 133.412C55.3162 132.824 55.6462 132.308 56.0782 131.864C56.5102 131.42 57.0322 131.066 57.6442 130.802C58.2562 130.538 58.9462 130.406 59.7142 130.406C60.7462 130.406 61.6222 130.628 62.3422 131.072C63.0742 131.516 63.6202 132.098 63.9802 132.818L61.6222 133.538C61.4182 133.19 61.1482 132.926 60.8122 132.746C60.4762 132.554 60.1042 132.458 59.6962 132.458C59.3482 132.458 59.0242 132.53 58.7242 132.674C58.4242 132.806 58.1602 132.998 57.9322 133.25C57.7162 133.49 57.5422 133.784 57.4102 134.132C57.2902 134.48 57.2302 134.864 57.2302 135.284C57.2302 135.704 57.2962 136.088 57.4282 136.436C57.5602 136.784 57.7342 137.084 57.9502 137.336C58.1782 137.588 58.4422 137.786 58.7422 137.93C59.0422 138.062 59.3602 138.128 59.6962 138.128C60.1282 138.128 60.5242 138.02 60.8842 137.804C61.2562 137.588 61.5142 137.324 61.6582 137.012L64.0162 137.732C63.6922 138.452 63.1582 139.04 62.4142 139.496C61.6702 139.952 60.7762 140.18 59.7322 140.18C58.9642 140.18 58.2742 140.048 57.6622 139.784C57.0502 139.52 56.5282 139.166 56.0962 138.722C55.6642 138.266 55.3282 137.744 55.0882 137.156C54.8602 136.556 54.7462 135.932 54.7462 135.284ZM69.7865 140.18C69.0305 140.18 68.3465 140.054 67.7345 139.802C67.1225 139.538 66.6005 139.184 66.1685 138.74C65.7365 138.296 65.4005 137.78 65.1605 137.192C64.9325 136.604 64.8185 135.986 64.8185 135.338C64.8185 134.666 64.9325 134.036 65.1605 133.448C65.3885 132.848 65.7185 132.326 66.1505 131.882C66.5825 131.426 67.1045 131.066 67.7165 130.802C68.3405 130.538 69.0365 130.406 69.8045 130.406C70.5725 130.406 71.2565 130.538 71.8565 130.802C72.4685 131.066 72.9845 131.42 73.4045 131.864C73.8365 132.308 74.1605 132.824 74.3765 133.412C74.6045 134 74.7185 134.612 74.7185 135.248C74.7185 135.404 74.7125 135.554 74.7005 135.698C74.7005 135.842 74.6885 135.962 74.6645 136.058H67.3745C67.4105 136.43 67.5005 136.76 67.6445 137.048C67.7885 137.336 67.9745 137.582 68.2025 137.786C68.4305 137.99 68.6885 138.146 68.9765 138.254C69.2645 138.362 69.5645 138.416 69.8765 138.416C70.3565 138.416 70.8065 138.302 71.2265 138.074C71.6585 137.834 71.9525 137.522 72.1085 137.138L74.1785 137.714C73.8305 138.434 73.2725 139.028 72.5045 139.496C71.7485 139.952 70.8425 140.18 69.7865 140.18ZM72.2345 134.492C72.1745 133.784 71.9105 133.22 71.4425 132.8C70.9865 132.368 70.4285 132.152 69.7685 132.152C69.4445 132.152 69.1385 132.212 68.8505 132.332C68.5745 132.44 68.3285 132.596 68.1125 132.8C67.8965 133.004 67.7165 133.25 67.5725 133.538C67.4405 133.826 67.3625 134.144 67.3385 134.492H72.2345Z" fill="#282828"/>
</g>
<defs>
<clipPath id="clip0_161_9355">
<rect width="154" height="151" fill="white"/>
</clipPath>
</defs>
</svg>
