<svg width="151" height="150" viewBox="0 0 151 150" fill="none" xmlns="http://www.w3.org/2000/svg">
<path d="M150.5 42.5L0 0V150H150.5V42.5Z" fill="#FFBD2B"/>
<path d="M16.5 13.5H11V35.5H18.5V28.5H24V35.5H31V23L16.5 18.5V13.5Z" fill="white"/>
<path d="M12.824 94.4997C12.824 93.0597 12.936 91.7637 13.16 90.6117C13.384 89.4277 13.768 88.3397 14.312 87.3477C14.888 86.3557 15.656 85.4278 16.616 84.5638C17.608 83.6998 18.856 82.8517 20.36 82.0197C21.672 81.3157 22.824 80.7077 23.816 80.1957C24.84 79.6517 25.688 79.1557 26.36 78.7077C27.032 78.2597 27.544 77.8117 27.896 77.3637C28.248 76.8837 28.424 76.3398 28.424 75.7318C28.424 74.7718 28.04 73.9557 27.272 73.2837C26.504 72.5797 25.4 72.2277 23.96 72.2277C23.192 72.2277 22.488 72.3398 21.848 72.5638C21.208 72.7558 20.6 73.0277 20.024 73.3797C19.48 73.7317 18.968 74.1318 18.488 74.5798C18.04 74.9958 17.624 75.4438 17.24 75.9238L13.112 71.1717C13.528 70.7237 14.12 70.2438 14.888 69.7318C15.656 69.1878 16.552 68.6918 17.576 68.2438C18.632 67.7638 19.784 67.3798 21.032 67.0918C22.312 66.7718 23.672 66.6117 25.112 66.6117C26.744 66.6117 28.2 66.8197 29.48 67.2357C30.76 67.6197 31.832 68.1797 32.696 68.9157C33.592 69.6197 34.264 70.4838 34.712 71.5078C35.192 72.4998 35.432 73.5878 35.432 74.7718C35.432 75.8918 35.224 76.8837 34.808 77.7477C34.392 78.6117 33.864 79.3798 33.224 80.0518C32.584 80.7238 31.88 81.3158 31.112 81.8278C30.376 82.3078 29.656 82.7397 28.952 83.1237C28.376 83.4437 27.72 83.8117 26.984 84.2277C26.248 84.6437 25.512 85.1078 24.776 85.6198C24.072 86.0998 23.416 86.6117 22.808 87.1557C22.2 87.6677 21.736 88.1798 21.416 88.6917H35.96V94.4997H12.824ZM65.2137 80.4357C65.2137 82.5477 64.8938 84.4997 64.2538 86.2917C63.6458 88.0517 62.7818 89.5877 61.6618 90.8997C60.5738 92.1798 59.2618 93.1878 57.7258 93.9238C56.2218 94.6278 54.5898 94.9798 52.8298 94.9798C51.0378 94.9798 49.3898 94.6278 47.8858 93.9238C46.3818 93.1878 45.0698 92.1798 43.9498 90.8997C42.8618 89.5877 41.9978 88.0517 41.3578 86.2917C40.7498 84.4997 40.4458 82.5477 40.4458 80.4357C40.4458 78.3237 40.7498 76.3877 41.3578 74.6277C41.9978 72.8357 42.8618 71.2997 43.9498 70.0197C45.0698 68.7077 46.3818 67.6837 47.8858 66.9477C49.3898 66.2117 51.0378 65.8438 52.8298 65.8438C54.5898 65.8438 56.2218 66.2117 57.7258 66.9477C59.2618 67.6837 60.5738 68.7077 61.6618 70.0197C62.7818 71.2997 63.6458 72.8357 64.2538 74.6277C64.8938 76.3877 65.2137 78.3237 65.2137 80.4357ZM58.7338 80.4357C58.7338 79.1557 58.5898 77.9877 58.3018 76.9317C58.0138 75.8437 57.5978 74.9158 57.0538 74.1478C56.5418 73.3798 55.9178 72.7877 55.1818 72.3717C54.4778 71.9557 53.6938 71.7477 52.8298 71.7477C51.9338 71.7477 51.1178 71.9557 50.3818 72.3717C49.6778 72.7877 49.0538 73.3798 48.5098 74.1478C47.9978 74.9158 47.5978 75.8437 47.3098 76.9317C47.0218 77.9877 46.8778 79.1557 46.8778 80.4357C46.8778 81.7157 47.0218 82.8838 47.3098 83.9398C47.5978 84.9958 47.9978 85.9078 48.5098 86.6758C49.0538 87.4438 49.6778 88.0358 50.3818 88.4518C51.1178 88.8678 51.9338 89.0757 52.8298 89.0757C53.6938 89.0757 54.4778 88.8678 55.1818 88.4518C55.9178 88.0358 56.5418 87.4438 57.0538 86.6758C57.5978 85.9078 58.0138 84.9958 58.3018 83.9398C58.5898 82.8838 58.7338 81.7157 58.7338 80.4357ZM69.4021 94.4997C69.4021 93.0597 69.5141 91.7637 69.7381 90.6117C69.9621 89.4277 70.3461 88.3397 70.8901 87.3477C71.4661 86.3557 72.2341 85.4278 73.1941 84.5638C74.1861 83.6998 75.4341 82.8517 76.9381 82.0197C78.2501 81.3157 79.4021 80.7077 80.3941 80.1957C81.4181 79.6517 82.2661 79.1557 82.9381 78.7077C83.6101 78.2597 84.1221 77.8117 84.4741 77.3637C84.8261 76.8837 85.0021 76.3398 85.0021 75.7318C85.0021 74.7718 84.6181 73.9557 83.8501 73.2837C83.0821 72.5797 81.9781 72.2277 80.5381 72.2277C79.7701 72.2277 79.0661 72.3398 78.4261 72.5638C77.7861 72.7558 77.1781 73.0277 76.6021 73.3797C76.0581 73.7317 75.5461 74.1318 75.0661 74.5798C74.6181 74.9958 74.2021 75.4438 73.8181 75.9238L69.6901 71.1717C70.1061 70.7237 70.6981 70.2438 71.4661 69.7318C72.2341 69.1878 73.1301 68.6918 74.1541 68.2438C75.2101 67.7638 76.3621 67.3798 77.6101 67.0918C78.8901 66.7718 80.2501 66.6117 81.6901 66.6117C83.3221 66.6117 84.7781 66.8197 86.0581 67.2357C87.3381 67.6197 88.4101 68.1797 89.2741 68.9157C90.1701 69.6197 90.8421 70.4838 91.2901 71.5078C91.7701 72.4998 92.0101 73.5878 92.0101 74.7718C92.0101 75.8918 91.8021 76.8837 91.3861 77.7477C90.9701 78.6117 90.4421 79.3798 89.8021 80.0518C89.1621 80.7238 88.4581 81.3158 87.6901 81.8278C86.9541 82.3078 86.2341 82.7397 85.5301 83.1237C84.9541 83.4437 84.2981 83.8117 83.5621 84.2277C82.8261 84.6437 82.0901 85.1078 81.3541 85.6198C80.6501 86.0998 79.9941 86.6117 79.3861 87.1557C78.7781 87.6677 78.3141 88.1798 77.9941 88.6917H92.5381V94.4997H69.4021ZM117.232 88.6917V94.4997H97.7439V88.6917H104.56V74.1478C104.272 74.5318 103.808 74.9317 103.168 75.3477C102.56 75.7317 101.888 76.0998 101.152 76.4518C100.416 76.8038 99.6479 77.0918 98.8479 77.3158C98.0799 77.5398 97.3919 77.6517 96.7839 77.6517V71.6517C97.3599 71.6517 98.0639 71.4757 98.8959 71.1237C99.7279 70.7397 100.544 70.2917 101.344 69.7797C102.144 69.2677 102.832 68.7717 103.408 68.2917C104.016 67.7797 104.4 67.3798 104.56 67.0918H111.136V88.6917H117.232Z" fill="#282828"/>
<path d="M22.628 118.206C22.628 118.746 22.52 119.22 22.304 119.628C22.088 120.036 21.788 120.378 21.404 120.654C21.032 120.93 20.594 121.14 20.09 121.284C19.598 121.428 19.07 121.5 18.506 121.5H12.332V108.72H19.172C19.616 108.72 20.018 108.816 20.378 109.008C20.738 109.2 21.044 109.452 21.296 109.764C21.548 110.064 21.74 110.412 21.872 110.808C22.016 111.192 22.088 111.582 22.088 111.978C22.088 112.602 21.932 113.19 21.62 113.742C21.308 114.282 20.852 114.684 20.252 114.948C20.984 115.164 21.56 115.554 21.98 116.118C22.412 116.67 22.628 117.366 22.628 118.206ZM20.126 117.738C20.126 117.51 20.084 117.294 20 117.09C19.928 116.874 19.826 116.688 19.694 116.532C19.562 116.376 19.406 116.256 19.226 116.172C19.046 116.076 18.848 116.028 18.632 116.028H14.816V119.394H18.506C18.734 119.394 18.944 119.352 19.136 119.268C19.34 119.184 19.514 119.07 19.658 118.926C19.802 118.77 19.916 118.59 20 118.386C20.084 118.182 20.126 117.966 20.126 117.738ZM14.816 110.844V114.066H18.128C18.548 114.066 18.902 113.922 19.19 113.634C19.49 113.346 19.64 112.95 19.64 112.446C19.64 111.954 19.502 111.564 19.226 111.276C18.962 110.988 18.632 110.844 18.236 110.844H14.816ZM28.7064 121.68C27.9504 121.68 27.2664 121.554 26.6544 121.302C26.0424 121.038 25.5204 120.684 25.0884 120.24C24.6564 119.796 24.3204 119.28 24.0804 118.692C23.8524 118.104 23.7384 117.486 23.7384 116.838C23.7384 116.166 23.8524 115.536 24.0804 114.948C24.3084 114.348 24.6384 113.826 25.0704 113.382C25.5024 112.926 26.0244 112.566 26.6364 112.302C27.2604 112.038 27.9564 111.906 28.7244 111.906C29.4924 111.906 30.1764 112.038 30.7764 112.302C31.3884 112.566 31.9044 112.92 32.3244 113.364C32.7564 113.808 33.0804 114.324 33.2964 114.912C33.5244 115.5 33.6384 116.112 33.6384 116.748C33.6384 116.904 33.6324 117.054 33.6204 117.198C33.6204 117.342 33.6084 117.462 33.5844 117.558H26.2944C26.3304 117.93 26.4204 118.26 26.5644 118.548C26.7084 118.836 26.8944 119.082 27.1224 119.286C27.3504 119.49 27.6084 119.646 27.8964 119.754C28.1844 119.862 28.4844 119.916 28.7964 119.916C29.2764 119.916 29.7264 119.802 30.1464 119.574C30.5784 119.334 30.8724 119.022 31.0284 118.638L33.0984 119.214C32.7504 119.934 32.1924 120.528 31.4244 120.996C30.6684 121.452 29.7624 121.68 28.7064 121.68ZM31.1544 115.992C31.0944 115.284 30.8304 114.72 30.3624 114.3C29.9064 113.868 29.3484 113.652 28.6884 113.652C28.3644 113.652 28.0584 113.712 27.7704 113.832C27.4944 113.94 27.2484 114.096 27.0324 114.3C26.8164 114.504 26.6364 114.75 26.4924 115.038C26.3604 115.326 26.2824 115.644 26.2584 115.992H31.1544ZM38.6718 121.68C37.8798 121.68 37.1058 121.554 36.3498 121.302C35.5938 121.05 34.9458 120.69 34.4058 120.222L35.3058 118.71C35.8818 119.118 36.4398 119.43 36.9798 119.646C37.5318 119.85 38.0778 119.952 38.6178 119.952C39.0978 119.952 39.4758 119.862 39.7518 119.682C40.0278 119.502 40.1658 119.244 40.1658 118.908C40.1658 118.572 40.0038 118.326 39.6798 118.17C39.3558 118.014 38.8278 117.834 38.0958 117.63C37.4838 117.462 36.9618 117.3 36.5298 117.144C36.0978 116.988 35.7498 116.814 35.4858 116.622C35.2218 116.418 35.0298 116.19 34.9098 115.938C34.7898 115.674 34.7298 115.362 34.7298 115.002C34.7298 114.522 34.8198 114.09 34.9998 113.706C35.1918 113.322 35.4558 112.998 35.7918 112.734C36.1278 112.458 36.5178 112.248 36.9618 112.104C37.4178 111.96 37.9098 111.888 38.4378 111.888C39.1458 111.888 39.8058 111.99 40.4178 112.194C41.0418 112.398 41.6118 112.728 42.1278 113.184L41.1558 114.642C40.6758 114.282 40.2078 114.018 39.7518 113.85C39.3078 113.682 38.8638 113.598 38.4198 113.598C38.0118 113.598 37.6698 113.682 37.3938 113.85C37.1178 114.018 36.9798 114.288 36.9798 114.66C36.9798 114.828 37.0098 114.966 37.0698 115.074C37.1418 115.182 37.2498 115.278 37.3938 115.362C37.5378 115.446 37.7238 115.53 37.9518 115.614C38.1918 115.686 38.4858 115.764 38.8338 115.848C39.4818 116.016 40.0338 116.184 40.4898 116.352C40.9578 116.52 41.3358 116.712 41.6238 116.928C41.9238 117.144 42.1398 117.396 42.2718 117.684C42.4158 117.96 42.4878 118.296 42.4878 118.692C42.4878 119.616 42.1458 120.348 41.4618 120.888C40.7778 121.416 39.8478 121.68 38.6718 121.68ZM49.707 121.014C49.383 121.158 48.987 121.302 48.519 121.446C48.051 121.59 47.559 121.662 47.043 121.662C46.707 121.662 46.389 121.62 46.089 121.536C45.801 121.452 45.543 121.32 45.315 121.14C45.099 120.948 44.925 120.708 44.793 120.42C44.661 120.12 44.595 119.76 44.595 119.34V113.922H43.353V112.068H44.595V109.008H47.007V112.068H48.987V113.922H47.007V118.53C47.007 118.866 47.091 119.106 47.259 119.25C47.439 119.382 47.655 119.448 47.907 119.448C48.159 119.448 48.405 119.406 48.645 119.322C48.885 119.238 49.077 119.166 49.221 119.106L49.707 121.014ZM59.6435 121.68C58.8755 121.68 58.1855 121.548 57.5735 121.284C56.9615 121.02 56.4395 120.666 56.0075 120.222C55.5875 119.766 55.2635 119.244 55.0355 118.656C54.8075 118.068 54.6935 117.45 54.6935 116.802C54.6935 116.142 54.8075 115.518 55.0355 114.93C55.2635 114.342 55.5875 113.826 56.0075 113.382C56.4395 112.926 56.9615 112.566 57.5735 112.302C58.1855 112.038 58.8755 111.906 59.6435 111.906C60.4115 111.906 61.0955 112.038 61.6955 112.302C62.3075 112.566 62.8235 112.926 63.2435 113.382C63.6755 113.826 64.0055 114.342 64.2335 114.93C64.4615 115.518 64.5755 116.142 64.5755 116.802C64.5755 117.45 64.4615 118.068 64.2335 118.656C64.0055 119.244 63.6815 119.766 63.2615 120.222C62.8415 120.666 62.3255 121.02 61.7135 121.284C61.1015 121.548 60.4115 121.68 59.6435 121.68ZM57.1775 116.802C57.1775 117.222 57.2375 117.606 57.3575 117.954C57.4895 118.29 57.6635 118.584 57.8795 118.836C58.1075 119.088 58.3715 119.286 58.6715 119.43C58.9715 119.562 59.2955 119.628 59.6435 119.628C59.9915 119.628 60.3155 119.562 60.6155 119.43C60.9155 119.286 61.1735 119.088 61.3895 118.836C61.6175 118.584 61.7915 118.284 61.9115 117.936C62.0435 117.588 62.1095 117.204 62.1095 116.784C62.1095 116.376 62.0435 115.998 61.9115 115.65C61.7915 115.302 61.6175 115.002 61.3895 114.75C61.1735 114.498 60.9155 114.306 60.6155 114.174C60.3155 114.03 59.9915 113.958 59.6435 113.958C59.2955 113.958 58.9715 114.03 58.6715 114.174C58.3715 114.318 58.1075 114.516 57.8795 114.768C57.6635 115.02 57.4895 115.32 57.3575 115.668C57.2375 116.016 57.1775 116.394 57.1775 116.802ZM66.6388 121.5V114.408H65.3968V112.572H66.6388V111.996C66.6388 110.82 66.9208 109.89 67.4848 109.206C68.0488 108.522 68.8168 108.18 69.7888 108.18C70.5568 108.18 71.3308 108.366 72.1108 108.738L71.6248 110.556C71.4448 110.46 71.2288 110.382 70.9768 110.322C70.7368 110.25 70.5148 110.214 70.3108 110.214C69.4708 110.214 69.0508 110.778 69.0508 111.906V112.572H71.3548V114.408H69.0508V121.5H66.6388ZM87.6425 108.72V121.5H85.1765V116.046H79.3805V121.5H76.8965V108.72H79.3805V113.886H85.1765V108.72H87.6425ZM94.3075 121.68C93.5395 121.68 92.8495 121.548 92.2375 121.284C91.6255 121.02 91.1035 120.666 90.6715 120.222C90.2515 119.766 89.9275 119.244 89.6995 118.656C89.4715 118.068 89.3575 117.45 89.3575 116.802C89.3575 116.142 89.4715 115.518 89.6995 114.93C89.9275 114.342 90.2515 113.826 90.6715 113.382C91.1035 112.926 91.6255 112.566 92.2375 112.302C92.8495 112.038 93.5395 111.906 94.3075 111.906C95.0755 111.906 95.7595 112.038 96.3595 112.302C96.9715 112.566 97.4875 112.926 97.9075 113.382C98.3395 113.826 98.6695 114.342 98.8975 114.93C99.1255 115.518 99.2395 116.142 99.2395 116.802C99.2395 117.45 99.1255 118.068 98.8975 118.656C98.6695 119.244 98.3455 119.766 97.9255 120.222C97.5055 120.666 96.9895 121.02 96.3775 121.284C95.7655 121.548 95.0755 121.68 94.3075 121.68ZM91.8415 116.802C91.8415 117.222 91.9015 117.606 92.0215 117.954C92.1535 118.29 92.3275 118.584 92.5435 118.836C92.7715 119.088 93.0355 119.286 93.3355 119.43C93.6355 119.562 93.9595 119.628 94.3075 119.628C94.6555 119.628 94.9795 119.562 95.2795 119.43C95.5795 119.286 95.8375 119.088 96.0535 118.836C96.2815 118.584 96.4555 118.284 96.5755 117.936C96.7075 117.588 96.7735 117.204 96.7735 116.784C96.7735 116.376 96.7075 115.998 96.5755 115.65C96.4555 115.302 96.2815 115.002 96.0535 114.75C95.8375 114.498 95.5795 114.306 95.2795 114.174C94.9795 114.03 94.6555 113.958 94.3075 113.958C93.9595 113.958 93.6355 114.03 93.3355 114.174C93.0355 114.318 92.7715 114.516 92.5435 114.768C92.3275 115.02 92.1535 115.32 92.0215 115.668C91.9015 116.016 91.8415 116.394 91.8415 116.802ZM103.748 121.68C102.776 121.68 102.038 121.368 101.534 120.744C101.03 120.12 100.778 119.196 100.778 117.972V112.068H103.19V117.45C103.19 118.902 103.712 119.628 104.756 119.628C105.224 119.628 105.674 119.49 106.106 119.214C106.55 118.926 106.91 118.494 107.186 117.918V112.068H109.598V118.728C109.598 118.98 109.64 119.16 109.724 119.268C109.82 119.376 109.97 119.436 110.174 119.448V121.5C109.934 121.548 109.73 121.578 109.562 121.59C109.406 121.602 109.262 121.608 109.13 121.608C108.698 121.608 108.344 121.512 108.068 121.32C107.804 121.116 107.648 120.84 107.6 120.492L107.546 119.736C107.126 120.384 106.586 120.87 105.926 121.194C105.266 121.518 104.54 121.68 103.748 121.68ZM111.364 120.024L116.62 113.76H111.58V112.068H119.158V113.544L113.938 119.808H119.248V121.5H111.364V120.024ZM120.241 120.024L125.497 113.76H120.457V112.068H128.035V113.544L122.815 119.808H128.125V121.5H120.241V120.024ZM19.946 130.068C19.862 129.984 19.706 129.87 19.478 129.726C19.262 129.582 18.992 129.444 18.668 129.312C18.356 129.168 18.014 129.048 17.642 128.952C17.27 128.856 16.892 128.808 16.508 128.808C15.824 128.808 15.314 128.934 14.978 129.186C14.642 129.438 14.474 129.792 14.474 130.248C14.474 130.512 14.534 130.734 14.654 130.914C14.786 131.082 14.972 131.232 15.212 131.364C15.452 131.496 15.752 131.616 16.112 131.724C16.484 131.832 16.91 131.946 17.39 132.066C18.014 132.234 18.578 132.414 19.082 132.606C19.598 132.798 20.03 133.038 20.378 133.326C20.738 133.614 21.014 133.962 21.206 134.37C21.398 134.766 21.494 135.258 21.494 135.846C21.494 136.53 21.362 137.118 21.098 137.61C20.846 138.09 20.498 138.48 20.054 138.78C19.622 139.08 19.118 139.302 18.542 139.446C17.978 139.578 17.384 139.644 16.76 139.644C15.8 139.644 14.852 139.5 13.916 139.212C12.98 138.924 12.14 138.516 11.396 137.988L12.494 135.846C12.602 135.954 12.794 136.098 13.07 136.278C13.358 136.446 13.694 136.62 14.078 136.8C14.462 136.968 14.888 137.112 15.356 137.232C15.824 137.352 16.304 137.412 16.796 137.412C18.164 137.412 18.848 136.974 18.848 136.098C18.848 135.822 18.77 135.588 18.614 135.396C18.458 135.204 18.236 135.036 17.948 134.892C17.66 134.748 17.312 134.616 16.904 134.496C16.496 134.376 16.04 134.244 15.536 134.1C14.924 133.932 14.39 133.752 13.934 133.56C13.49 133.356 13.118 133.122 12.818 132.858C12.518 132.582 12.29 132.27 12.134 131.922C11.99 131.562 11.918 131.136 11.918 130.644C11.918 129.996 12.038 129.42 12.278 128.916C12.518 128.412 12.848 127.992 13.268 127.656C13.7 127.32 14.198 127.068 14.762 126.9C15.326 126.72 15.932 126.63 16.58 126.63C17.48 126.63 18.308 126.774 19.064 127.062C19.82 127.338 20.48 127.668 21.044 128.052L19.946 130.068ZM27.5111 139.68C26.7551 139.68 26.0711 139.554 25.4591 139.302C24.8471 139.038 24.3251 138.684 23.8931 138.24C23.4611 137.796 23.1251 137.28 22.8851 136.692C22.6571 136.104 22.5431 135.486 22.5431 134.838C22.5431 134.166 22.6571 133.536 22.8851 132.948C23.1131 132.348 23.4431 131.826 23.8751 131.382C24.3071 130.926 24.8291 130.566 25.4411 130.302C26.0651 130.038 26.7611 129.906 27.5291 129.906C28.2971 129.906 28.9811 130.038 29.5811 130.302C30.1931 130.566 30.7091 130.92 31.1291 131.364C31.5611 131.808 31.8851 132.324 32.1011 132.912C32.3291 133.5 32.4431 134.112 32.4431 134.748C32.4431 134.904 32.4371 135.054 32.4251 135.198C32.4251 135.342 32.4131 135.462 32.3891 135.558H25.0991C25.1351 135.93 25.2251 136.26 25.3691 136.548C25.5131 136.836 25.6991 137.082 25.9271 137.286C26.1551 137.49 26.4131 137.646 26.7011 137.754C26.9891 137.862 27.2891 137.916 27.6011 137.916C28.0811 137.916 28.5311 137.802 28.9511 137.574C29.3831 137.334 29.6771 137.022 29.8331 136.638L31.9031 137.214C31.5551 137.934 30.9971 138.528 30.2291 138.996C29.4731 139.452 28.5671 139.68 27.5111 139.68ZM29.9591 133.992C29.8991 133.284 29.6351 132.72 29.1671 132.3C28.7111 131.868 28.1531 131.652 27.4931 131.652C27.1691 131.652 26.8631 131.712 26.5751 131.832C26.2991 131.94 26.0531 132.096 25.8371 132.3C25.6211 132.504 25.4411 132.75 25.2971 133.038C25.1651 133.326 25.0871 133.644 25.0631 133.992H29.9591ZM39.5285 132.156C38.7965 132.168 38.1425 132.312 37.5665 132.588C36.9905 132.852 36.5765 133.254 36.3245 133.794V139.5H33.9125V130.068H36.1265V132.084C36.2945 131.76 36.4925 131.472 36.7205 131.22C36.9485 130.956 37.1945 130.728 37.4585 130.536C37.7225 130.344 37.9865 130.2 38.2505 130.104C38.5265 129.996 38.7905 129.942 39.0425 129.942C39.1745 129.942 39.2705 129.942 39.3305 129.942C39.4025 129.942 39.4685 129.948 39.5285 129.96V132.156ZM43.4114 139.5L39.9374 130.068H42.4214L44.8154 137.538L47.2274 130.068H49.4954L46.0214 139.5H43.4114ZM50.7523 139.5V130.068H53.1643V139.5H50.7523ZM50.7523 128.754V126.36H53.1643V128.754H50.7523ZM54.7462 134.784C54.7462 134.124 54.8602 133.5 55.0882 132.912C55.3162 132.324 55.6462 131.808 56.0782 131.364C56.5102 130.92 57.0322 130.566 57.6442 130.302C58.2562 130.038 58.9462 129.906 59.7142 129.906C60.7462 129.906 61.6222 130.128 62.3422 130.572C63.0742 131.016 63.6202 131.598 63.9802 132.318L61.6222 133.038C61.4182 132.69 61.1482 132.426 60.8122 132.246C60.4762 132.054 60.1042 131.958 59.6962 131.958C59.3482 131.958 59.0242 132.03 58.7242 132.174C58.4242 132.306 58.1602 132.498 57.9322 132.75C57.7162 132.99 57.5422 133.284 57.4102 133.632C57.2902 133.98 57.2302 134.364 57.2302 134.784C57.2302 135.204 57.2962 135.588 57.4282 135.936C57.5602 136.284 57.7342 136.584 57.9502 136.836C58.1782 137.088 58.4422 137.286 58.7422 137.43C59.0422 137.562 59.3602 137.628 59.6962 137.628C60.1282 137.628 60.5242 137.52 60.8842 137.304C61.2562 137.088 61.5142 136.824 61.6582 136.512L64.0162 137.232C63.6922 137.952 63.1582 138.54 62.4142 138.996C61.6702 139.452 60.7762 139.68 59.7322 139.68C58.9642 139.68 58.2742 139.548 57.6622 139.284C57.0502 139.02 56.5282 138.666 56.0962 138.222C55.6642 137.766 55.3282 137.244 55.0882 136.656C54.8602 136.056 54.7462 135.432 54.7462 134.784ZM69.7865 139.68C69.0305 139.68 68.3465 139.554 67.7345 139.302C67.1225 139.038 66.6005 138.684 66.1685 138.24C65.7365 137.796 65.4005 137.28 65.1605 136.692C64.9325 136.104 64.8185 135.486 64.8185 134.838C64.8185 134.166 64.9325 133.536 65.1605 132.948C65.3885 132.348 65.7185 131.826 66.1505 131.382C66.5825 130.926 67.1045 130.566 67.7165 130.302C68.3405 130.038 69.0365 129.906 69.8045 129.906C70.5725 129.906 71.2565 130.038 71.8565 130.302C72.4685 130.566 72.9845 130.92 73.4045 131.364C73.8365 131.808 74.1605 132.324 74.3765 132.912C74.6045 133.5 74.7185 134.112 74.7185 134.748C74.7185 134.904 74.7125 135.054 74.7005 135.198C74.7005 135.342 74.6885 135.462 74.6645 135.558H67.3745C67.4105 135.93 67.5005 136.26 67.6445 136.548C67.7885 136.836 67.9745 137.082 68.2025 137.286C68.4305 137.49 68.6885 137.646 68.9765 137.754C69.2645 137.862 69.5645 137.916 69.8765 137.916C70.3565 137.916 70.8065 137.802 71.2265 137.574C71.6585 137.334 71.9525 137.022 72.1085 136.638L74.1785 137.214C73.8305 137.934 73.2725 138.528 72.5045 138.996C71.7485 139.452 70.8425 139.68 69.7865 139.68ZM72.2345 133.992C72.1745 133.284 71.9105 132.72 71.4425 132.3C70.9865 131.868 70.4285 131.652 69.7685 131.652C69.4445 131.652 69.1385 131.712 68.8505 131.832C68.5745 131.94 68.3285 132.096 68.1125 132.3C67.8965 132.504 67.7165 132.75 67.5725 133.038C67.4405 133.326 67.3625 133.644 67.3385 133.992H72.2345Z" fill="#282828"/>
</svg>
