<svg width="145" height="144" viewBox="0 0 145 144" fill="none" xmlns="http://www.w3.org/2000/svg">
<path d="M144.939 69.5359C144.939 69.4249 144.947 69.3139 144.939 69.2029H144.925C143.193 30.7536 111.374 0 72.5028 0C48.779 0 27.6821 11.4549 14.4512 29.1182L14.429 29.1034C14.0517 29.5992 13.7039 30.1024 13.3561 30.613C4.57988 42.9706 -0.429793 58.1846 0.0289951 74.5678C1.10937 113.18 32.7658 144.407 71.3854 144.992C111.87 145.598 144.999 112.847 144.999 72.5033C145.006 71.5117 144.984 70.5201 144.939 69.5359ZM136.696 69.6913C136.763 88.0576 121.985 103.146 103.574 103.412C103.412 103.412 103.249 103.412 103.086 103.412C88.4936 103.412 75.8029 94.1033 71.2522 80.5986C91.5793 78.5637 107.504 61.3591 107.504 40.5065C107.504 29.8286 103.323 20.1201 96.5224 12.8979C119.262 22.1032 135.586 43.9548 136.696 69.6913ZM99.253 41.1429C98.9126 58.6878 84.2165 72.5624 66.6717 72.5624H48.4608V18.0481C48.4608 14.8514 50.5475 12.0321 53.6037 11.0923C57.9695 9.74554 62.5278 8.85756 67.2267 8.47277C85.1045 8.47277 99.6007 23.191 99.253 41.1429ZM37.2649 18.8029C38.5376 17.9667 40.2248 18.8547 40.2248 20.3717V72.5624H40.1804C26.9347 72.5624 16.168 61.7883 16.168 48.5501C16.168 43.7624 17.5518 39.2041 20.1787 35.2675C24.8036 28.7778 30.605 23.1836 37.2649 18.8029ZM9.67836 59.0282C12.7937 68.0708 19.8235 75.3004 28.7329 78.6969C21.8511 83.9285 16.7526 91.2247 14.207 99.4829C10.3887 91.2766 8.2576 82.1304 8.2576 72.4958C8.2502 67.8784 8.74599 63.3793 9.67836 59.0282ZM20.6449 110.39C21.0889 97.8032 28.7625 86.4963 40.2248 81.4126V124.627C40.2248 126.144 38.5376 127.032 37.2723 126.204C30.827 121.964 25.1958 116.599 20.6449 110.39ZM72.5102 136.756C65.9539 136.756 59.6271 135.764 53.6629 133.929C50.5919 132.982 48.4682 130.17 48.4682 126.958V80.8058H62.7128C67.6115 98.9353 84.0537 111.656 103.086 111.656C103.293 111.656 103.493 111.656 103.7 111.648C113.453 111.508 122.377 108.015 129.422 102.302C118.655 122.77 97.1884 136.756 72.5102 136.756Z" fill="#282828"/>
</svg>
