<svg width="24" height="24" viewBox="0 0 24 24" fill="none" xmlns="http://www.w3.org/2000/svg">
<g clip-path="url(#clip0_170_10121)">
<path d="M19.2001 23.9201C18.2401 23.9201 17.0401 23.6801 15.6801 23.2001C12.8001 22.0801 9.68008 20.0001 6.88008 17.1201C4.08008 14.2401 1.92008 11.2001 0.800078 8.32008C-0.159922 5.68008 -0.159922 3.52008 0.800078 2.56008C0.960078 2.40008 1.12008 2.24008 1.28008 2.08008C2.16008 1.12008 3.20008 0.0800781 4.56008 0.0800781C5.52008 0.0800781 6.40008 0.720078 7.28008 1.84008C10.0001 5.20008 8.80008 6.40008 7.36008 7.84008L7.12008 8.08008C6.88008 8.32008 6.48008 9.36008 10.5601 13.4401C11.9201 14.8001 13.0401 15.7601 13.9201 16.3201C14.4801 16.7201 15.5201 17.2801 15.9201 16.8001L16.1601 16.5601C17.5201 15.1201 18.7201 13.9201 22.1601 16.6401C23.2801 17.5201 23.8401 18.4801 23.9201 19.3601C24.0001 20.7201 22.8801 21.7601 21.9201 22.6401C21.7601 22.8001 21.6001 22.9601 21.4401 23.0401C20.9601 23.6801 20.2401 23.9201 19.2001 23.9201ZM4.48008 0.880078C3.52008 0.880078 2.64008 1.76008 1.92008 2.56008C1.68008 2.80008 1.52008 2.96008 1.44008 3.12008C0.640078 3.84008 0.720078 5.76008 1.60008 8.00008C2.64008 10.8001 4.72008 13.8401 7.44008 16.5601C10.1601 19.2801 13.2001 21.3601 16.0001 22.4001C18.2401 23.2801 20.1601 23.3601 20.8801 22.5601C21.0401 22.4001 21.2001 22.2401 21.3601 22.0801C22.1601 21.2801 23.1201 20.4001 23.0401 19.4401C23.0401 18.8001 22.5601 18.0001 21.6001 17.2801C18.8001 15.0401 18.0001 15.8401 16.7201 17.1201L16.4801 17.3601C15.8401 18.0001 14.8801 17.8401 13.4401 16.9601C12.4801 16.3201 11.2801 15.3601 9.92008 13.9201C6.56008 10.5601 5.44008 8.48008 6.48008 7.44008L6.72008 7.20008C8.08008 5.92008 8.88008 5.12008 6.56008 2.32008C5.92008 1.44008 5.20008 0.960078 4.48008 0.880078Z" fill="white"/>
<path d="M19.3601 9.9201C19.2801 9.9201 19.2801 9.9201 19.2001 9.9201C18.9601 9.8401 18.8801 9.6001 18.9601 9.4401C19.4401 8.1601 19.2001 6.7201 18.2401 5.7601C17.2801 4.8001 15.7601 4.4801 14.4801 5.0401C14.3201 5.1201 14.0801 5.0401 13.9201 4.8801C13.8401 4.6401 13.9201 4.4801 14.0801 4.3201C15.6801 3.6001 17.5201 3.9201 18.7201 5.2001C19.9201 6.4001 20.2401 8.1601 19.6001 9.6801C19.6801 9.8401 19.5201 9.9201 19.3601 9.9201Z" fill="white"/>
<path d="M22.96 11.3601C22.88 11.3601 22.88 11.3601 22.8 11.3601C22.56 11.2801 22.48 11.0401 22.56 10.8801C23.68 8.16006 23.04 5.12006 20.96 3.04006C18.88 0.96006 15.6 0.32006 12.88 1.60006C12.64 1.68006 12.48 1.60006 12.32 1.44006C12.24 1.20006 12.32 1.04006 12.48 0.88006C15.52 -0.47994 19.12 0.16006 21.44 2.48006C23.76 4.80006 24.4 8.16006 23.2 11.2001C23.28 11.2801 23.12 11.3601 22.96 11.3601Z" fill="white"/>
</g>
<defs>
<clipPath id="clip0_170_10121">
<rect width="24" height="24" fill="white"/>
</clipPath>
</defs>
</svg>
