<svg width="151" height="151" viewBox="0 0 151 151" fill="none" xmlns="http://www.w3.org/2000/svg">
<path d="M150 1H1V150H150V1Z" stroke="#4DBC15"/>
<path d="M7.17715 19.3655V24.5818H5.50244V11.2572H9.74871C10.9872 11.2572 11.9603 11.6295 12.668 12.3738C13.3757 13.112 13.7296 14.0972 13.7296 15.3297C13.7296 16.6108 13.391 17.5992 12.7138 18.2947C12.0427 18.9842 11.094 19.3411 9.86767 19.3655H7.17715ZM7.17715 17.9287H9.74871C10.493 17.9287 11.0634 17.706 11.46 17.2606C11.8566 16.8152 12.0549 16.1777 12.0549 15.348C12.0549 14.5487 11.8505 13.9081 11.4417 13.4262C11.033 12.9442 10.4716 12.7032 9.75785 12.7032H7.17715V17.9287ZM22.2861 18.4228H17.5731V23.145H23.064V24.5818H15.8984V11.2572H22.9726V12.7032H17.5731V16.9861H22.2861V18.4228ZM28.2346 18.5968H26.9717V24.5818H25.297V11.2572H26.9717V17.1325H27.9967L31.7488 11.2572H33.8353L29.6073 17.6998L34.1464 24.5818H32.0965L28.2346 18.5968ZM44.094 19.0909C44.094 20.909 43.7066 22.3092 42.9318 23.2914C42.157 24.2736 41.0557 24.7648 39.6281 24.7648C38.2555 24.7648 37.1694 24.2889 36.3702 23.3372C35.5771 22.3793 35.1653 21.028 35.1348 19.2831V16.7756C35.1348 14.9941 35.5283 13.6 36.3153 12.5934C37.1024 11.5806 38.2005 11.0742 39.6099 11.0742C41.0131 11.0742 42.1051 11.5593 42.8861 12.5294C43.6731 13.4933 44.0757 14.8721 44.094 16.6657V19.0909ZM42.4193 16.7573C42.4193 15.348 42.1875 14.3016 41.7238 13.6184C41.2663 12.9289 40.5616 12.5843 39.6099 12.5843C38.6886 12.5843 37.9901 12.932 37.5141 13.6275C37.0443 14.323 36.8064 15.348 36.8003 16.7024V19.0909C36.8003 20.4514 37.0353 21.4886 37.505 22.2024C37.9809 22.9163 38.6886 23.2731 39.6281 23.2731C40.5677 23.2731 41.2632 22.9437 41.7147 22.2847C42.1661 21.6259 42.401 20.6161 42.4193 19.2556V16.7573ZM48.8436 11.2572L52.3212 22.1292L55.7988 11.2572H57.9584V24.5818H56.2837V19.3929L56.4394 14.1949L52.9527 24.5818H51.6715L48.203 14.2315L48.3586 19.3929V24.5818H46.6839V11.2572H48.8436ZM67.238 18.4228H62.525V23.145H68.0159V24.5818H60.8503V11.2572H67.9244V12.7032H62.525V16.9861H67.238V18.4228ZM78.8878 24.5818H77.204V18.4228H71.8412V24.5818H70.1665V11.2572H71.8412V16.9861H77.204V11.2572H78.8878V24.5818ZM90.7481 23.145H92.3129L92.2947 27.8488H90.62V24.5818H82.7497V27.858H81.0659L81.0567 23.145H82.0359C82.4629 22.602 82.8107 21.7845 83.0792 20.6924C83.3537 19.6003 83.5276 18.3802 83.6008 17.0319L83.8571 11.2572H90.7481V23.145ZM83.8204 23.145H89.0642V12.7032H85.4859L85.2938 17.0044C85.2206 18.4137 85.0528 19.6308 84.7905 20.6558C84.5281 21.6747 84.2048 22.5044 83.8204 23.145ZM102.81 19.0909C102.81 20.909 102.422 22.3092 101.647 23.2914C100.873 24.2736 99.771 24.7648 98.3438 24.7648C96.9709 24.7648 95.8848 24.2889 95.0855 23.3372C94.2927 22.3793 93.8809 21.028 93.8504 19.2831V16.7756C93.8504 14.9941 94.2439 13.6 95.0311 12.5934C95.8183 11.5806 96.9166 11.0742 98.3251 11.0742C99.7288 11.0742 100.821 11.5593 101.602 12.5294C102.388 13.4933 102.791 14.8721 102.81 16.6657V19.0909ZM101.134 16.7573C101.134 15.348 100.903 14.3016 100.439 13.6184C99.9818 12.9289 99.2772 12.5843 98.3251 12.5843C97.4039 12.5843 96.7057 12.932 96.2297 13.6275C95.7602 14.323 95.5222 15.348 95.5156 16.7024V19.0909C95.5156 20.4514 95.7508 21.4886 96.2203 22.2024C96.6964 22.9163 97.4039 23.2731 98.3438 23.2731C99.2837 23.2731 99.979 22.9437 100.431 22.2847C100.881 21.6259 101.117 20.6161 101.134 19.2556V16.7573ZM105.399 24.5818V11.2572H109.197C110.412 11.2572 111.324 11.5532 111.934 12.145C112.549 12.7367 112.858 13.6245 112.858 14.808C112.858 15.4304 112.702 15.9794 112.391 16.4553C112.08 16.9311 111.659 17.3003 111.129 17.5627C111.739 17.7457 112.22 18.1209 112.574 18.6882C112.935 19.2556 113.114 19.939 113.114 20.7381C113.114 21.934 112.785 22.8735 112.126 23.5568C111.473 24.2401 110.539 24.5818 109.326 24.5818H105.399ZM107.074 18.3496V23.145H109.362C109.997 23.145 110.5 22.9375 110.872 22.5227C111.244 22.1017 111.43 21.513 111.43 20.7565C111.43 19.1519 110.753 18.3496 109.399 18.3496H107.074ZM107.074 16.9403H109.225C109.805 16.9403 110.271 16.7451 110.625 16.3546C110.985 15.9641 111.165 15.4456 111.165 14.7988C111.165 14.0668 111.003 13.536 110.68 13.2065C110.357 12.871 109.863 12.7032 109.197 12.7032H107.074V16.9403ZM121.845 21.1043H117.342L116.308 24.5818H114.588L118.88 11.2572H120.316L124.617 24.5818H122.897L121.845 21.1043ZM117.781 19.6583H121.414L119.594 13.6L117.781 19.6583ZM135.151 24.5818H133.467V18.4228H128.104V24.5818H126.43V11.2572H128.104V16.9861H133.467V11.2572H135.151V24.5818ZM146.718 19.0909C146.718 20.909 146.331 22.3092 145.556 23.2914C144.781 24.2736 143.68 24.7648 142.252 24.7648C140.88 24.7648 139.794 24.2889 138.995 23.3372C138.202 22.3793 137.789 21.028 137.759 19.2831V16.7756C137.759 14.9941 138.152 13.6 138.939 12.5934C139.726 11.5806 140.825 11.0742 142.234 11.0742C143.637 11.0742 144.73 11.5593 145.51 12.5294C146.297 13.4933 146.7 14.8721 146.718 16.6657V19.0909ZM145.044 16.7573C145.044 15.348 144.812 14.3016 144.348 13.6184C143.89 12.9289 143.186 12.5843 142.234 12.5843C141.313 12.5843 140.614 12.932 140.139 13.6275C139.668 14.323 139.43 15.348 139.425 16.7024V19.0909C139.425 20.4514 139.659 21.4886 140.129 22.2024C140.605 22.9163 141.313 23.2731 142.252 23.2731C143.192 23.2731 143.887 22.9437 144.339 22.2847C144.791 21.6259 145.025 20.6161 145.044 19.2556V16.7573Z" fill="#282828"/>
<path d="M102.264 103.512H94.3408" stroke="#4DBC15" stroke-width="3"/>
<path d="M100.063 114.076H92.5803" stroke="#4DBC15" stroke-width="3"/>
<path d="M73.6541 70.5C76.4711 89.8672 65.4379 96.4691 59.5691 97.35V128.16L66.6116 133.442H95.2215L104.465 94.7083H80.2565C82.7214 73.2288 81.1368 70.4999 73.6541 70.5Z" stroke="#4DBC15" stroke-width="3"/>
<path d="M59.1008 94.396H47.8555V133.754H59.1008V94.396Z" stroke="#4DBC15" stroke-width="3"/>
<path d="M97.4227 124.199H90.3801" stroke="#4DBC15" stroke-width="3"/>
<path fill-rule="evenodd" clip-rule="evenodd" d="M49.7459 53H55V43.9116L44.4832 40.8309V37H41V53H46.2541V47.9625H49.7459V53Z" fill="#4DBC15"/>
<path fill-rule="evenodd" clip-rule="evenodd" d="M85.6463 44.0634V48.8353C85.6489 49.108 85.6879 49.3793 85.7622 49.6422C85.8368 49.9091 85.9625 50.16 86.1326 50.3813C86.3092 50.6092 86.5362 50.7949 86.7967 50.9246C87.4493 51.2024 88.1919 51.2024 88.8444 50.9246C89.1048 50.7949 89.332 50.6092 89.5086 50.3813C89.6782 50.1598 89.8041 49.9091 89.879 49.6422C89.9531 49.3793 89.9917 49.108 89.9936 48.8353V44.0843H91.9543V49.0202C91.9543 50.2865 91.5222 51.9544 89.4605 52.7155C88.4092 53.0923 87.255 53.0949 86.2018 52.7229C84.5221 52.107 83.6879 50.8752 83.6879 49.0275V44.0634H85.6461H85.6463ZM80.1861 45.2016C80.611 45.6185 80.9512 46.1099 81.1892 46.6502C81.4355 47.2129 81.5604 47.8193 81.5559 48.4314C81.5625 49.6467 81.0675 50.8148 80.1836 51.6697C79.7511 52.0832 79.2421 52.4132 78.684 52.6415C77.4946 53.1186 76.1597 53.1186 74.9705 52.6415C74.4124 52.4132 73.9034 52.0832 73.4709 51.6697C72.5878 50.8145 72.0936 49.6464 72.1011 48.4314C72.0968 47.8193 72.2216 47.213 72.4677 46.6502C73.2153 44.9495 74.9355 43.842 76.829 43.842C78.0877 43.842 79.2962 44.3314 80.1861 45.2016ZM101.418 44.0782V45.7239L96.7266 51.0723H101.671V52.7906H94.2215V51.1276L98.8789 45.7964H94.384V44.0781H101.418V44.0782ZM110.747 44.0782V45.7239L106.055 51.0723H111V52.7906H103.55V51.1276L108.208 45.7964H103.713V44.0781H110.747V44.0782ZM63.9734 41V44.6671C65.018 43.8443 66.6322 43.625 67.9479 44.1571C69.3151 44.7102 70.099 45.9359 70.1002 47.5199V52.7883H68.1281V48.1543C68.1281 47.0653 67.5623 45.7931 65.9695 45.7931C64.2343 45.7931 63.9746 47.2724 63.9746 48.1543V52.7896H62V41H63.9734ZM79.2839 49.5474C79.5357 48.8229 79.5357 48.0372 79.2839 47.3129C79.171 46.9938 78.993 46.7005 78.761 46.4507C78.5283 46.2098 78.2467 46.0188 77.9343 45.8901C77.2244 45.6141 76.4327 45.6141 75.7229 45.8901C75.4103 46.0186 75.1289 46.2096 74.8962 46.4507C74.6631 46.7003 74.4849 46.9936 74.372 47.3129C74.12 48.0372 74.12 48.8231 74.372 49.5474C74.4849 49.8667 74.6633 50.1602 74.8962 50.4096C75.1289 50.6507 75.4103 50.8417 75.7229 50.9702C76.4329 51.2453 77.2242 51.2453 77.9343 50.9702C78.2467 50.8415 78.5283 50.6507 78.761 50.4096C78.9932 50.1598 79.1712 49.8664 79.2839 49.5474Z" fill="black"/>
</svg>
