<svg width="15" height="15" viewBox="0 0 15 15" fill="none" xmlns="http://www.w3.org/2000/svg">
<path d="M11.0459 0.0982064C10.6253 -0.127669 10.1108 0.0493148 9.89686 0.493489L3.54101 13.6889C3.32708 14.1331 3.49475 14.676 3.91549 14.9019C4.03521 14.9663 4.1677 15 4.30211 15C4.61352 15 4.91371 14.8197 5.06457 14.5066L11.4204 1.31112C11.6344 0.867002 11.4667 0.324022 11.0459 0.0982064ZM6.48221 4.44355C6.48221 2.5571 5.02822 1.02234 3.24105 1.02234C1.45399 1.02234 0 2.5571 0 4.44355C0 6.32994 1.45399 7.8647 3.24111 7.8647C5.02828 7.8647 6.48221 6.32994 6.48221 4.44355ZM3.24111 6.06058C2.39643 6.06058 1.70917 5.33515 1.70917 4.44355C1.70917 3.55189 2.39643 2.82646 3.24111 2.82646C4.08584 2.82646 4.7731 3.55183 4.7731 4.44355C4.77304 5.33515 4.08584 6.06058 3.24111 6.06058ZM11.7589 7.13542C9.97172 7.13542 8.51773 8.67018 8.51773 10.5566C8.51773 12.443 9.97167 13.9777 11.7589 13.9777C13.546 13.9777 15 12.443 15 10.5566C15 8.67012 13.5461 7.13542 11.7589 7.13542ZM11.7589 12.1735C10.9142 12.1735 10.2269 11.4481 10.2269 10.5565C10.2269 9.66492 10.9142 8.93948 11.7589 8.93948C12.6036 8.93948 13.2908 9.66492 13.2908 10.5565C13.2908 11.4481 12.6036 12.1735 11.7589 12.1735Z" fill="#CC9966"/>
</svg>
