<svg width="151" height="150" viewBox="0 0 151 150" fill="none" xmlns="http://www.w3.org/2000/svg">
<path d="M150 116H1V149H150V116Z" fill="#4DBC15"/>
<path d="M150 1H1V149H150V1Z" stroke="#4DBC15"/>
<path d="M31.7932 96.6387H28.5593V74.3856L23 76.8582V73.8261L31.2845 70.2346H31.7932V96.6387ZM52.3225 85.431C52.3225 89.3052 51.7533 92.2049 50.6147 94.1299C49.4763 96.0427 47.6898 97 45.2553 97C42.8936 97 41.1313 96.0796 39.9685 94.238C38.8058 92.3975 38.2003 89.6301 38.1518 85.9363V81.4243C38.1518 77.5861 38.7211 74.7226 39.8595 72.8335C41.0101 70.9445 42.7966 70 45.219 70C47.605 70 49.3672 70.8963 50.5058 72.6891C51.6563 74.4818 52.262 77.1951 52.3225 80.8287V85.431ZM49.1069 80.8648C49.1069 78.0855 48.798 76.04 48.1803 74.7286C47.5626 73.405 46.5755 72.7432 45.219 72.7432C43.8988 72.7432 42.9298 73.393 42.3122 74.6924C41.6945 75.9798 41.3735 77.929 41.3493 80.5399V85.9543C41.3493 88.7217 41.6703 90.8032 42.3122 92.1989C42.9541 93.5826 43.9352 94.274 45.2553 94.274C46.5634 94.274 47.5262 93.6187 48.144 92.3072C48.7617 90.9957 49.0826 88.9924 49.1069 86.2973V80.8648ZM81.8148 74.3838H75.2046V96.6387H72.0461V74.3838H65.4531V71.6748H81.8148V74.3838ZM88.8565 81.8593H93.9312C96.186 81.8707 97.9524 82.5279 99.2295 83.831C100.507 85.1226 101.145 86.9057 101.145 89.1804C101.145 91.4665 100.495 93.2839 99.1951 94.6326C97.9059 95.9697 96.1172 96.6387 93.827 96.6387H85.6981V71.6748H88.8565V81.8593ZM106.513 96.6387H103.354V71.6748H106.513V96.6387ZM88.8565 84.5683V93.9469H93.8959C95.1851 93.9469 96.186 93.5068 96.8994 92.6266C97.6129 91.7465 97.9691 90.5863 97.9691 89.1461C97.9691 87.7287 97.6129 86.6143 96.8994 85.8027C96.1972 84.9797 95.2019 84.5683 93.9136 84.5683H88.8565ZM128 88.7174C127.862 91.3922 127.103 93.4382 125.722 94.8553C124.353 96.2728 122.414 96.9815 119.906 96.9815C117.386 96.9815 115.384 96.0325 113.899 94.1354C112.416 92.2266 111.673 89.6433 111.673 86.3857V81.8593C111.673 78.613 112.433 76.0469 113.951 74.1609C115.482 72.2749 117.564 71.3319 120.2 71.3319C122.627 71.3319 124.503 72.0578 125.826 73.5094C127.16 74.9496 127.886 77.0128 128 79.699H124.808C124.669 77.6643 124.238 76.2127 123.513 75.344C122.788 74.4753 121.683 74.0409 120.2 74.0409C118.485 74.0409 117.167 74.7096 116.247 76.0469C115.326 77.3728 114.866 79.3218 114.866 81.8936V86.4714C114.866 88.9975 115.292 90.935 116.143 92.2837C117.006 93.6325 118.26 94.3073 119.906 94.3073C121.551 94.3073 122.736 93.9007 123.462 93.0896C124.186 92.278 124.635 90.8207 124.808 88.7174H128Z" fill="#4DBC15"/>
<path d="M11.7812 132.612C11.7812 131.752 11.8925 130.951 12.0966 130.248C12.3007 129.544 12.6161 128.958 13.0057 128.45C13.3953 127.961 13.8777 127.57 14.4158 127.316C14.9724 127.042 15.5847 126.906 16.2712 126.906C16.7165 126.906 17.1432 126.984 17.5514 127.101C17.941 127.238 18.2935 127.433 18.6089 127.668C18.9429 127.902 19.2027 128.215 19.4253 128.567C19.648 128.919 19.8149 129.329 19.9263 129.778H21.6703C21.6518 129.446 21.5776 129.114 21.4662 128.762C21.3549 128.41 21.2065 128.059 21.0024 127.726C20.7983 127.394 20.5385 127.081 20.2417 126.788C19.9448 126.495 19.6109 126.222 19.2212 125.987C18.813 125.772 18.3677 125.596 17.8668 125.459C17.3844 125.342 16.8278 125.264 16.2155 125.264C15.7331 125.264 15.2322 125.322 14.7312 125.42C14.2488 125.537 13.7664 125.713 13.3026 125.948C12.8387 126.202 12.412 126.515 12.0224 126.906C11.6142 127.296 11.2617 127.765 10.9648 128.313C10.6679 128.879 10.4267 129.524 10.2598 130.267C10.0928 131.01 10 131.87 10 132.808C10 133.765 10.0928 134.625 10.2969 135.349C10.4824 136.072 10.7422 136.717 11.0576 137.244C11.373 137.772 11.7441 138.221 12.1708 138.573C12.5975 138.925 13.0243 139.218 13.4881 139.414C13.9334 139.629 14.3972 139.785 14.8611 139.863C15.3249 139.961 15.7517 140 16.1599 140C16.7536 140 17.2916 139.922 17.774 139.765C18.275 139.629 18.7203 139.414 19.1285 139.16C19.5366 138.886 19.8892 138.573 20.186 138.221C20.5014 137.87 20.7612 137.498 20.9838 137.107C21.2065 136.717 21.3735 136.306 21.5219 135.876C21.6518 135.446 21.726 135.036 21.7631 134.625H20.0376C19.9819 135.094 19.8335 135.544 19.648 135.993C19.4439 136.423 19.1841 136.814 18.8501 137.186C18.5347 137.537 18.1451 137.811 17.6998 138.026C17.236 138.261 16.735 138.358 16.1599 138.358C15.5105 138.358 14.9167 138.221 14.3787 137.948C13.8406 137.674 13.3768 137.303 12.9872 136.795C12.5975 136.306 12.3007 135.7 12.0966 134.997C11.8925 134.293 11.7812 133.492 11.7812 132.612ZM36.3775 132.632C36.3775 131.537 36.2291 130.56 35.9322 129.642C35.6354 128.743 35.2272 127.961 34.6706 127.316C34.114 126.671 33.446 126.163 32.6297 125.811C31.8318 125.44 30.9042 125.264 29.8837 125.264C28.8632 125.264 27.9541 125.44 27.1377 125.811C26.3399 126.163 25.6534 126.671 25.0968 127.316C24.5588 127.961 24.132 128.743 23.8352 129.642C23.5383 130.56 23.3899 131.537 23.3899 132.632C23.3899 133.238 23.4455 133.844 23.5569 134.43C23.6867 135.036 23.8537 135.603 24.0949 136.15C24.3176 136.697 24.6144 137.205 24.9855 137.674C25.338 138.143 25.7648 138.554 26.2286 138.886C26.711 139.238 27.2676 139.511 27.8613 139.707C28.4736 139.902 29.1601 140 29.8837 140C30.6259 140 31.2938 139.902 31.9061 139.707C32.5183 139.511 33.0564 139.238 33.5388 138.886C34.0212 138.554 34.4479 138.143 34.8005 137.674C35.153 137.205 35.4313 136.697 35.6725 136.15C35.9137 135.603 36.0807 135.036 36.192 134.43C36.3219 133.844 36.3775 133.238 36.3775 132.632ZM34.5964 132.632C34.5964 133.492 34.5036 134.274 34.2995 134.958C34.114 135.661 33.8357 136.267 33.446 136.775C33.0564 137.283 32.5554 137.655 31.9617 137.948C31.368 138.221 30.6815 138.358 29.8837 138.358C29.0859 138.358 28.3994 138.221 27.8057 137.948C27.2305 137.655 26.7296 137.283 26.3399 136.775C25.9503 136.267 25.6534 135.661 25.4494 134.958C25.2638 134.274 25.171 133.492 25.171 132.632C25.171 131.811 25.2824 131.029 25.4865 130.326C25.6906 129.622 26.006 129.016 26.4141 128.508C26.8038 128 27.3047 127.609 27.8799 127.335C28.4736 127.042 29.1416 126.906 29.8837 126.906C30.6259 126.906 31.2938 127.042 31.8875 127.335C32.4627 127.609 32.9636 128 33.3718 128.508C33.7614 129.016 34.0769 129.622 34.2809 130.326C34.485 131.029 34.5964 131.811 34.5964 132.632ZM37.7008 125.616L42.1722 132.456L37.441 139.648H39.6489L43.2855 133.883L46.922 139.648H49.1299L44.3987 132.456L48.8701 125.616H46.6622L43.2855 130.99L39.9087 125.616H37.7008ZM56.4585 125.616H50.8552V139.648H52.6364V133.824H56.4585C57.2006 133.824 57.8314 133.726 58.3695 133.531C58.889 133.336 59.3343 133.062 59.6868 132.691C60.0393 132.339 60.2991 131.909 60.4661 131.401C60.6516 130.893 60.7258 130.345 60.7258 129.72C60.7258 129.094 60.6516 128.547 60.4661 128.039C60.2991 127.531 60.0393 127.101 59.6868 126.749C59.3343 126.397 58.889 126.124 58.3695 125.909C57.8314 125.713 57.2006 125.616 56.4585 125.616ZM56.2729 132.182H52.6364V127.257H56.2729C57.2192 127.257 57.9057 127.472 58.3138 127.883C58.7406 128.313 58.9447 128.919 58.9447 129.72C58.9447 130.521 58.7406 131.127 58.3138 131.557C57.9057 131.967 57.2192 132.182 56.2729 132.182ZM69.3347 125.401H67.1824L62.1915 139.648H64.0654L65.5497 135.349H70.7819L72.192 139.648H74.1772L69.3347 125.401ZM66.0136 133.863L68.2586 127.629L70.2809 133.863H66.0136ZM77.5862 131.401V125.616H75.805V139.648H77.5862V133.042H84.6737V139.648H86.4549V125.616H84.6737V131.401H77.5862ZM98.9174 127.257V125.616H89.1949V139.648H99.0472V138.007H90.9761V133.238H98.3051V131.596H90.9761V127.257H98.9174ZM103.352 131.401V125.616H101.571V139.648H103.352V133.042H110.439V139.648H112.22V125.616H110.439V131.401H103.352ZM116.741 136.971V125.616H114.96V139.648H117.019L123.791 128.235H123.829V139.648H125.61V125.616H123.55L116.778 136.971H116.741ZM131.912 122H130.28C130.261 122.391 130.354 122.743 130.502 123.075C130.651 123.407 130.873 123.681 131.17 123.915C131.467 124.169 131.82 124.345 132.246 124.482C132.673 124.619 133.137 124.697 133.675 124.697C134.176 124.697 134.64 124.619 135.067 124.502C135.475 124.384 135.846 124.208 136.143 123.974C136.44 123.739 136.662 123.446 136.829 123.114C136.996 122.782 137.07 122.41 137.07 122H135.438C135.363 122.489 135.159 122.84 134.863 123.075C134.566 123.309 134.157 123.427 133.675 123.427C133.193 123.427 132.784 123.329 132.488 123.094C132.191 122.879 131.987 122.528 131.912 122ZM130.131 136.971V125.616H128.35V139.648H130.41L137.182 128.235H137.219V139.648H139V125.616H136.941L130.168 136.971H130.131Z" fill="white"/>
<path fill-rule="evenodd" clip-rule="evenodd" d="M33.7436 46H42V31.7994L25.4736 26.9858V21H20V46H28.2564V38.129H33.7436V46Z" fill="#4DBC15"/>
<path fill-rule="evenodd" clip-rule="evenodd" d="M91.1584 31.8504V39.4059C91.1626 39.8377 91.2238 40.2672 91.3405 40.6835C91.4579 41.1061 91.6554 41.5033 91.9226 41.8538C92.2001 42.2145 92.5568 42.5086 92.9663 42.714C93.9917 43.1537 95.1586 43.1537 96.1841 42.714C96.5932 42.5086 96.9502 42.2145 97.2278 41.8538C97.4944 41.503 97.6922 41.1061 97.8098 40.6835C97.9263 40.2672 97.9869 39.8377 97.99 39.4059V31.8835H101.071V39.6986C101.071 41.7037 100.392 44.3445 97.1523 45.5496C95.5002 46.1461 93.6864 46.1502 92.0315 45.5612C89.3918 44.5861 88.0809 42.6357 88.0809 39.7103V31.8504H91.1581H91.1584ZM82.5782 33.6525C83.2458 34.3126 83.7804 35.0907 84.1545 35.9462C84.5415 36.837 84.7377 37.7972 84.7307 38.7663C84.7411 40.6907 83.9631 42.5401 82.5743 43.8937C81.8946 44.5485 81.0947 45.0709 80.2177 45.4324C78.3487 46.1878 76.2509 46.1878 74.3822 45.4324C73.5052 45.0709 72.7054 44.5485 72.0256 43.8937C70.6379 42.5395 69.8614 40.6901 69.8732 38.7663C69.8664 37.7972 70.0626 36.8373 70.4493 35.9462C71.6241 33.2534 74.3272 31.4999 77.3028 31.4999C79.2807 31.4999 81.1798 32.2747 82.5782 33.6525ZM115.943 31.8739V34.4796L108.57 42.9478H116.341V45.6685H104.634V43.0354L111.953 34.5943H104.889V31.8736H115.943V31.8739ZM130.602 31.8739V34.4796L123.23 42.9478H131V45.6685H119.293V43.0354L126.612 34.5943H119.549V31.8736H130.602V31.8739ZM57.101 27V32.8062C58.7425 31.5035 61.2792 31.1563 63.3466 31.9988C65.4952 32.8745 66.7269 34.8151 66.7289 37.3232V45.6649H63.6298V38.3277C63.6298 36.6035 62.7407 34.589 60.2377 34.589C57.5111 34.589 57.103 36.9313 57.103 38.3277V45.6668H54V27H57.101ZM81.1604 40.5334C81.5561 39.3863 81.5561 38.1422 81.1604 36.9954C80.983 36.4901 80.7033 36.0258 80.3387 35.6302C79.973 35.2488 79.5305 34.9464 79.0396 34.7427C77.9241 34.3057 76.68 34.3057 75.5645 34.7427C75.0734 34.9461 74.6311 35.2485 74.2654 35.6302C73.8992 36.0255 73.6191 36.4899 73.4417 36.9954C73.0458 38.1422 73.0458 39.3866 73.4417 40.5334C73.6191 41.0389 73.8995 41.5036 74.2654 41.8986C74.6311 42.2803 75.0734 42.5827 75.5645 42.7861C76.6803 43.2217 77.9238 43.2217 79.0396 42.7861C79.5305 42.5824 79.973 42.2803 80.3387 41.8986C80.7035 41.503 80.9833 41.0384 81.1604 40.5334Z" fill="black"/>
</svg>
