<svg width="151" height="52" viewBox="0 0 151 52" fill="none" xmlns="http://www.w3.org/2000/svg">
<path d="M80.9316 12.1652C82.1086 12.1652 83.0714 13.0566 83.0714 14.305V38.0693H79.9319V28.7566H73.9015C73.5101 28.7566 73.2588 28.7566 73.0816 28.7196L67.2655 38.0693H63.8033L69.9765 28.1139C66.5858 26.9369 64.5889 24.0461 64.5889 20.5839C64.5889 18.1215 65.4458 16.1246 67.1941 14.5536C68.9424 12.9481 71.1905 12.1626 74.01 12.1626H80.9316V12.1652ZM79.9319 26.0112V15.0561H74.1501C70.2595 15.0561 67.7998 17.4101 67.7998 20.5522C67.7998 23.7287 70.2622 26.0112 74.1501 26.0112H79.9319Z" fill="white"/>
<path d="M96.9401 12.166C99.7596 12.166 102.008 12.9515 103.756 14.557C105.504 16.1281 106.396 18.1249 106.396 20.553C106.396 22.9439 105.504 24.9408 103.756 26.5119C102.008 28.0829 99.7596 28.8658 96.9401 28.8658H91.1954V38.0727H88.056V14.3084C88.056 13.06 88.9473 12.1687 90.1957 12.1687H96.9401V12.166ZM96.7973 25.975C100.688 25.975 103.185 23.6924 103.185 20.5503C103.185 17.4108 100.688 15.0542 96.7973 15.0542H91.1954V25.9723H96.7973V25.975Z" fill="white"/>
<path d="M126.233 12.166H129.586L119.845 33.3278C119.097 34.9332 118.454 36.0388 117.917 36.6471C116.883 37.7527 115.635 38.324 114.135 38.324C112.635 38.324 111.387 38.1811 110.387 37.8611L110.85 34.9359C111.956 35.1845 112.99 35.2929 113.884 35.2929C115.061 35.2929 116.026 34.5788 116.703 33.1876L117.203 32.045L108.068 12.1687H111.421L118.843 28.477L126.233 12.166Z" fill="white"/>
<path d="M133.942 34.6113C131.731 32.1145 130.622 28.9724 130.622 25.1558C130.622 21.3022 131.728 18.1257 133.942 15.6633C136.153 13.1666 138.938 11.9155 142.329 11.9155C144.54 11.9155 147.111 12.5926 150.002 13.9151L148.716 16.6631C146.468 15.5575 144.397 14.9862 142.437 14.9862C139.903 14.9862 137.835 15.949 136.227 17.8401C134.622 19.7312 133.836 22.1592 133.836 25.1558C133.836 28.1181 134.622 30.5435 136.227 32.4346C137.832 34.3257 139.903 35.254 142.437 35.254C144.4 35.254 146.468 34.6827 148.716 33.5772L150.002 36.3252C147.148 37.645 144.577 38.3247 142.329 38.3247C138.935 38.3221 136.153 37.0737 133.942 34.6113Z" fill="white"/>
<path d="M51.8052 24.854C51.8052 24.8143 51.8078 24.7747 51.8052 24.735H51.7999C51.181 10.9922 39.808 0 25.9144 0C17.4349 0 9.89431 4.09429 5.16525 10.4076L5.15731 10.4023C5.02243 10.5795 4.89812 10.7594 4.77381 10.9419C1.63697 15.3589 -0.153619 20.7967 0.0103636 26.6525C0.396517 40.4535 11.7113 51.615 25.515 51.8239C39.9852 52.0408 51.8264 40.3345 51.8264 25.9146C51.829 25.5575 51.8211 25.2058 51.8052 24.854ZM48.8588 24.9095C48.8826 31.4742 43.6007 36.8671 37.0203 36.9623C36.9621 36.9623 36.9039 36.9623 36.8457 36.9623C31.63 36.9623 27.094 33.635 25.4674 28.8081C32.7329 28.0808 38.4247 21.9314 38.4247 14.4781C38.4247 10.6615 36.9303 7.19145 34.4997 4.61004C42.6274 7.90028 48.4621 15.7106 48.8588 24.9095ZM35.4757 14.7029C35.354 20.974 30.1012 25.9331 23.8302 25.9331H17.3238V6.45088C17.3238 5.30829 18.0697 4.30059 19.162 3.96469C20.7225 3.48332 22.3517 3.16593 24.0312 3.0284C30.4186 3.0284 35.6 8.28908 35.4757 14.7029ZM13.3194 6.71801C13.7744 6.41914 14.3774 6.73653 14.3774 7.27873V25.9331H14.3615C9.62717 25.9331 5.77886 22.0822 5.77886 17.3505C5.77886 15.6392 6.27346 14.01 7.21239 12.6029C8.86545 10.286 10.939 8.28643 13.3194 6.71801ZM3.4593 21.0983C4.57279 24.3303 7.08544 26.9144 10.2699 28.1284C7.81014 29.9983 5.98781 32.6062 5.07797 35.5579C3.71321 32.6247 2.95148 29.3556 2.95148 25.912C2.94883 24.2616 3.12604 22.6508 3.4593 21.0983ZM7.37902 39.4564C7.53771 34.9575 10.2805 30.9161 14.3774 29.099V44.5452C14.3774 45.0874 13.7744 45.4048 13.3221 45.1086C11.0184 43.593 9.00563 41.6755 7.37902 39.4564ZM25.917 48.8802C23.5737 48.8802 21.3123 48.5257 19.1805 47.8698C18.0829 47.5313 17.3238 46.5262 17.3238 45.3783V28.8822H22.4152C24.1661 35.3621 30.0431 39.9087 36.8457 39.9087C36.9198 39.9087 36.9912 39.9087 37.0652 39.9061C40.5512 39.8558 43.7409 38.6074 46.2589 36.5656C42.4106 43.8813 34.7377 48.8802 25.917 48.8802Z" fill="white"/>
</svg>
