<svg width="21" height="23" viewBox="0 0 21 23" fill="none" xmlns="http://www.w3.org/2000/svg">
<path d="M9.39922 10.0484C9.7093 9.73837 9.7093 9.2345 9.39922 8.92442C9.08915 8.61434 8.58527 8.61434 8.27519 8.92442L4.06977 13.1298C3.35271 13.8469 2.96512 14.7771 2.96512 15.7849C2.96512 16.7926 3.35271 17.7229 4.06977 18.4399C5.54264 19.9128 7.92636 19.9128 9.37985 18.4399L18.876 8.9438C19.8643 7.95543 20.407 6.6376 20.407 5.24225C20.407 3.8469 19.8643 2.52907 18.876 1.5407C16.8217 -0.513566 13.5078 -0.513566 11.4535 1.5407L1.97674 11.0174C0.697675 12.2965 0 13.9826 0 15.7849C0 17.5872 0.697675 19.2926 1.97674 20.5523C3.25581 21.8314 4.94186 22.5291 6.74419 22.5291C8.54651 22.5291 10.2519 21.8314 11.5116 20.5523L15.7171 16.3469C16.0271 16.0368 16.0271 15.5329 15.7171 15.2229C15.407 14.9128 14.9031 14.9128 14.593 15.2229L10.3876 19.4283C9.4186 20.3973 8.12016 20.9399 6.74419 20.9399C5.36822 20.9399 4.06977 20.3973 3.10078 19.4283C2.13178 18.4593 1.58915 17.1609 1.58915 15.7849C1.58915 14.4089 2.13178 13.1105 3.10078 12.1415L12.5775 2.66473C13.2752 1.96705 14.186 1.59884 15.155 1.59884C16.124 1.59884 17.0543 1.98643 17.7326 2.66473C18.4302 3.3624 18.7984 4.27326 18.7984 5.24225C18.7984 6.21124 18.4109 7.14147 17.7326 7.81977L8.23643 17.3159C7.4031 18.1492 6.02713 18.1492 5.17442 17.3159C4.76744 16.9089 4.53488 16.3663 4.53488 15.7849C4.53488 15.2035 4.76744 14.6609 5.17442 14.2539L9.39922 10.0484V10.0484Z" fill="white"/>
</svg>
