<?xml version="1.0" ?><svg fill="none" height="24" viewBox="0 0 24 24" width="24" xmlns="http://www.w3.org/2000/svg"><path clip-rule="evenodd" d="M12 2.25C12.4142 2.25 12.75 2.58579 12.75 3L12.75 21C12.75 21.4142 12.4142 21.75 12 21.75C11.5858 21.75 11.25 21.4142 11.25 21V20.4188C10.5362 20.3778 9.82501 20.2784 9.1243 20.1204C6.39038 19.5039 4.23469 17.4459 3.58505 14.7836C3.13832 12.9528 3.13832 11.0471 3.58505 9.21639C4.23469 6.55409 6.39038 4.49604 9.1243 3.87958C9.82502 3.72157 10.5362 3.62212 11.25 3.58118V3C11.25 2.58579 11.5858 2.25 12 2.25ZM11.25 5.08397C10.6468 5.12306 10.0462 5.20935 9.45425 5.34284C7.25053 5.83975 5.55086 7.48779 5.04229 9.57198C4.65257 11.1691 4.65257 12.8309 5.04229 14.428C5.55086 16.5122 7.25053 18.1602 9.45425 18.6571C10.0462 18.7906 10.6468 18.8769 11.25 18.916L11.25 5.08397ZM13.9791 4.44623C14.0702 4.04216 14.4716 3.78846 14.8757 3.87958C17.6096 4.49604 19.7653 6.55409 20.415 9.2164C20.8617 11.0471 20.8617 12.9528 20.415 14.7836C19.7653 17.4459 17.6096 19.5039 14.8757 20.1204C14.4716 20.2115 14.0702 19.9578 13.9791 19.5537C13.888 19.1496 14.1417 18.7482 14.5458 18.6571C16.7495 18.1602 18.4491 16.5121 18.9577 14.428C19.3474 12.8308 19.3474 11.1691 18.9577 9.57198C18.4491 7.4878 16.7495 5.83975 14.5458 5.34284C14.1417 5.25172 13.888 4.8503 13.9791 4.44623Z" fill="black" fill-rule="evenodd"/></svg>