<svg width="41" height="57" viewBox="0 0 41 57" fill="none" xmlns="http://www.w3.org/2000/svg">
<path d="M21.224 0.0118559C9.57028 -0.377444 0 8.87084 0 20.3346C0 33.3448 12.5955 42.7867 19.6553 56.3653C20.0137 57.0548 21.015 57.0557 21.3746 56.3663C27.7612 44.1483 38.6767 35.9554 40.6997 24.1847C42.7942 12.0043 33.6819 0.42818 21.224 0.0118559ZM20.514 30.986C14.5796 30.986 9.7686 26.217 9.7686 20.3346C9.7686 14.4523 14.5797 9.68333 20.514 9.68333C26.4484 9.68333 31.2594 14.4523 31.2594 20.3346C31.2594 26.217 26.4484 30.986 20.514 30.986Z" fill="#282828"/>
<path d="M20.514 30.986C14.5796 30.986 9.7686 26.217 9.7686 20.3346C9.7686 14.4523 14.5797 9.68333 20.514 9.68333C26.4484 9.68333 31.2594 14.4523 31.2594 20.3346C31.2594 26.217 26.4484 30.986 20.514 30.986Z" fill="#282828"/>
<path d="M35.987 19.8663C35.987 19.8426 35.9886 19.8188 35.987 19.7951H35.9839C35.6137 11.5749 28.811 5 20.5006 5C15.4286 5 10.9182 7.44898 8.08957 11.2253L8.08482 11.2221C8.00414 11.3281 7.92979 11.4357 7.85543 11.5448C5.97915 14.1868 4.90811 17.4395 5.0062 20.9421C5.23717 29.1971 12.0051 35.8732 20.2617 35.9982C28.917 36.128 35.9997 29.1259 35.9997 20.5007C36.0013 20.2871 35.9965 20.0767 35.987 19.8663ZM34.2247 19.8995C34.2389 23.8261 31.0796 27.0519 27.1435 27.1088C27.1087 27.1088 27.0739 27.1088 27.0391 27.1088C23.9193 27.1088 21.2062 25.1186 20.2332 22.2314C24.579 21.7964 27.9836 18.1182 27.9836 13.66C27.9836 11.3771 27.0897 9.30153 25.6358 7.75747C30.4974 9.72551 33.9874 14.3972 34.2247 19.8995ZM26.2196 13.7945C26.1468 17.5455 23.0049 20.5118 19.2539 20.5118H15.3622V8.85856C15.3622 8.17513 15.8083 7.57237 16.4617 7.37146C17.3951 7.08353 18.3696 6.89369 19.3742 6.81142C23.1948 6.81142 26.294 9.95807 26.2196 13.7945ZM12.967 9.01835C13.2391 8.83958 13.5998 9.02942 13.5998 9.35374V20.5118H13.5903C10.7585 20.5118 8.4566 18.2083 8.4566 15.3781C8.4566 14.3545 8.75244 13.38 9.31406 12.5384C10.3028 11.1525 11.5431 9.95649 12.967 9.01835ZM7.06916 17.6198C7.7352 19.5531 9.23812 21.0987 11.1429 21.8248C9.6716 22.9433 8.58158 24.5032 8.03736 26.2688C7.22104 24.5143 6.76541 22.5589 6.76541 20.4991C6.76383 19.5119 6.86983 18.5485 7.06916 17.6198ZM9.41373 28.6007C9.50865 25.9096 11.1492 23.4923 13.5998 22.4055V31.6445C13.5998 31.9688 13.2391 32.1586 12.9685 31.9815C11.5906 31.075 10.3867 29.928 9.41373 28.6007ZM20.5022 34.2374C19.1005 34.2374 17.7478 34.0254 16.4727 33.6331C15.8162 33.4306 15.3622 32.8294 15.3622 32.1428V22.2757H18.4076C19.4549 26.1517 22.9701 28.8712 27.0391 28.8712C27.0834 28.8712 27.1261 28.8712 27.1704 28.8696C29.2555 28.8396 31.1634 28.0928 32.6695 26.8715C30.3677 31.2474 25.7782 34.2374 20.5022 34.2374Z" fill="white"/>
</svg>
