<svg width="26" height="31" viewBox="0 0 26 31" fill="none" xmlns="http://www.w3.org/2000/svg">
<path d="M25.0968 12.9141V21.2141C25.0968 23.1141 24.3968 24.9141 23.0968 26.3141V27.2141C23.0968 28.8141 21.7968 30.2141 20.0968 30.2141H11.6968C10.0968 30.2141 8.69684 28.9141 8.69684 27.2141C8.69684 26.6141 9.19684 26.2141 9.69684 26.2141C10.1968 26.2141 10.6968 26.6141 10.6968 27.2141C10.6968 27.7141 11.0968 28.2141 11.6968 28.2141H20.0968C20.5968 28.2141 21.0968 27.8141 21.0968 27.2141V26.0141C21.0968 25.9141 21.0968 25.8141 21.0968 25.7141C21.0968 25.6141 21.0968 25.6141 21.0968 25.6141C21.0968 25.5141 21.1968 25.4141 21.2968 25.3141C22.3968 24.2141 22.9968 22.8141 22.9968 21.3141V13.0141C22.9968 12.7141 22.8968 12.5141 22.6968 12.3141C22.5968 12.2141 22.1968 11.9141 21.6968 12.0141C21.2968 12.1141 20.8968 12.6141 20.8968 13.1141V15.5141C20.8968 16.1141 20.3968 16.5141 19.8968 16.5141C19.3968 16.5141 18.8968 16.1141 18.8968 15.5141V10.0141C18.8968 9.71411 18.7968 9.51411 18.5968 9.31411C18.3968 9.11411 18.1968 9.01411 17.8968 9.01411C17.3968 9.01411 16.8968 9.51411 16.8968 10.0141V15.5141C16.8968 16.1141 16.3968 16.5141 15.8968 16.5141C15.3968 16.5141 14.8968 16.1141 14.8968 15.5141V7.01411C14.8968 6.71411 14.7968 6.51411 14.5968 6.31411C14.3968 6.11411 14.1968 6.01411 13.8968 6.01411C13.3968 6.01411 12.8968 6.51411 12.8968 7.01411V15.5141C12.8968 16.1141 12.3968 16.5141 11.8968 16.5141C11.3968 16.5141 10.8968 16.1141 10.8968 15.5141V2.91411C10.8968 2.61411 10.7968 2.41411 10.5968 2.21411C10.4968 2.11411 10.0968 1.81411 9.59684 1.91411C9.19684 2.01411 8.79684 2.51411 8.79684 3.01411V15.2141C8.79684 15.6141 8.59684 16.0141 8.19684 16.1141C7.79684 16.3141 7.39684 16.2141 7.09684 15.9141L4.49684 13.3141C3.89684 12.7141 2.89684 12.7141 2.29684 13.4141C1.79684 14.0141 1.89684 14.9141 2.49684 15.5141L9.49684 22.5141C9.89684 22.9141 9.89684 23.5141 9.49684 23.9141C9.29684 24.1141 8.99684 24.2141 8.79684 24.2141C8.49684 24.2141 8.29684 24.1141 8.09684 23.9141L1.09684 16.8141C-0.203162 15.5141 -0.403162 13.3141 0.796838 12.0141C1.49684 11.2141 2.49684 10.7141 3.49684 10.7141C4.39684 10.7141 5.29684 11.1141 5.99684 11.7141L6.89684 12.6141V3.11411C6.89684 1.71411 7.79684 0.414114 9.19684 0.114114C10.1968 -0.185886 11.2968 0.114113 11.9968 0.914113C12.5968 1.51411 12.8968 2.21411 12.8968 3.01411V4.21411C13.1968 4.11411 13.5968 4.01411 13.8968 4.01411C14.6968 4.01411 15.3968 4.31411 15.9968 4.91411C16.5968 5.51411 16.8968 6.21411 16.8968 7.01411V7.21411C17.1968 7.11411 17.5968 7.01411 17.8968 7.01411C18.6968 7.01411 19.3968 7.31411 19.9968 7.91411C20.5968 8.51411 20.8968 9.21411 20.8968 10.0141V10.2141C20.9968 10.2141 21.0968 10.1141 21.1968 10.1141C22.1968 9.81411 23.2968 10.1141 23.9968 10.9141C24.7968 11.4141 25.0968 12.2141 25.0968 12.9141Z" fill="white"/>
</svg>
