<svg width="40" height="40" viewBox="0 0 40 40" fill="none" xmlns="http://www.w3.org/2000/svg">
<g clip-path="url(#clip0_637_6242)">
<path d="M15.3004 30.9C6.80039 30.9 -0.0996094 24 -0.0996094 15.5C-0.0996094 7 6.80039 0 15.3004 0C23.8004 0 30.8004 7 30.8004 15.5C30.8004 16.7 30.7004 17.9 30.4004 19.1C30.3004 19.6 29.7004 20 29.2004 19.8C28.7004 19.7 28.3004 19.1 28.5004 18.6C28.7004 17.6 28.9004 16.6 28.9004 15.5C28.9004 8.1 22.9004 2 15.4004 2C7.90039 2 1.90039 8.1 1.90039 15.5C1.90039 22.9 7.90039 29 15.4004 29C16.5004 29 17.5004 28.9 18.6004 28.6C19.1004 28.5 19.7004 28.8 19.8004 29.3C19.9004 29.8 19.6004 30.4 19.1004 30.5C17.8004 30.8 16.6004 30.9 15.3004 30.9Z" fill="white"/>
<path d="M36.3996 39.9998C35.4996 39.9998 34.5996 39.5998 33.8996 38.9998L22.8996 27.9998C22.4996 27.5998 22.4996 26.9998 22.8996 26.5998C23.2996 26.1998 23.8996 26.1998 24.2996 26.5998L35.2996 37.5998C35.8996 38.1998 36.8996 38.1998 37.3996 37.5998C37.9996 36.9998 37.9996 35.9998 37.3996 35.4998L26.3996 24.4998C25.9996 24.0998 25.9996 23.4998 26.3996 23.0998C26.7996 22.6998 27.3996 22.6998 27.7996 23.0998L38.7996 34.0998C40.1996 35.4998 40.1996 37.6998 38.7996 39.0998C38.1996 39.5998 37.2996 39.9998 36.3996 39.9998Z" fill="white"/>
<path d="M15.3008 27C9.00078 27 3.80078 21.8 3.80078 15.5C3.80078 9.2 9.00078 4 15.3008 4C21.6008 4 26.8008 9.2 26.8008 15.5C26.8008 21.8 21.7008 27 15.3008 27ZM15.3008 6C10.1008 6 5.80078 10.3 5.80078 15.5C5.80078 20.7 10.1008 25 15.3008 25C20.5008 25 24.8008 20.7 24.8008 15.5C24.8008 10.3 20.6008 6 15.3008 6Z" fill="white"/>
</g>
<defs>
<clipPath id="clip0_637_6242">
<rect width="40" height="40" fill="white"/>
</clipPath>
</defs>
</svg>
