<svg width="180" height="180" viewBox="0 0 180 180" fill="none" xmlns="http://www.w3.org/2000/svg">
<style>
    @media (prefers-color-scheme: dark) {
    .color { 
        fill: #ffffff 
    }
}
</style>
<path class="color" d="M179.925 86.3204C179.925 86.1826 179.934 86.0448 179.925 85.9071H179.906C177.757 38.1768 138.257 0 90.0035 0C60.5533 0 34.364 14.2199 17.9394 36.1467L17.9119 36.1284C17.4434 36.7438 17.0116 37.3685 16.5799 38.0023C5.68538 53.3426 -0.533538 72.2293 0.0359941 92.5671C1.37715 140.499 40.6747 179.264 88.6164 179.99C138.873 180.743 179.998 140.086 179.998 90.004C180.008 88.764 179.98 87.5422 179.925 86.3204ZM169.692 86.5133C169.774 109.313 151.43 128.043 128.575 128.374C128.373 128.374 128.171 128.374 127.969 128.374C109.854 128.374 94.1004 116.818 88.4511 100.053C113.685 97.5275 133.453 76.1697 133.453 50.284C133.453 37.0286 128.263 24.9766 119.821 16.0111C148.049 27.4384 168.314 54.5644 169.692 86.5133ZM123.211 51.0649C122.788 72.8444 104.545 90.0684 82.7649 90.0684H60.1671V22.4046C60.1671 18.4362 62.7578 14.9363 66.5516 13.7697C71.9711 12.0979 77.6298 10.9956 83.4631 10.5179C105.647 10.5179 123.642 28.7888 123.211 51.0649ZM46.2596 23.3323C47.8396 22.2943 49.9342 23.3966 49.9342 25.2798V90.0684H49.8791C33.4362 90.0684 20.0706 76.6937 20.0706 60.26C20.0706 54.3164 21.7884 48.6582 25.0494 43.7711C30.7906 35.7242 37.9924 28.7796 46.2596 23.3323ZM12.0145 73.2764C15.8818 84.5017 24.6084 93.4764 35.6684 97.6928C27.1254 104.187 20.7963 113.244 17.6363 123.496C12.8964 113.309 10.2508 101.955 10.2508 89.9946C10.2416 84.2626 10.8571 78.6684 12.0145 73.2764ZM25.6281 137.036C26.1792 121.411 35.7051 107.375 49.9342 101.064V154.71C49.9342 156.593 47.8396 157.695 46.2689 156.667C38.268 151.403 31.2775 144.743 25.6281 137.036ZM90.0124 169.766C81.8738 169.766 74.0196 168.535 66.616 166.257C62.8036 165.081 60.1671 161.59 60.1671 157.603V100.311H77.8502C83.9315 122.816 104.343 138.607 127.969 138.607C128.226 138.607 128.474 138.607 128.732 138.598C140.839 138.423 151.917 134.087 160.662 126.996C147.296 152.404 120.648 169.766 90.0124 169.766Z" fill="#282828"/>
</svg>
