<svg width="16" height="16" viewBox="0 0 16 16" fill="none" xmlns="http://www.w3.org/2000/svg">
<style>
    @media (prefers-color-scheme: dark) {
    .color { 
        fill: #ffffff 
    }
}
</style>
<path class="color" d="M15.9933 7.67292C15.9933 7.66068 15.9941 7.64843 15.9933 7.63618H15.9917C15.8006 3.3935 12.2895 0 8.00032 0C5.38252 0 3.05457 1.26399 1.59462 3.21304L1.59217 3.21141C1.55053 3.26612 1.51215 3.32164 1.47377 3.37798C0.505367 4.74157 -0.0474256 6.42038 0.00319948 8.22818C0.122413 12.4888 3.61553 15.9346 7.87702 15.9991C12.3443 16.066 15.9998 12.4521 15.9998 8.00035C16.0007 7.89013 15.9982 7.78153 15.9933 7.67292ZM15.0837 7.69007C15.091 9.7167 13.4604 11.3816 11.4289 11.411C11.411 11.411 11.393 11.411 11.375 11.411C9.76482 11.411 8.36448 10.3838 7.86232 8.89363C10.1053 8.66911 11.8625 6.77064 11.8625 4.46969C11.8625 3.29143 11.4011 2.22014 10.6507 1.42321C13.1599 2.43897 14.9612 4.85017 15.0837 7.69007ZM10.9521 4.5391C10.9145 6.47506 9.29288 8.00608 7.35688 8.00608H5.34819V1.99152C5.34819 1.63877 5.57847 1.32768 5.91569 1.22398C6.39743 1.07537 6.90042 0.977386 7.41894 0.934925C9.39085 0.934925 10.9904 2.559 10.9521 4.5391ZM4.11196 2.07399C4.2524 1.98172 4.4386 2.0797 4.4386 2.24709V8.00608H4.4337C2.9721 8.00608 1.78405 6.81722 1.78405 5.35644C1.78405 4.82813 1.93674 4.32517 2.22661 3.89076C2.73694 3.17548 3.3771 2.55819 4.11196 2.07399ZM1.06795 6.51346C1.41171 7.51127 2.18742 8.30901 3.17052 8.68381C2.41115 9.26107 1.84856 10.0662 1.56767 10.9774C1.14634 10.0719 0.911182 9.06267 0.911182 7.99952C0.910364 7.49001 0.965073 6.99275 1.06795 6.51346ZM2.27805 12.181C2.32704 10.7921 3.17379 9.54441 4.4386 8.98346V13.752C4.4386 13.9194 4.2524 14.0174 4.11279 13.9259C3.4016 13.458 2.78022 12.866 2.27805 12.181ZM8.00111 15.0903C7.27767 15.0903 6.57952 14.9809 5.92142 14.7784C5.58254 14.6739 5.34819 14.3636 5.34819 14.0092V8.9165H6.92002C7.46058 10.917 9.2749 12.3206 11.375 12.3206C11.3979 12.3206 11.4199 12.3206 11.4428 12.3198C12.519 12.3043 13.5037 11.9189 14.281 11.2885C13.093 13.5471 10.7242 15.0903 8.00111 15.0903Z" fill="#282828"/>
</svg>
