<svg width="32" height="32" viewBox="0 0 32 32" fill="none" xmlns="http://www.w3.org/2000/svg">
<style>
    @media (prefers-color-scheme: dark) {
    .color { 
        fill: #ffffff 
    }
}
</style>
<path class="color" d="M31.9866 15.3458C31.9866 15.3214 31.9882 15.2969 31.9866 15.2724H31.9833C31.6012 6.78699 24.5791 0 16.0006 0C10.765 0 6.10915 2.52798 3.18923 6.42609L3.18433 6.42282C3.10105 6.53223 3.02429 6.64328 2.94754 6.75596C1.01073 9.48314 -0.0948511 12.8408 0.00639895 16.4564C0.244826 24.9776 7.23106 31.8691 15.754 31.9982C24.6885 32.1321 31.9997 24.9041 31.9997 16.0007C32.0013 15.7803 31.9964 15.5631 31.9866 15.3458ZM30.1674 15.3801C30.1821 19.4334 26.9208 22.7632 22.8578 22.822C22.8219 22.822 22.786 22.822 22.75 22.822C19.5296 22.822 16.729 20.7676 15.7246 17.7873C20.2106 17.3382 23.725 13.5413 23.725 8.93937C23.725 6.58286 22.8022 4.44029 21.3015 2.84642C26.3199 4.87794 29.9224 9.70034 30.1674 15.3801ZM21.9041 9.0782C21.829 12.9501 18.5858 16.0122 14.7138 16.0122H10.6964V3.98303C10.6964 3.27755 11.1569 2.65535 11.8314 2.44795C12.7949 2.15074 13.8008 1.95477 14.8379 1.86985C18.7817 1.86985 21.9808 5.11801 21.9041 9.0782ZM8.22392 4.14797C8.50481 3.96343 8.87719 4.1594 8.87719 4.49418V16.0122H8.8674C5.94421 16.0122 3.5681 13.6344 3.5681 10.7129C3.5681 9.65625 3.87349 8.65035 4.45322 7.78153C5.47389 6.35096 6.7542 5.11637 8.22392 4.14797ZM2.13591 13.0269C2.82343 15.0225 4.37483 16.618 6.34104 17.3676C4.8223 18.5221 3.69711 20.1323 3.13534 21.9548C2.29269 20.1438 1.82236 18.1253 1.82236 15.999C1.82073 14.98 1.93015 13.9855 2.13591 13.0269ZM4.5561 24.3619C4.65409 21.5841 6.34757 19.0888 8.87719 17.9669V27.5039C8.87719 27.8387 8.50481 28.0348 8.22558 27.8518C6.8032 26.9161 5.56044 25.7321 4.5561 24.3619ZM16.0022 30.1806C14.5553 30.1806 13.159 29.9617 11.8428 29.5568C11.1651 29.3477 10.6964 28.7271 10.6964 28.0184V17.833H13.84C14.9212 21.834 18.5498 24.6413 22.75 24.6413C22.7958 24.6413 22.8399 24.6413 22.8856 24.6396C25.038 24.6085 27.0074 23.8378 28.5621 22.5771C26.186 27.0941 21.4485 30.1806 16.0022 30.1806Z" fill="#282828"/>
</svg>
