<?xml version="1.0" standalone="no"?>
<!DOCTYPE svg PUBLIC "-//W3C//DTD SVG 20010904//EN"
 "http://www.w3.org/TR/2001/REC-SVG-20010904/DTD/svg10.dtd">
<svg version="1.0" xmlns="http://www.w3.org/2000/svg"
 width="700.000000pt" height="700.000000pt" viewBox="0 0 700.000000 700.000000"
 preserveAspectRatio="xMidYMid meet">
<metadata>
Created by potrace 1.14, written by Peter Selinger 2001-2017
</metadata>
<g transform="translate(0.000000,700.000000) scale(0.100000,-0.100000)"
fill="#000000" stroke="none">
<path d="M3278 6996 c-1 -2 -39 -6 -83 -10 -111 -8 -255 -29 -365 -51 -14 -3
-38 -8 -55 -10 -120 -22 -485 -134 -600 -185 -22 -10 -69 -31 -104 -46 -248
-108 -532 -284 -776 -478 -91 -73 -368 -341 -440 -426 -300 -352 -523 -741
-667 -1160 -37 -108 -101 -339 -112 -404 -3 -16 -10 -52 -15 -80 -13 -66 -20
-110 -27 -166 -3 -25 -7 -56 -9 -70 -26 -150 -27 -679 -1 -817 2 -10 7 -43 10
-73 7 -62 12 -94 26 -165 6 -27 12 -59 14 -70 74 -382 261 -834 494 -1190 57
-86 205 -290 221 -305 4 -3 31 -34 61 -70 112 -134 361 -370 520 -493 433
-336 963 -571 1514 -671 219 -41 349 -51 621 -51 218 0 358 9 482 29 21 4 54
9 73 11 19 3 46 7 60 10 14 3 41 8 60 11 241 42 612 169 873 300 1101 551
1818 1602 1935 2834 14 157 7 555 -13 725 -20 169 -67 391 -115 550 -11 39
-25 84 -29 100 -33 116 -135 363 -219 525 -170 328 -367 596 -637 865 -181
182 -191 191 -335 301 -387 298 -788 496 -1255 619 -124 33 -249 60 -325 70
-19 3 -46 7 -60 10 -13 2 -54 7 -90 11 -36 3 -78 8 -95 11 -33 5 -531 13 -537
9z m152 -416 c30 -5 71 -11 90 -15 19 -3 47 -8 61 -10 59 -10 226 -68 307
-105 77 -36 218 -115 232 -130 3 -3 32 -25 65 -49 89 -67 208 -184 272 -270
32 -42 60 -78 63 -81 15 -14 94 -155 128 -230 50 -107 86 -217 114 -345 32
-146 32 -444 1 -595 -64 -305 -194 -548 -418 -784 -21 -22 -89 -83 -140 -125
-59 -50 -194 -134 -290 -181 -166 -82 -369 -139 -546 -155 -58 -5 -891 -10
-1007 -6 l-22 1 2 1358 3 1357 27 58 c46 98 136 170 253 203 113 32 266 66
350 80 159 26 212 31 300 32 55 0 125 -4 155 -8z m1302 -234 c146 -66 311
-150 376 -193 15 -10 34 -22 43 -28 67 -41 171 -115 268 -191 110 -85 355
-320 434 -414 209 -251 356 -485 485 -771 75 -166 171 -462 196 -604 3 -16 10
-55 16 -85 6 -30 13 -71 16 -90 2 -19 6 -48 9 -65 28 -187 26 -445 -5 -580 -7
-28 -14 -61 -16 -75 -10 -56 -68 -219 -108 -304 -235 -501 -716 -855 -1255
-924 -76 -10 -372 -9 -445 1 -219 30 -468 125 -666 255 -231 151 -441 390
-559 637 -40 83 -83 187 -78 191 1 1 49 9 105 18 476 79 880 309 1190 679 242
288 387 623 437 1007 14 111 15 410 0 485 -3 17 -12 67 -20 112 -58 313 -213
640 -424 891 -34 39 -59 72 -56 72 2 0 28 -11 57 -24z m-2848 -246 c60 -22 56
47 56 -1171 0 -613 0 -1185 0 -1271 l0 -158 -54 0 c-29 0 -91 7 -138 15 -468
81 -832 426 -940 890 -23 102 -33 327 -17 410 5 28 12 66 15 85 9 51 62 207
91 265 104 206 388 530 653 745 77 63 224 169 255 185 36 17 46 18 79 5z
m-1394 -2010 c45 -118 132 -272 219 -385 49 -64 180 -200 246 -254 95 -80 372
-241 413 -241 22 0 11 -13 -63 -77 -273 -235 -458 -499 -585 -836 l-37 -98
-51 123 c-99 241 -182 551 -207 773 -2 17 -7 62 -12 100 -10 86 -11 492 -1
595 7 73 23 193 32 237 3 11 8 42 11 68 8 50 14 49 35 -5z m2549 -1032 c94
-324 282 -636 530 -877 156 -152 310 -260 516 -361 305 -151 586 -213 935
-205 96 2 191 6 210 10 253 43 415 90 573 164 49 22 90 41 92 41 19 0 313 192
327 214 4 6 9 8 12 5 7 -7 -99 -189 -173 -297 -161 -234 -341 -432 -587 -642
-100 -86 -317 -237 -444 -308 -224 -126 -558 -261 -759 -307 -116 -27 -256
-55 -296 -60 -27 -3 -61 -8 -75 -10 -89 -16 -234 -24 -405 -24 -163 -1 -228 4
-405 25 -178 21 -481 94 -563 136 -72 36 -150 131 -175 212 -4 11 -8 540 -9
1174 l-3 1152 343 0 344 0 12 -42z m-1098 -1047 c0 -725 -4 -1057 -11 -1071
-15 -29 -67 -53 -97 -45 -39 9 -244 157 -373 269 -86 75 -295 293 -374 392
l-88 109 6 90 c24 349 191 709 451 970 118 119 126 126 225 196 64 46 251 151
258 145 1 -2 3 -476 3 -1055z"/>
</g>
</svg>
